<svg  viewBox="0 0 17 20" xmlns="http://www.w3.org/2000/svg"><g stroke="#fff" transform="translate(0 1)"><circle cx="8.4" cy="1.2" r="1.2"/><path d="m8.4 17.88c1.32412109 0 2.1241211-.96 2.4-2.88h-4.8c.27587891 1.92 1.07587891 2.88 2.4 2.88z"/><path d="m8.40478778 1.7c-3.20518938 0-5.80350876 2.59831938-5.80350876 5.80350876l-.00301487 2.48229709c.0991326.89863105-.06586847 1.55308525-.57449101 1.90909965-.12258024.085801-.26199452.1499533-.41605736.1937558-.65498258.186273-1.10683687.7845496-1.10683687 1.4655047 0 .8523652.69097854 1.5433438 1.54334376 1.5433438h12.78845893c.8523653 0 1.5433438-.6909786 1.5433438-1.5433438 0-.6836035-.4438576-1.2880404-1.0961173-1.4926655-.1258799-.0394923-.240667-.0937025-.3429221-.1637811-.4594258-.3148591-.6764383-.9333869-.7286895-1.8698744v-2.52433624c0-3.20518938-2.5983193-5.80350876-5.80350872-5.80350876z" fill="#121a1f"/></g></svg>