<?xml version="1.0" encoding="UTF-8"?>
<svg width="14px" height="17px" viewBox="0 0 14 17" version="1.1" xmlns="http://www.w3.org/2000/svg" xmlns:xlink="http://www.w3.org/1999/xlink">
    <!-- Generator: Sketch 55 (78076) - https://sketchapp.com -->
    <title>icon</title>
    <desc>Created with Sketch.</desc>
    <g id="Page-1" stroke="none" stroke-width="1" fill="none" fill-rule="evenodd">
        <g id="04.1.-convert" transform="translate(-863.000000, -238.000000)" fill="#202A31" fill-rule="nonzero">
            <g id="Convert" transform="translate(80.000000, 60.000000)">
                <g transform="translate(300.000000, 68.000000)" id="Convert-from/to">
                    <g transform="translate(20.000000, 30.000000)">
                        <g id="Convert-icon" transform="translate(470.000000, 88.500000) rotate(-360.000000) translate(-470.000000, -88.500000) translate(463.000000, 81.000000)">
                            <g id="icon" transform="translate(0.187500, -0.000000)">
                                <path d="M9.765625,6.64285714 C10.1206652,6.64285714 10.4084821,6.3550402 10.4084821,6 C10.4084821,5.6449598 10.1206652,5.35714286 9.765625,5.35714286 L-5,5.35714286 C-5.63362882,5.35714286 -5.88511768,6.17696746 -5.36048296,6.53227562 L-0.930795462,9.53227562 C-0.636827752,9.73136487 -0.237126119,9.65445067 -0.0380368759,9.36048296 C0.161052367,9.06651525 0.0841381722,8.66681362 -0.209829538,8.46772438 L-2.90436006,6.64285714 L9.765625,6.64285714 Z" id="Path-5-Copy-2" transform="translate(2.382215, 7.500032) rotate(-270.000000) translate(-2.382215, -7.500032) "></path>
                                <path d="M18.625,6.64285714 C18.9800402,6.64285714 19.2678571,6.3550402 19.2678571,6 C19.2678571,5.6449598 18.9800402,5.35714286 18.625,5.35714286 L3.859375,5.35714286 C3.22574618,5.35714286 2.97425732,6.17696746 3.49889204,6.53227562 L7.92857954,9.53227562 C8.22254725,9.73136487 8.62224888,9.65445067 8.82133812,9.36048296 C9.02042737,9.06651525 8.94351317,8.66681362 8.64954546,8.46772438 L5.95501494,6.64285714 L18.625,6.64285714 Z" id="Path-5-Copy-3" transform="translate(11.241590, 7.500032) rotate(-90.000000) translate(-11.241590, -7.500032) "></path>
                            </g>
                        </g>
                    </g>
                </g>
            </g>
        </g>
    </g>
</svg>