<svg height="14" viewBox="0 0 16 14" width="16" xmlns="http://www.w3.org/2000/svg"><path d="m10.5286667 7.26666667c.148-.148.148-.381 0-.529-.143-.148-.381-.148-.5236667 0l-2.68233333 2.67733333v-8.84633333c0-.20633334-.164-.37566667-.37033334-.37566667-.20633333 0-.37566666.16933333-.37566666.37566667v8.84633333l-2.677-2.67733333c-.148-.148-.38633334-.148-.529 0-.148.148-.148.381 0 .529l3.31733333 3.31733333c.143.143.381.143.529 0zm2.6293333 2.42866666c0-.20633333.164-.37033333.3703333-.37033333.2063334 0 .3756667.164.3756667.37033333v3.63999997c0 .2063334-.1693333.3756667-.3756667.3756667h-13.15799997c-.20633333 0-.37033333-.1693333-.37033333-.3756667v-3.63999997c0-.20633333.164-.37033333.37033333-.37033333.20633334 0 .37566667.164.37566667.37033333v3.26966667h12.412z" fill="#a4a4a4" stroke="#a6a6a6" stroke-width=".2" transform="translate(1)"/></svg>