<svg viewBox="0 0 23 26" version="1.1" xmlns="http://www.w3.org/2000/svg" xmlns:xlink="http://www.w3.org/1999/xlink">
    <g id="Symbols" stroke="none" stroke-width="1" fill="none" fill-rule="evenodd">
        <g id="header_m" transform="translate(-336.000000, -12.000000)">
            <g id="header">
                <g id="button_notifications" transform="translate(336.000000, 12.000000)">
                    <ellipse id="Oval-12" stroke="#FFFFFF" stroke-width="1.33333333" fill="#121A1F" cx="11.3647059" cy="2.6" rx="1.62352941" ry="1.6"></ellipse>
                    <path d="M11.3647059,24.84 C13.1561638,24.84 14.2385168,23.56 14.6117647,21 L8.11764706,21 C8.49089499,23.56 9.57324793,24.84 11.3647059,24.84 Z" id="Oval-11" stroke="#FFFFFF" stroke-width="1.33333333" fill="#121A1F"></path>
                    <path d="M11.3711835,3.26666667 C7.02933622,3.26666667 3.50957358,6.7864293 3.50957358,11.1282766 L3.50543576,14.313346 C3.63974018,15.5131633 3.41580859,16.388485 2.72867881,16.8624764 C2.56030561,16.9786225 2.36849607,17.0647196 2.15604668,17.1228002 C1.27731396,17.3629251 0.667855775,18.1612707 0.667855775,19.0722213 C0.667855775,20.2087083 1.58916049,21.130013 2.72564746,21.130013 L20.1078113,21.130013 C21.2442983,21.130013 22.165603,20.2087083 22.165603,19.0722213 C22.165603,18.157718 21.5666463,17.3511393 20.6911989,17.0867367 C20.5172661,17.034204 20.3589378,16.9612613 20.218148,16.8661719 C19.597818,16.4472014 19.3035594,15.6206623 19.2327934,14.37046 L19.2327934,11.1282766 C19.2327934,6.7864293 15.7130307,3.26666667 11.3711835,3.26666667 Z" id="Rectangle-18" stroke="#FFFFFF" stroke-width="1.33333333" fill="#121A1F"></path>
                    <ellipse id="Oval" fill="#F44E79" cx="18.6705882" cy="5.8" rx="4.05882353" ry="4"></ellipse>
                </g>
            </g>
        </g>
    </g>
</svg>
