<svg height="20" viewBox="0 0 15 20" width="15" 
    xmlns="http://www.w3.org/2000/svg">
    <g fill-rule="evenodd">
        <path d="m14.1317991 15.0398324c-.598913.317035-1.935636.7474809-3.2405018.7474809-1.42209991 0-2.76009712-.4304459-3.66866094-1.4678979-.4281591-.4858627-.74035845-1.150863-.93914661-2.0130436h7.13853365v-2.0413962h-7.53483568c0-.1430524 0-.28610482 0-.46008746 0-.31703503 0-.60185105.02675995-.89182211h7.50935003v-2.04139627h-7.08119093c.20133673-.74748095.481679-1.40861497.91111239-1.86870239.87925531-1.06580474 2.13314983-1.55424489 3.46987274-1.55424489 1.2475231 0 2.4440749.37502924 3.1831591.69077551l.7938783-3.27731737c-1.0245235-.45879865-2.5574861-.86218062-4.2650254-.86218062-2.70020575 0-4.97607529 1.09157995-6.56638054 2.96285986-.90856382 1.0348745-1.61961377 2.3584313-1.96239591 3.91009866h-1.90632745v2.04010751h1.5941281c0 .28997106-.02930851.57607584-.02930851.86346938v.48844019h-1.56481959v2.042685h1.850259c.25613089 1.5271809.82318685 2.7605245 1.59157954 3.7374048 1.5941281 2.1277432 4.12230568 3.2786061 6.93592266 3.2786061 1.8209505 0 3.4711471-.5464344 4.4370536-1.0902912z" />
    </g>
</svg>