<svg height="32" viewBox="0 0 32 32" width="32" xmlns="http://www.w3.org/2000/svg"><g fill="none" fill-rule="evenodd"><path d="m-94-31h220v105h-220z" fill="#fff"/><g opacity=".6"><rect fill="#f0f4f8" height="32" rx="16" width="32"/><g fill="#000" stroke="#000" stroke-width=".25"><path d="m16.9254658 15.0031056c-.1645962.1645963-.1645962.4285714 0 .5931677.6801243.6801242.6801243 1.7857143 0 2.4658385l-3.5714285 3.5714286c-.6801243.6801242-1.7857143.6801242-2.4658385 0l-.5372671-.5372671c-.68012425-.6801242-.68012425-1.7857143 0-2.4658385l3.5714285-3.5714286c.1645963-.1645963.1645963-.4285714 0-.5931677-.1645962-.1645963-.4285714-.1645963-.5931677 0l-3.57142852 3.5714286c-.48757764.4875776-.75776398 1.1366459-.75776398 1.8260869s.26708075 1.3385094.75776398 1.826087l.53726712.5372671c.5031055.5031056 1.1645962.7546584 1.8260869.7546584s1.3229814-.2515528 1.826087-.7546584l3.5714285-3.5714286c1.0062112-1.0062112 1.0062112-2.6459627 0-3.6521739-.1614906-.1645963-.4285714-.1645963-.5931677 0z"/><path d="m23.2391304 10.310559-.537267-.53726707c-1.0062112-1.00621118-2.6459628-1.00621118-3.652174 0l-3.5714285 3.57142857c-1.0062112 1.0062112-1.0062112 2.6459627 0 3.6521739.1645962.1645963.4285714.1645963.5931677 0 .1645962-.1645963.1645962-.4285714 0-.5931677-.6801243-.6801242-.6801243-1.7857143 0-2.4658385l3.5714285-3.5714286c.6801243-.6801242 1.7857143-.6801242 2.4658386 0l.537267.5372671c.6801243.6801242.6801243 1.7857143 0 2.4658385l-3.5714285 3.5714286c-.1645963.1645963-.1645963.4285714 0 .5931677.0807453.0807453.189441.1242236.295031.1242236.1055901 0 .2142857-.0403727.2950311-.1242236l3.5714285-3.5714286c.4875777-.4875776.757764-1.1366459.757764-1.8260869s-.2670807-1.3385094-.7546584-1.826087z"/></g></g></g></svg>