<svg height="30" viewBox="0 0 45 30" width="45" xmlns="http://www.w3.org/2000/svg" xmlns:xlink="http://www.w3.org/1999/xlink"><mask id="a" fill="#fff"><path d="m.5 22.612h27.938v-21.732h-27.938z" fill="#fff" fill-rule="evenodd"/></mask><g fill="none" fill-rule="evenodd"><path d="m0 30h45v-30h-45z" fill="#414241"/><g transform="translate(8 4)"><path d="m6.536 21.342c0-.403.264-.734.695-.734.413 0 .691.317.691.734s-.278.734-.691.734c-.431 0-.695-.331-.695-.734zm1.856 0v-1.146h-.499v.278c-.158-.206-.398-.336-.724-.336-.643 0-1.146.504-1.146 1.204s.503 1.204 1.146 1.204c.326 0 .566-.13.724-.336v.278h.499zm16.844 0c0-.403.263-.734.695-.734.412 0 .691.317.691.734s-.279.734-.691.734c-.432 0-.695-.331-.695-.734zm2.701.935c.027 0 .048.006.062.019.015.012.022.028.022.049 0 .018-.006.032-.017.043-.012.011-.029.018-.05.021l.069.08h-.054l-.064-.079h-.021v.079h-.045v-.212zm-.014.285c.025 0 .048-.005.069-.014.021-.01.04-.022.056-.038s.028-.035.037-.057c.009-.021.014-.044.014-.069s-.005-.048-.014-.069c-.009-.022-.021-.041-.037-.057s-.035-.028-.056-.037c-.021-.01-.044-.014-.069-.014s-.048.004-.07.014c-.022.009-.041.021-.057.037s-.028.035-.037.057c-.01.021-.014.044-.014.069s.004.048.014.069c.009.022.021.041.037.057s.035.028.057.038c.022.009.045.014.07.014zm0-.406c.032 0 .062.006.09.018s.053.028.074.049.038.045.05.073c.012.027.018.057.018.088s-.006.061-.018.088c-.012.028-.029.052-.05.073-.021.02-.046.036-.074.049-.028.012-.058.018-.09.018s-.063-.006-.092-.018c-.028-.013-.053-.029-.074-.049-.021-.021-.037-.045-.049-.073-.012-.027-.018-.057-.018-.088s.006-.061.018-.088c.012-.028.028-.052.049-.073s.046-.037.074-.049c.029-.012.06-.018.092-.018zm-.831-.814v-2.067h-.499v1.199c-.159-.206-.398-.336-.724-.336-.643 0-1.146.504-1.146 1.204s.503 1.204 1.146 1.204c.326 0 .565-.13.724-.336v.278h.499zm-12.513-.758c.321 0 .527.202.58.557h-1.189c.052-.331.254-.557.609-.557zm.009-.446c-.671 0-1.141.49-1.141 1.204 0 .729.489 1.204 1.175 1.204.345 0 .662-.086.94-.321l-.245-.37c-.191.154-.436.24-.666.24-.322 0-.614-.149-.686-.561h1.703c.004-.062.009-.125.009-.192-.005-.714-.446-1.204-1.089-1.204zm6.019 1.204c0-.403.264-.734.696-.734.413 0 .69.317.69.734s-.277.734-.69.734c-.432 0-.696-.331-.696-.734zm1.857 0v-1.146h-.499v.278c-.159-.206-.398-.336-.725-.336-.642 0-1.146.504-1.146 1.204s.504 1.204 1.146 1.204c.327 0 .566-.13.725-.336v.278h.499zm-4.672 0c0 .696.485 1.204 1.223 1.204.345 0 .576-.077.825-.273l-.24-.403c-.187.134-.383.206-.599.206-.398-.005-.691-.293-.691-.734s.293-.729.691-.734c.216 0 .412.072.599.207l.24-.403c-.249-.197-.48-.274-.825-.274-.738 0-1.223.509-1.223 1.204zm6.427-1.204c-.288 0-.475.135-.604.336v-.278h-.495v2.292h.499v-1.285c0-.379.163-.59.49-.59.1 0 .206.015.311.058l.154-.47c-.11-.043-.254-.063-.355-.063zm-13.362.24c-.24-.158-.57-.24-.935-.24-.58 0-.954.278-.954.734 0 .374.278.605.791.676l.235.034c.273.038.403.11.403.24 0 .177-.183.278-.523.278-.345 0-.595-.11-.763-.24l-.235.389c.274.201.619.297.993.297.662 0 1.046-.312 1.046-.748 0-.403-.302-.614-.801-.686l-.235-.034c-.216-.029-.389-.072-.389-.225 0-.168.163-.269.437-.269.292 0 .575.111.714.197zm6.431-.24c-.287 0-.474.135-.604.336v-.278h-.494v2.292h.499v-1.285c0-.379.163-.59.489-.59.101 0 .207.015.312.058l.153-.47c-.11-.043-.254-.063-.355-.063zm-4.253.058h-.816v-.696h-.503v.696h-.466v.456h.466v1.045c0 .532.206.849.796.849.216 0 .465-.067.623-.178l-.144-.426c-.148.086-.311.129-.441.129-.249 0-.331-.153-.331-.384v-1.035h.816zm-7.454 2.292v-1.439c0-.541-.345-.906-.901-.911-.293-.004-.595.087-.806.408-.158-.254-.407-.408-.758-.408-.244 0-.484.072-.671.341v-.283h-.499v2.292h.504v-1.271c0-.398.22-.609.561-.609.331 0 .499.216.499.604v1.276h.503v-1.271c0-.398.23-.609.561-.609.341 0 .504.216.504.604v1.276z" fill="#fff"/><path d="m10.691 16.301h7.555v-13.576h-7.555z" fill="#ff5f00" mask="url(#a)"/><path d="m11.1712 9.513c0-2.754 1.29-5.207 3.298-6.788-1.469-1.156-3.322-1.846-5.336-1.846-4.768 0-8.633 3.866-8.633 8.634s3.865 8.634 8.633 8.634c2.014 0 3.867-.69 5.336-1.846-2.008-1.581-3.298-4.034-3.298-6.788" fill="#eb001b" mask="url(#a)"/><g fill="#f79e1b"><path d="m28.438 9.513c0 4.768-3.865 8.634-8.633 8.634-2.015 0-3.868-.69-5.336-1.846 2.008-1.581 3.298-4.034 3.298-6.788s-1.29-5.207-3.298-6.788c1.468-1.156 3.321-1.846 5.336-1.846 4.768 0 8.633 3.866 8.633 8.634" mask="url(#a)"/><path d="m28.1685 14.863v-.335h-.088l-.1.23-.101-.23h-.087v.335h.061v-.253l.095.218h.064l.094-.219v.254zm-.554 0v-.278h.112v-.057h-.286v.057h.113v.278z" mask="url(#a)"/></g></g></g></svg>