<?xml version="1.0" encoding="UTF-8"?>
<svg width="14px" height="14px" viewBox="0 0 14 14" version="1.1" xmlns="http://www.w3.org/2000/svg" xmlns:xlink="http://www.w3.org/1999/xlink">
    <!-- Generator: Sketch 55 (78076) - https://sketchapp.com -->
    <title>qr-scan</title>
    <desc>Created with Sketch.</desc>
    <g id="desktop" stroke="none" stroke-width="1" fill-rule="evenodd">
        <g id="01.1.-wallet_gigzi_qr" transform="translate(-1188.000000, -348.000000)" fill-rule="nonzero">
            <g id="wallet---gigzi" transform="translate(80.000000, 60.000000)">
                <g id="Send/Receive" transform="translate(860.000000, 193.000000)">
                    <g id="Address" transform="translate(20.000000, 93.000000)">
                        <g id="scan-qr" transform="translate(228.000000, 0.000000)">
                            <g id="qr-scan" transform="translate(0.000000, 2.000000)">
                                <path d="M9.33333333,0 L14,0 L14,3.88888889 L12.4444444,3.88888889 L12.4444444,1.55555556 L9.33333333,1.55555556 L9.33333333,0 Z M4.66666667,0 L4.66666667,1.55555556 L1.55555556,1.55555556 L1.55555556,3.88888889 L0,3.88888889 L0,0 L4.66666667,0 Z M9.33333333,14 L9.33333333,12.4444444 L12.4444444,12.4444444 L12.4444444,10.1111111 L14,10.1111111 L14,14 L9.33333333,14 Z M4.66666667,14 L0,14 L0,10.1111111 L1.55555556,10.1111111 L1.55555556,12.4444444 L4.66666667,12.4444444 L4.66666667,14 Z M0,6.22222222 L14,6.22222222 L14,7.77777778 L0,7.77777778 L0,6.22222222 Z" id="Shape"></path>
                            </g>
                        </g>
                    </g>
                </g>
            </g>
        </g>
    </g>
</svg>
