<svg height="15" viewBox="0 0 15 15" width="15"
    xmlns="http://www.w3.org/2000/svg">
    <g fill="#a6a6a6" stroke="#a6a6a6" stroke-width=".25" transform="translate(1 1)">
        <path d="m12.3307407 5.05555556h-1.2162222c-.1954815 0-.356537-.10761112-.4314074-.28816667-.0748704-.18055556-.0368333-.37074074.1011111-.50892593l.8599259-.85968518c.1263889-.12638889.195963-.29466667.195963-.4732963 0-.17887037-.0695741-.34690741-.195963-.47353704l-1.0960925-1.09609259c-.2527778-.25277778-.69357412-.25325926-.94683338 0l-.85968518.85968519c-.13818519.13794444-.32885185.17646296-.50892593.10135185-.18055555-.07487037-.28816667-.23592593-.28816667-.43140741v-1.21622222c0-.36905556-.3002037-.66925926-.66925925-.66925926h-1.55037038c-.36905555 0-.66925925.3002037-.66925925.66925926v1.21622222c0 .19548148-.10761112.35653704-.28816667.43140741-.18007408.07535185-.37074074.03659259-.50892593-.10135185l-.85968518-.85968519c-.25325926-.25325926-.69405556-.25277778-.94683334 0l-1.09609259 1.09609259c-.12638889.12638889-.19596296.29466667-.19596296.47353704 0 .17862963.06957407.34666667.19596296.4732963l.85992593.85968518c.13794444.13818519.17574074.32837037.10111111.50892593-.07462963.18055555-.23592593.28816667-.43140741.28816667h-1.21622222c-.36905556 0-.66925926.3002037-.66925926.66925925v1.55012963c0 .3692963.3002037.6695.66925926.6695h1.21622222c.19548148 0 .35653704.10761112.43140741.28816667.07487037.18055556.03683333.37074074-.10111111.50892593l-.85992593.85968518c-.12638889.12638889-.19596296.29466667-.19596296.47329628 0 .1788704.06957407.3469074.19596296.4735371l1.09609259 1.0960925c.25301852.2530186.69357408.2535.94683334 0l.85968518-.8599259c.13818519-.1379444.32812963-.1759815.50892593-.1011111.18055555.0748704.28816667.2359259.28816667.4314074v1.2162222c0 .3690556.3002037.6692593.66925925.6692593h1.55012963c.36905556 0 .66925926-.3002037.66925926-.6692593v-1.2162222c0-.1954815.10761111-.356537.28816667-.4314074.1807963-.0751111.37074074-.0368333.50892593.1011111l.85968518.8599259c.25325926.2532593.69405552.2527778.94683332 0l1.0960926-1.0960925c.1263889-.1263889.195963-.2946667.195963-.4735371 0-.17862961-.0695741-.34666665-.195963-.47329628l-.8599259-.85968518c-.1379445-.13818519-.1757408-.32837037-.1011111-.50892593.0746296-.18055555.2361666-.28816667.4316481-.28816667h1.2162222c.3690556 0 .6692593-.3002037.6692593-.66925925v-1.55037038c0-.36905555-.3002037-.66925925-.6692593-.66925925zm.1877778 2.21962963c0 .10351851-.0842592.18777777-.1877778.18777777h-1.2162222c-.3909629 0-.7267963.22437037-.8762963.58548148-.1497407.36111112-.0710185.75737037.2055926 1.03374075l.8599259.85968518c.073426.07342593.073426.19259263 0 .26577773l-1.0960926 1.0960926c-.0731851.0731852-.1923518.0736667-.26577773 0l-.85968518-.8599259c-.27661112-.2766111-.67262963-.3548518-1.03374075-.2055926-.36111111.1495-.58548148.4853334-.58548148.8762963v1.2162222c0 .1035186-.08425926.1877778-.18777777.1877778h-1.55037038c-.10351851 0-.18777777-.0842592-.18777777-.1877778v-1.2162222c0-.3909629-.22437037-.7267963-.58548148-.8762963-.1210926-.0503148-.2457963-.0748703-.36905556-.0748703-.24411111 0-.48075926.0962962-.66468519.2802222l-.85968518.8599259c-.07366667.0736667-.19283333.0731852-.26577778 0l-1.09609259-1.0960926c-.07342593-.0734259-.07342593-.1925926 0-.26577777l.85992593-.85968519c.27637037-.27637037.35533333-.67262963.20559259-1.03374074-.1495-.36087037-.48533334-.58524074-.8762963-.58524074h-1.21622222c-.10351852 0-.18777778-.08425926-.18777778-.18777777v-1.55037038c0-.10351851.08425926-.18777777.18777778-.18777777h1.21622222c.39096296 0 .7267963-.22437037.8762963-.58548148.14974074-.36111112.07101852-.75737037-.20559259-1.03374075l-.85992593-.85968518c-.07342593-.07342593-.07342593-.19259259 0-.26577778l1.09609259-1.09609259c.07318519-.07342593.19235185-.07342593.26577778 0l.85968518.85968518c.27612963.27612963.67214815.35533334 1.03374075.2055926.36111111-.14925926.58548148-.4850926.58548148-.87605556v-1.21622222c0-.10351852.08425926-.18777778.18777777-.18777778h1.55012963c.10375926 0 .18801852.08425926.18801852.18777778v1.21622222c0 .39096296.22437037.7267963.58548148.8762963.3615926.14974074.75737037.07077778 1.03374075-.20559259l.85968518-.85968519c.07366663-.07342593.19283333-.07342593.26577773 0l1.0960926 1.09609259c.073426.07342593.073426.1925926 0 .26577778l-.8599259.85968519c-.2763704.27637037-.3553333.67262963-.2055926 1.03374074.1495.36111111.4853334.58548148.8762963.58548148h1.2162222c.1035186-.00024074.1877778.08401852.1877778.18753703z"/>
        <path d="m6.5 4.33333333c-1.1947963 0-2.16666667.97187037-2.16666667 2.16666667s.97187037 2.16666667 2.16666667 2.16666667 2.16666667-.97187037 2.16666667-2.16666667-.97187037-2.16666667-2.16666667-2.16666667zm0 3.85185186c-.92901852 0-1.68518519-.75616667-1.68518519-1.68518519s.75616667-1.68518519 1.68518519-1.68518519 1.68518519.75616667 1.68518519 1.68518519-.75616667 1.68518519-1.68518519 1.68518519z"/>
    </g>
</svg>
