<svg viewBox="0 0 44 14"
    xmlns="http://www.w3.org/2000/svg">
    <path d="m17.9705342.03446062-2.2064794 13.65269688h3.5267808l2.2051233-13.65269688zm10.6380548 5.56134417c-1.232452-.60515839-1.9879863-1.01359161-1.9879863-1.63253424.0150685-.56275685.6389041-1.13929795 2.0319863-1.13929795 1.1458083-.02861729 1.9879863.23912672 2.6268905.50552226l.3200547.14203767.4794795-2.85648544c-.6966164-.26774401-1.801137-.56275685-3.1654384-.56275685-3.4827808 0-5.935178 1.80049229-5.9503972 4.37559931-.0287808 1.90027826 1.7557808 2.95477312 3.0913014 3.58735018 1.3643013.64890839 1.8287123 1.06962756 1.8287123 1.64616866-.0150685.88518831-1.1031644 1.29362161-2.1184795 1.29362161-1.4067945 0-2.1624794-.2103596-3.3096438-.7035959l-.464411-.2103596-.4931917 2.9685573c.8284657.3661816 2.352041.6884632 3.9334794.7049444 3.701274 0 6.1096712-1.7732235 6.1399589-4.51763699.0120548-1.50547945-.9289726-2.65856164-2.9623151-3.60113442zm12.5119726-5.51909246h-2.7286027c-.8408219 0-1.479726.24047517-1.8437808 1.09839469l-5.2387123 12.51205048h3.7012739l1.0193836-2.7089041h4.1409726l.5289041 2.7198416h3.2644384zm-4.0639726 8.16777345c.0714247.00688408 1.4206576-4.42205427 1.4206576-4.42205427l1.0743835 4.42205427s-1.7984246-.00000804-2.4950411 0zm-24.2394794-8.21002516-3.45535618 9.27574914-.37641095-1.82925942c-.63890411-2.11063784-2.64195891-4.40421661-4.87736987-5.54351455l3.16408219 11.73608731h3.73156161l5.5450548-13.6375642h-3.7315616z" fill-rule="nonzero"/>
    <path d="m7.8229589 1.79524829c-.26927397-1.04101028-1.12802739-1.74310788-2.29432876-1.75809076h-5.47227398l-.05635616.25261131c4.26875342 1.04640411 7.85173973 4.26622431 9.01412329 7.29486301z"/>
</svg>
