<svg viewBox="0 0 12 23"
    xmlns="http://www.w3.org/2000/svg"
    xmlns:xlink="http://www.w3.org/1999/xlink">
        <path d="m11.3384174 14.0025156c-.1066713-.3761427-.2360928-.7035087-.3880919-.9815136-.1519127-.2782745-.3694858-.5497159-.6531512-.8152231-.28332-.2653723-.5381914-.4790908-.76418259-.64156-.22586168-.162604-.5361193-.3444041-.93060019-.5456249-.39413554-.2011759-.70642212-.3508777-.93629854-.4493303-.23017861-.0983177-.56314327-.2330943-.99867815-.4042399-.38614922-.1539276-.67365663-.27162112-.86282442-.35285571-.18895194-.08132451-.43743432-.19677024-.74557665-.34660694-.30801282-.14961191-.53810509-.28232056-.6901473-.3977663-.15199904-.11544573-.31422919-.25660601-.48681998-.42343589-.17259079-.16682987-.29376696-.34440411-.36365802-.53263281-.06971839-.18827365-.10468551-.39367534-.10468551-.61616013 0-.58172422.24641026-1.05676903.73940345-1.42459496.49303635-.36782593 1.12991276-.55182881 1.91054287-.55182881.34492255 0 .69657952.04913636 1.05376215.14763387s.663296.2094477.91803793.3336148c.25495777.1241671.49519482.26110156.72122918.41075844.22599118.14979173.38614922.2630796.48073311.34008838.09449756.07705374.15437335.12834797.17876399.15406251.10697348.08555033.21761635.11544574.33266248.08986606.12320513-.00854155.21778903-.07709869.28366539-.20531179l.9985054-1.87392522c.0985555-.17105569.0781796-.33365975-.0616025-.48776722-.0493857-.05133918-.1107724-.11117496-.1852394-.17968715-.0737332-.06851218-.2340207-.19254442-.4807331-.37232148-.2464535-.17964219-.50732542-.34008839-.78240008-.48129362-.27537685-.14107037-.63290483-.28447843-1.07254079-.42986453-.43937694-.14561088-.89347461-.24392856-1.36194765-.29522279v-2.25905903c0-.1197165-.03690973-.21816906-.11064287-.29522279-.0739058-.07687391-.16844653-.11549069-.28366534-.11549069h-1.66400311c-.1068008 0-.19922623.04059482-.27727629.12191933-.07805006.0813245-.11707509.17752928-.11707509.28879415v2.3103083c-1.2900708.25660602-2.33770291.82992356-3.14293951 1.71981775-.80515026.88993916-1.20787648 1.92512954-1.20787648 3.10606567 0 .3507878.03505345.68449251.10490135 1.0009343.06976156.31671152.15610012.60123491.25884301.8536151.10265655.25256002.24856872.50062449.43752066.7445531.18895195.2438386.36771594.4535111.5361193.6288375.16848971.1752816.38830769.3571715.6593676.5453553.2712326.1883635.50335382.3403581.69649318.4558038.19318254.1150861.44991025.2481544.77026949.3975415.32044557.1498367.57320171.2630796.75809574.3402682.18489403.0769189.43752066.1840029.75809575.3206227.4436507.1796871.77238477.3187795.98598637.417232.21377428.0984526.4848342.2353421.81369778.4107585.3285614.1752365.56879845.3357277.720927.4812486.15199904.145521.28957953.3252082.41291417.5390615s.18510988.4406089.18510988.6803116c0 .6759959-.2526698 1.1978394-.75813892 1.5654855-.50525326.3680507-1.09088773.5520087-1.7563422.5520087-.30373906 0-.60799615-.0340314-.91190789-.1024536-1.06818069-.2227546-2.06647031-.7575452-2.99495521-1.6045968l-.02464966-.0256696c-.07399215-.0938671-.17263396-.1324389-.29575275-.115221-.13149363.0170831-.22603435.0684673-.28349266.1541974l-1.26952222 1.7325851c-.12329147.1711007-.1149598.3464721.02469283.5261592.04114032.0513842.11301718.1285728.21567373.2310713.10291556.1029032.2939828.2630796.57320171.4816982.27930525.218304.58334649.423391.91208057.6161602.32869091.1924545.74561982.3827511 1.25104576.5710697.50542595.188004 1.0291125.3205777 1.57144817.3975416v2.2461118c0 .1113997.0390682.2075596.11707509.288929.07809323.0814144.17047549.1218744.2772763.1218744h1.6640031c.11521881 0 .20975954-.038437.28362218-.1153558.07386264-.0769189.11064287-.1753714.11064287-.2954026v-2.2461119c1.30669097-.2224398 2.36869845-.8064568 3.18615193-1.7520059.8175399-.9455491 1.2264393-2.0728983 1.2264393-3.3819576-.0004317-.4277516-.0537458-.8299235-.1615826-1.2066506z"/>
</svg>
