<svg height="18" viewBox="0 0 16 18" width="16"
    xmlns="http://www.w3.org/2000/svg">
        <path d="m8 7.71428571c-2.209139 0-4-1.72690167-4-3.85714285s1.790861-3.85714286 4-3.85714286 4 1.72690168 4 3.85714286c-.0057393 2.12794456-1.7932427 3.85160851-4 3.85714285zm0-6.42857142c-1.47275933 0-2.66666667 1.15126778-2.66666667 2.57142857 0 1.42016078 1.19390734 2.57142857 2.66666667 2.57142857s2.6666667-1.15126779 2.6666667-2.57142857c-.0103218-1.4145413-1.19970764-2.55739637-2.6666667-2.56234225z"/>
        <path d="m15.4417306 18c-.3083236 0-.5582693-.2721755-.5582693-.607921-.1487992-4.0223728-3.1866176-7.1997969-6.8834613-7.1997969-3.69684372 0-6.7346621 3.1774241-6.88346127 7.1997969 0 .3357455-.24994571.607921-.55826936.607921-.30832366 0-.55826937-.2721755-.55826937-.607921.1607468-4.684659 3.69495567-8.392079 8-8.392079 4.3050443 0 7.8392532 3.70742 8 8.392079 0 .3357455-.2499457.607921-.5582694.607921z"/>
</svg>
