<?xml version="1.0" encoding="UTF-8"?>
<svg width="16px" height="20px" viewBox="0 0 16 20" version="1.1" xmlns="http://www.w3.org/2000/svg" xmlns:xlink="http://www.w3.org/1999/xlink">
    <!-- Generator: Sketch 55 (78076) - https://sketchapp.com -->
    <title>Path</title>
    <desc>Created with Sketch.</desc>
    <g id="Page-1" stroke="none" stroke-width="1" fill="none" fill-rule="evenodd">
        <g id="03.1_wallet_national_receive" transform="translate(-639.000000, -145.000000)" fill="#CBD2D6">
            <g id="Wallet-National" transform="translate(80.000000, 60.000000)">
                <g id="EUR" transform="translate(540.000000, 68.000000)">
                    <g id="euro-symbol" transform="translate(20.000000, 17.000000)">
                        <path d="M14.1317991,15.0398324 C13.5328861,15.3568674 12.1961631,15.7873133 10.8912973,15.7873133 C9.46919739,15.7873133 8.13120018,15.3568674 7.22263636,14.3194154 C6.79447726,13.8335527 6.48227791,13.1685524 6.28348975,12.3063718 L13.4220234,12.3063718 L13.4220234,10.2649756 L5.88718772,10.2649756 C5.88718772,10.1219232 5.88718772,9.97887078 5.88718772,9.80488814 C5.88718772,9.48785311 5.88718772,9.20303709 5.91394767,8.91306603 L13.4232977,8.91306603 L13.4232977,6.87166976 L6.34210677,6.87166976 C6.5434435,6.12418881 6.82378577,5.46305479 7.25321916,5.00296737 C8.13247447,3.93716263 9.38636899,3.44872248 10.7230919,3.44872248 C11.970615,3.44872248 13.1671668,3.82375172 13.906251,4.13949799 L14.7001293,0.862180621 C13.6756058,0.403381965 12.1426432,0 10.4351039,0 C7.73489815,0 5.45902861,1.09157995 3.86872336,2.96285986 C2.96015954,3.99773436 2.24910959,5.32129116 1.90632745,6.87295852 L0,6.87295852 L0,8.91306603 L1.5941281,8.91306603 C1.5941281,9.20303709 1.56481959,9.48914187 1.56481959,9.77653541 C1.56481959,9.94794053 1.56481959,10.1245007 1.56481959,10.2649756 L0,10.2649756 L0,12.3076606 L1.850259,12.3076606 C2.10638989,13.8348415 2.67344585,15.0681851 3.44183854,16.0450654 C5.03596664,18.1728086 7.56414422,19.3236715 10.3777612,19.3236715 C12.1987117,19.3236715 13.8489083,18.7772371 14.8148148,18.2333803 L14.1317991,15.0398324 Z" id="Path"></path>
                    </g>
                </g>
            </g>
        </g>
    </g>
</svg>