<?xml version="1.0" encoding="UTF-8"?>
<svg width="21px" height="24px" viewBox="0 0 21 24" version="1.1" xmlns="http://www.w3.org/2000/svg" xmlns:xlink="http://www.w3.org/1999/xlink">
    <!-- Generator: Sketch 53.2 (72643) - https://sketchapp.com -->
    <title>icon_gzb</title>
    <desc>Created with Sketch.</desc>
    <defs>
        <radialGradient cx="50.3836452%" cy="55.4463992%" fx="50.3836452%" fy="55.4463992%" r="76.2424364%" gradientTransform="translate(0.503836,0.554464),scale(1.000000,0.865006),rotate(-90.000000),translate(-0.503836,-0.554464)" id="radialGradient-1">
            <stop stop-color="#FFFFFF" stop-opacity="0.51" offset="0%"></stop>
            <stop stop-color="#232C37" offset="100%"></stop>
        </radialGradient>
        <linearGradient x1="48.5378753%" y1="1.42589648%" x2="48.5378753%" y2="140.327681%" id="linearGradient-2">
            <stop stop-color="#FFFFFF" offset="0%"></stop>
            <stop stop-color="#252F3B" offset="100%"></stop>
        </linearGradient>
    </defs>
    <g id="Page-1" stroke="none" stroke-width="1" fill="none" fill-rule="evenodd">
        <g id="03.1.1.-select_currency-copy" transform="translate(-419.000000, -260.000000)" fill-rule="nonzero">
            <g id="Convert" transform="translate(80.000000, 60.000000)">
                <g id="Drop" transform="translate(320.000000, 186.000000)">
                    <g id="GZB" transform="translate(0.000000, 14.000000)">
                        <g id="icon_gzb" transform="translate(19.000000, 0.000000)">
                            <g id="Polygon-2">
                                <path d="M10.819375,0.130720183 L20.3984375,5.72731651 C20.6540316,5.87677904 20.8115957,6.15289132 20.811875,6.45181651 L20.811875,17.6450092 C20.8115957,17.9439344 20.6540316,18.2200466 20.3984375,18.3695092 L10.819375,23.9661055 C10.563539,24.1157097 10.248336,24.1157097 9.9925,23.9661055 L0.4134375,18.3695092 C0.157843358,18.2200466 0.000279285053,17.9439344 0,17.6450092 L0,6.45181651 C0.000279285053,6.15289132 0.157843358,5.87677904 0.4134375,5.72731651 L9.9925,0.130720183 C10.248336,-0.0188839629 10.563539,-0.0188839629 10.819375,0.130720183 Z" id="path-2" fill="#1C242F"></path>
                                <path d="M10.819375,0.130720183 L20.3984375,5.72731651 C20.6540316,5.87677904 20.8115957,6.15289132 20.811875,6.45181651 L20.811875,17.6450092 C20.8115957,17.9439344 20.6540316,18.2200466 20.3984375,18.3695092 L10.819375,23.9661055 C10.563539,24.1157097 10.248336,24.1157097 9.9925,23.9661055 L0.4134375,18.3695092 C0.157843358,18.2200466 0.000279285053,17.9439344 0,17.6450092 L0,6.45181651 C0.000279285053,6.15289132 0.157843358,5.87677904 0.4134375,5.72731651 L9.9925,0.130720183 C10.248336,-0.0188839629 10.563539,-0.0188839629 10.819375,0.130720183 Z" id="path-2-2" fill-opacity="0.34" fill="url(#radialGradient-1)"></path>
                            </g>
                            <g id="big" transform="translate(3.281250, 8.197706)">
                                <path d="M7.7765625,1.94750917 L7.056875,3.79753211 L14.048125,0 L7.7765625,1.94750917 Z M0.013125,0 L7,3.79753211 L6.2803125,1.94750917 L0.013125,0 Z M7.328125,4.27166972 L9.26625,4.56412844 L14.0634375,0.0221559633 L7.328125,4.27166972 Z M4.7971875,4.56634404 L6.7353125,4.27388532 L0,0.0243715596 L4.7971875,4.56634404 Z M7.0503125,12.5424908 L8.491875,5.3728211 L7.2975,4.62838073 L7.0503125,12.5424908 Z M5.578125,5.36395872 L7.021875,12.5336284 L6.78125,4.62173394 L5.578125,5.36395872 Z" id="Shape" fill="#000000"></path>
                                <path d="M7.7765625,1.94750917 L7.056875,3.79753211 L14.048125,0 L7.7765625,1.94750917 Z M0.013125,0 L7,3.79753211 L6.2803125,1.94750917 L0.013125,0 Z M7.328125,4.27166972 L9.26625,4.56412844 L14.0634375,0.0221559633 L7.328125,4.27166972 Z M4.7971875,4.56634404 L6.7353125,4.27388532 L0,0.0243715596 L4.7971875,4.56634404 Z M7.0503125,12.5424908 L8.491875,5.3728211 L7.2975,4.62838073 L7.0503125,12.5424908 Z M5.578125,5.36395872 L7.021875,12.5336284 L6.78125,4.62173394 L5.578125,5.36395872 Z" id="path-4" fill="url(#linearGradient-2)"></path>
                            </g>
                        </g>
                    </g>
                </g>
            </g>
        </g>
    </g>
</svg>