<?xml version="1.0" encoding="UTF-8"?>
<svg width="21px" height="24px" viewBox="0 0 21 24" version="1.1" xmlns="http://www.w3.org/2000/svg" xmlns:xlink="http://www.w3.org/1999/xlink">
    <!-- Generator: Sketch 53.2 (72643) - https://sketchapp.com -->
    <title>icon_gzg</title>
    <desc>Created with Sketch.</desc>
    <defs>
        <radialGradient cx="51.0163969%" cy="35.4911255%" fx="51.0163969%" fy="35.4911255%" r="75.5493233%" gradientTransform="translate(0.510164,0.354911),scale(1.000000,0.872942),rotate(-90.000000),translate(-0.510164,-0.354911)" id="radialGradient-1">
            <stop stop-color="#FFFFFF" offset="0%"></stop>
            <stop stop-color="#232C37" offset="100%"></stop>
        </radialGradient>
        <linearGradient x1="52.0352287%" y1="4.3145218%" x2="52.0352287%" y2="104.296941%" id="linearGradient-2">
            <stop stop-color="#0D1116" offset="0%"></stop>
            <stop stop-color="#252F3B" offset="100%"></stop>
        </linearGradient>
    </defs>
    <g id="Page-1" stroke="none" stroke-width="1" fill="none" fill-rule="evenodd">
        <g id="03.1.1.-select_currency-copy" transform="translate(-419.000000, -364.000000)" fill-rule="nonzero">
            <g id="Convert" transform="translate(80.000000, 60.000000)">
                <g id="Drop" transform="translate(320.000000, 186.000000)">
                    <g id="GZG" transform="translate(0.000000, 118.000000)">
                        <g id="icon_gzg" transform="translate(19.000000, 0.000000)">
                            <g id="Polygon-2">
                                <path d="M10.819375,0.239304545 L20.3984375,5.78502273 C20.6540316,5.93312651 20.8115957,6.20672867 20.811875,6.50293636 L20.811875,17.5943727 C20.8115957,17.8905804 20.6540316,18.1641826 20.3984375,18.3122864 L10.819375,23.8580045 C10.563539,24.0062487 10.248336,24.0062487 9.9925,23.8580045 L0.4134375,18.3122864 C0.157843358,18.1641826 0.000279285053,17.8905804 0,17.5943727 L0,6.50293636 C0.000279285053,6.20672867 0.157843358,5.93312651 0.4134375,5.78502273 L9.9925,0.239304545 C10.248336,0.0910604368 10.563539,0.0910604368 10.819375,0.239304545 Z" id="path-2" fill="#FFB400"></path>
                                <path d="M10.819375,0.239304545 L20.3984375,5.78502273 C20.6540316,5.93312651 20.8115957,6.20672867 20.811875,6.50293636 L20.811875,17.5943727 C20.8115957,17.8905804 20.6540316,18.1641826 20.3984375,18.3122864 L10.819375,23.8580045 C10.563539,24.0062487 10.248336,24.0062487 9.9925,23.8580045 L0.4134375,18.3122864 C0.157843358,18.1641826 0.000279285053,17.8905804 0,17.5943727 L0,6.50293636 C0.000279285053,6.20672867 0.157843358,5.93312651 0.4134375,5.78502273 L9.9925,0.239304545 C10.248336,0.0910604368 10.563539,0.0910604368 10.819375,0.239304545 Z" id="path-2-2" fill-opacity="0.34" fill="url(#radialGradient-1)"></path>
                            </g>
                            <g id="big" transform="translate(3.500000, 8.123182)">
                                <path d="M7.8203125,2.13837273 L7.100625,3.97157727 L14.100625,0.208568182 L7.8203125,2.13837273 Z M0.056875,0.208568182 L7.056875,3.97157727 L6.3371875,2.13837273 L0.056875,0.208568182 Z M7.371875,4.44140455 L9.31,4.73120455 L14.1071875,0.230522727 L7.371875,4.44140455 Z M4.8409375,4.73120455 L6.78125,4.44140455 L0.04375,0.232718182 L4.8409375,4.73120455 Z M7.0940625,12.6348409 L8.53125,5.52376364 L7.336875,4.78609091 L7.0940625,12.6348409 Z M5.621875,5.52376364 L7.065625,12.6282545 L6.81625,4.78828636 L5.621875,5.52376364 Z" id="Shape" fill="#000000"></path>
                                <path d="M7,4.09671818 L7.7853125,2.09007273 L14.0853125,0.151486364 L14.1290625,0.256868182 L7,4.09671818 Z M0.030625,0.259063636 L0.074375,0.153681818 L6.374375,2.09226818 L7.1596875,4.09891364 L0.030625,0.259063636 Z M9.3275,4.79267727 L7.21875,4.47433636 L14.0875,0.182222727 L14.1575,0.272236364 L9.3275,4.79267727 Z M6.943125,4.47433636 L4.8125,4.79267727 L0,0.274431818 L0.07,0.184418182 L6.943125,4.47433636 Z M7.161875,12.6392318 L7.048125,12.6260591 L7.2996875,4.6851 L8.6121875,5.49522273 L7.161875,12.6392318 Z M5.5584375,5.48863636 L6.8709375,4.67851364 L7.1225,12.6194727 L7.00875,12.6326455 L5.5584375,5.48863636 Z" id="Shape" stroke-opacity="0.1" stroke="#FFFFFF" stroke-width="0.5" fill="url(#linearGradient-2)"></path>
                            </g>
                        </g>
                    </g>
                </g>
            </g>
        </g>
    </g>
</svg>