<?xml version="1.0" encoding="UTF-8"?>
<svg width="21px" height="24px" viewBox="0 0 21 24" version="1.1" xmlns="http://www.w3.org/2000/svg" xmlns:xlink="http://www.w3.org/1999/xlink">
    <!-- Generator: Sketch 53.2 (72643) - https://sketchapp.com -->
    <title>icon_gzp</title>
    <desc>Created with Sketch.</desc>
    <defs>
        <radialGradient cx="49.999973%" cy="35.2277%" fx="49.999973%" fy="35.2277%" r="75.5921645%" gradientTransform="translate(0.500000,0.352277),scale(1.000000,0.869565),rotate(-90.000000),translate(-0.500000,-0.352277)" id="radialGradient-1">
            <stop stop-color="#FFFFFF" offset="0%"></stop>
            <stop stop-color="#232C37" offset="100%"></stop>
        </radialGradient>
        <radialGradient cx="49.999973%" cy="35.2277%" fx="49.999973%" fy="35.2277%" r="75.9926268%" gradientTransform="translate(0.500000,0.352277),scale(1.000000,0.864983),rotate(-90.000000),translate(-0.500000,-0.352277)" id="radialGradient-2">
            <stop stop-color="#FFFFFF" offset="0%"></stop>
            <stop stop-color="#232C37" offset="100%"></stop>
        </radialGradient>
        <linearGradient x1="50%" y1="0%" x2="50%" y2="100%" id="linearGradient-3">
            <stop stop-color="#0D1116" offset="0%"></stop>
            <stop stop-color="#252F3B" offset="100%"></stop>
        </linearGradient>
    </defs>
    <g id="Page-1" stroke="none" stroke-width="1" fill="none" fill-rule="evenodd">
        <g id="03.1.1.-select_currency-copy" transform="translate(-419.000000, -417.000000)">
            <g id="Convert" transform="translate(80.000000, 60.000000)">
                <g id="Drop" transform="translate(320.000000, 186.000000)">
                    <g id="GZP" transform="translate(0.000000, 171.000000)">
                        <g id="icon_gzp" transform="translate(19.000000, 0.000000)">
                            <g id="Polygon-2" fill-rule="nonzero">
                                <g id="path-2-link" fill="#FFCB7A">
                                    <path d="M10.8194199,0.130338137 L20.3987949,5.72719618 C20.6547817,5.87675937 20.8125,6.15332482 20.8125,6.4526449 L20.8125,17.6451094 C20.8125,17.9444295 20.6547817,18.220995 20.3987949,18.3705581 L10.8194199,23.9674163 C10.5637199,24.1168117 10.2487801,24.1168117 9.9930801,23.9674163 L0.413705093,18.3705581 C0.157718291,18.220995 3.92186284e-14,17.9444295 4.01900735e-14,17.6451094 L3.55271368e-14,6.4526449 C3.55271368e-14,6.15332482 0.157718291,5.87675937 0.413705093,5.72719618 L9.9930801,0.130338137 C10.2487801,-0.0190574607 10.5637199,-0.0190574607 10.8194199,0.130338137 Z" id="path-2"></path>
                                </g>
                                <g id="path-2-link" fill="url(#radialGradient-2)" fill-opacity="0.34">
                                    <path d="M10.8194199,0.130338137 L20.3987949,5.72719618 C20.6547817,5.87675937 20.8125,6.15332482 20.8125,6.4526449 L20.8125,17.6451094 C20.8125,17.9444295 20.6547817,18.220995 20.3987949,18.3705581 L10.8194199,23.9674163 C10.5637199,24.1168117 10.2487801,24.1168117 9.9930801,23.9674163 L0.413705093,18.3705581 C0.157718291,18.220995 3.92186284e-14,17.9444295 4.01900735e-14,17.6451094 L3.55271368e-14,6.4526449 C3.55271368e-14,6.15332482 0.157718291,5.87675937 0.413705093,5.72719618 L9.9930801,0.130338137 C10.2487801,-0.0190574607 10.5637199,-0.0190574607 10.8194199,0.130338137 Z" id="path-2"></path>
                                </g>
                            </g>
                            <g id="big" transform="translate(3.062500, 7.976147)">
                                <g id="path-4-link" transform="translate(0.218750, 0.221560)" fill="#000000" fill-rule="nonzero">
                                    <path d="M7.7761628,1.94734139 L7.0575559,3.79797091 L14.0486105,0 L7.7761628,1.94734139 Z M0.0138895094,0 L7.00508441,3.79797091 L6.2863372,1.94734139 L0.0138895094,0 Z M7.32706855,4.27184487 L9.26500628,4.56539891 L14.0625,0.0244984468 L7.32706855,4.27184487 Z M4.79749371,4.56539891 L6.73557174,4.27184487 L0,0.0244984468 L4.79749371,4.56539891 Z M7.0499798,12.533945 L8.49210403,5.36487427 L7.29774625,4.62123256 L7.0499798,12.533945 Z M5.57895417,5.36487427 L7.02107838,12.533945 L6.77331193,4.62123256 L5.57895417,5.36487427 Z" id="path-4"></path>
                                </g>
                                <path d="M7.16562807,4.14565489 L7.95160995,2.12151453 L14.2505322,0.165953837 L14.2945022,0.272811937 L7.16562807,4.14565489 Z M0.205498234,0.272812159 L0.249467794,0.165953837 L6.5483878,2.12151382 L7.33452565,4.14566067 L0.205498234,0.272812159 Z M9.50269628,4.84863374 L7.38302506,4.52755118 L14.2509006,0.196685842 L14.3204564,0.288550825 L9.50269628,4.84863374 Z M7.11711963,4.52755222 L4.99730346,4.8486335 L0.179543591,0.288550825 L0.249098938,0.196685554 L7.11711963,4.52755222 Z M7.32499572,12.7671156 L7.21133678,12.753661 L7.46224095,4.74074153 L8.77513737,5.55818881 L7.32499572,12.7671156 Z M5.73342083,5.55818881 L7.04631723,4.74074153 L7.2972214,12.753661 L7.18356247,12.7671156 L5.73342083,5.55818881 Z" id="Shape" stroke-opacity="0.1" stroke="#FFFFFF" stroke-width="0.5" fill="url(#linearGradient-3)"></path>
                            </g>
                        </g>
                    </g>
                </g>
            </g>
        </g>
    </g>
</svg>