<?xml version="1.0" encoding="UTF-8"?>
<svg width="21px" height="24px" viewBox="0 0 21 24" version="1.1" xmlns="http://www.w3.org/2000/svg" xmlns:xlink="http://www.w3.org/1999/xlink">
    <!-- Generator: Sketch 53.2 (72643) - https://sketchapp.com -->
    <title>icon_gzs</title>
    <desc>Created with Sketch.</desc>
    <defs>
        <radialGradient cx="51.0163969%" cy="35.4911255%" fx="51.0163969%" fy="35.4911255%" r="75.5493233%" gradientTransform="translate(0.510164,0.354911),scale(1.000000,0.872942),rotate(-90.000000),translate(-0.510164,-0.354911)" id="radialGradient-1">
            <stop stop-color="#FFFFFF" offset="0%"></stop>
            <stop stop-color="#232C37" offset="100%"></stop>
        </radialGradient>
        <linearGradient x1="52.0383782%" y1="4.2976965%" x2="52.0383782%" y2="104.297697%" id="linearGradient-2">
            <stop stop-color="#0D1116" offset="0%"></stop>
            <stop stop-color="#252F3B" offset="100%"></stop>
        </linearGradient>
    </defs>
    <g id="Page-1" stroke="none" stroke-width="1" fill="none" fill-rule="evenodd">
        <g id="03.1.1.-select_currency-copy" transform="translate(-419.000000, -312.000000)" fill-rule="nonzero">
            <g id="Convert" transform="translate(80.000000, 60.000000)">
                <g id="Drop" transform="translate(320.000000, 186.000000)">
                    <g id="GZS" transform="translate(0.000000, 66.000000)">
                        <g id="icon_gzs" transform="translate(19.000000, 0.000000)">
                            <g id="Polygon-2">
                                <path d="M10.819375,0.239304545 L20.3984375,5.78502273 C20.6540316,5.93312651 20.8115957,6.20672867 20.811875,6.50293636 L20.811875,17.5943727 C20.8115957,17.8905804 20.6540316,18.1641826 20.3984375,18.3122864 L10.819375,23.8580045 C10.563539,24.0062487 10.248336,24.0062487 9.9925,23.8580045 L0.4134375,18.3122864 C0.157843358,18.1641826 0.000279285053,17.8905804 0,17.5943727 L0,6.50293636 C0.000279285053,6.20672867 0.157843358,5.93312651 0.4134375,5.78502273 L9.9925,0.239304545 C10.248336,0.0910604368 10.563539,0.0910604368 10.819375,0.239304545 Z" id="path-2" fill="#C0C0C0"></path>
                                <path d="M10.819375,0.239304545 L20.3984375,5.78502273 C20.6540316,5.93312651 20.8115957,6.20672867 20.811875,6.50293636 L20.811875,17.5943727 C20.8115957,17.8905804 20.6540316,18.1641826 20.3984375,18.3122864 L10.819375,23.8580045 C10.563539,24.0062487 10.248336,24.0062487 9.9925,23.8580045 L0.4134375,18.3122864 C0.157843358,18.1641826 0.000279285053,17.8905804 0,17.5943727 L0,6.50293636 C0.000279285053,6.20672867 0.157843358,5.93312651 0.4134375,5.78502273 L9.9925,0.239304545 C10.248336,0.0910604368 10.563539,0.0910604368 10.819375,0.239304545 Z" id="path-2-2" fill-opacity="0.34" fill="url(#radialGradient-1)"></path>
                            </g>
                            <g id="big" transform="translate(3.062500, 8.123182)">
                                <path d="M7.9625,2.13837273 L7.2428125,3.97157727 L14.2428125,0.208568182 L7.9625,2.13837273 Z M0.1990625,0.208568182 L7.1990625,3.97157727 L6.479375,2.13837273 L0.1990625,0.208568182 Z M7.5140625,4.44140455 L9.4521875,4.73120455 L14.249375,0.230522727 L7.5140625,4.44140455 Z M4.983125,4.73120455 L6.92125,4.44140455 L0.1859375,0.232718182 L4.983125,4.73120455 Z M7.23625,12.6348409 L8.6778125,5.53035 L7.4834375,4.79267727 L7.23625,12.6348409 Z M5.7640625,5.52376364 L7.205625,12.6282545 L6.9584375,4.78828636 L5.7640625,5.52376364 Z" id="Shape" fill="#000000"></path>
                                <path d="M7.1334375,4.09671818 L7.91875,2.09007273 L14.21875,0.153681818 L14.2625,0.259063636 L7.1334375,4.09671818 Z M0.1728125,0.259063636 L0.2165625,0.153681818 L6.5165625,2.09226818 L7.301875,4.09891364 L0.1728125,0.259063636 Z M9.4696875,4.79267727 L7.35,4.47433636 L14.21875,0.184418182 L14.28875,0.274431818 L9.4696875,4.79267727 Z M7.0853125,4.47433636 L4.965625,4.79267727 L0.153125,0.274431818 L0.223125,0.184418182 L7.0853125,4.47433636 Z M7.3040625,12.6392318 L7.1903125,12.6260591 L7.4375,4.68729545 L8.75,5.48863636 L7.3040625,12.6392318 Z M5.700625,5.48863636 L7.013125,4.67851364 L7.2646875,12.6194727 L7.1509375,12.6326455 L5.700625,5.48863636 Z" id="Shape" stroke-opacity="0.1" stroke="#FFFFFF" stroke-width="0.5" fill="url(#linearGradient-2)"></path>
                            </g>
                        </g>
                    </g>
                </g>
            </g>
        </g>
    </g>
</svg>