<?xml version="1.0" encoding="UTF-8"?>
<svg width="12px" height="23px" viewBox="0 0 12 23" version="1.1" xmlns="http://www.w3.org/2000/svg" xmlns:xlink="http://www.w3.org/1999/xlink">
    <!-- Generator: Sketch 55 (78076) - https://sketchapp.com -->
    <title>Path</title>
    <desc>Created with Sketch.</desc>
    <g id="Page-1" stroke="none" stroke-width="1" fill="none" fill-rule="evenodd">
        <g id="03.1_wallet_national_receive" transform="translate(-403.000000, -143.000000)" fill="#CBD2D6">
            <g id="Wallet-National" transform="translate(80.000000, 60.000000)">
                <g id="USD" transform="translate(300.000000, 68.000000)">
                    <g id="dollar-symbol" transform="translate(23.000000, 15.000000)">
                        <path d="M11.3384174,14.0025156 C11.2317461,13.6263729 11.1023246,13.2990069 10.9503255,13.021002 C10.7984128,12.7427275 10.5808397,12.4712861 10.2971743,12.2057789 C10.0138543,11.9404066 9.7589829,11.7266881 9.53299171,11.5642189 C9.30713003,11.4016149 8.99687241,11.2198148 8.60239152,11.018594 C8.20825598,10.8174181 7.8959694,10.6677163 7.66609298,10.5692637 C7.43591437,10.470946 7.10294971,10.3361694 6.66741483,10.1650238 C6.28126561,10.0110962 5.9937582,9.89340268 5.80459041,9.81216809 C5.61563847,9.73084358 5.36715609,9.61539785 5.05901376,9.46556115 C4.75100094,9.31594924 4.52090867,9.18324059 4.36886646,9.06779485 C4.21686742,8.95234912 4.05463727,8.81118884 3.88204648,8.64435896 C3.70945569,8.47752909 3.58827952,8.29995485 3.51838846,8.11172615 C3.44867007,7.9234525 3.41370295,7.71805081 3.41370295,7.49556602 C3.41370295,6.9138418 3.66011321,6.43879699 4.1531064,6.07097106 C4.64614275,5.70314513 5.28301916,5.51914225 6.06364927,5.51914225 C6.40857182,5.51914225 6.76022879,5.56827861 7.11741142,5.66677612 C7.47459405,5.76527363 7.78070742,5.87622382 8.03544935,6.00039092 C8.29040712,6.12455802 8.53064417,6.26149248 8.75667853,6.41114936 C8.98266971,6.56094109 9.14282775,6.67422896 9.23741164,6.75123774 C9.3319092,6.82829148 9.39178499,6.87958571 9.41617563,6.90530025 C9.52314911,6.99085058 9.63379198,7.02074599 9.74883811,6.99516631 C9.87204324,6.98662476 9.96662714,6.91806762 10.0325035,6.78985452 L11.0310089,4.9159293 C11.1295644,4.74487361 11.1091885,4.58226955 10.9694064,4.42816208 C10.9200207,4.3768229 10.858634,4.31698712 10.784167,4.24847493 C10.7104338,4.17996275 10.5501463,4.05593051 10.3034339,3.87615345 C10.0569804,3.69651126 9.79610848,3.53606506 9.52103382,3.39485983 C9.24565697,3.25378946 8.88812899,3.1103814 8.44849303,2.9649953 C8.00911609,2.81938442 7.55501842,2.72106674 7.08654538,2.66977251 L7.08654538,0.410713483 C7.08654538,0.290996976 7.04963565,0.192544423 6.97590251,0.115490689 C6.90199671,0.0386167778 6.80745598,0 6.69223717,0 L5.02823406,0 C4.92143326,0 4.82900783,0.04059482 4.75095777,0.121919326 C4.67290771,0.203243833 4.63388268,0.299448611 4.63388268,0.410713483 L4.63388268,2.72102178 C3.34381188,2.9776278 2.29617977,3.55094534 1.49094317,4.44083953 C0.685792911,5.33077869 0.283066688,6.36596907 0.283066688,7.5469052 C0.283066688,7.897693 0.318120144,8.23139771 0.387968041,8.5478395 C0.457729599,8.86455102 0.544068161,9.14907441 0.64681105,9.4014546 C0.7494676,9.65401462 0.89537977,9.90207909 1.08433171,10.1460077 C1.27328366,10.3898463 1.45204765,10.5995188 1.62045101,10.7748452 C1.78894072,10.9501268 2.0087587,11.1320167 2.27981861,11.3202005 C2.55105121,11.508564 2.78317243,11.6605586 2.97631179,11.7760043 C3.16949433,11.8910904 3.42622204,12.0241587 3.74658128,12.1735458 C4.06702685,12.3233825 4.31978299,12.4366254 4.50467702,12.513814 C4.68957105,12.5907329 4.94219768,12.6978169 5.26277277,12.8344367 C5.70642347,13.0141238 6.03515754,13.1532162 6.24875914,13.2516687 C6.46253342,13.3501213 6.73359334,13.4870108 7.06245692,13.6624272 C7.39101832,13.8376637 7.63125537,13.9981549 7.78338392,14.1436758 C7.93538296,14.2891968 8.07296345,14.468884 8.19629809,14.6827373 C8.31963273,14.8965906 8.38140797,15.1233462 8.38140797,15.3630489 C8.38140797,16.0390448 8.12873817,16.5608883 7.62326905,16.9285344 C7.11801579,17.2965851 6.53238132,17.4805431 5.86692685,17.4805431 C5.56318779,17.4805431 5.2589307,17.4465117 4.95501896,17.3780895 C3.88683827,17.1553349 2.88854865,16.6205443 1.96006375,15.7734927 L1.93541409,15.7478231 C1.86142194,15.653956 1.76278013,15.6153842 1.63966134,15.6326021 C1.50816771,15.6496852 1.41362699,15.7010694 1.35616868,15.7867995 L0.0866464588,17.5193846 C-0.0366450079,17.6904853 -0.0283133367,17.8658567 0.111339288,18.0455438 C0.152479612,18.096928 0.224356465,18.1741166 0.327013016,18.2766151 C0.429928582,18.3795183 0.62099582,18.5396947 0.90021473,18.7583133 C1.17951998,18.9766173 1.48356122,19.1817043 1.8122953,19.3744735 C2.14098621,19.566928 2.55791512,19.7572246 3.06334106,19.9455432 C3.56876701,20.1335472 4.09245356,20.2661209 4.63478923,20.3430848 L4.63478923,22.5891966 C4.63478923,22.7005963 4.67385743,22.7967562 4.75186432,22.8781256 C4.82995755,22.95954 4.92233981,23 5.02914062,23 L6.69314372,23 C6.80836253,23 6.90290326,22.961563 6.9767659,22.8846442 C7.05062854,22.8077253 7.08740877,22.7092728 7.08740877,22.5892416 L7.08740877,20.3431297 C8.39409974,20.1206899 9.45610722,19.5366729 10.2735607,18.5911238 C11.0911006,17.6455747 11.5,16.5182255 11.5,15.2091662 C11.4995683,14.7814146 11.4462542,14.3792427 11.3384174,14.0025156 Z" id="Path"></path>
                    </g>
                </g>
            </g>
        </g>
    </g>
</svg>