<?xml version="1.0" encoding="UTF-8"?>
<svg viewBox="0 0 20 12" version="1.1" xmlns="http://www.w3.org/2000/svg" xmlns:xlink="http://www.w3.org/1999/xlink">
    <!-- Generator: Sketch 54.1 (76490) - https://sketchapp.com -->
    <title>BRL Flag</title>
    <desc>Created with Sketch.</desc>
    <defs>
        <rect id="path-1" x="0" y="0" width="1280" height="843"></rect>
        <filter x="-2.5%" y="-1.9%" width="105.0%" height="107.6%" filterUnits="objectBoundingBox" id="filter-2">
            <feOffset dx="0" dy="16" in="SourceAlpha" result="shadowOffsetOuter1"></feOffset>
            <feGaussianBlur stdDeviation="8" in="shadowOffsetOuter1" result="shadowBlurOuter1"></feGaussianBlur>
            <feColorMatrix values="0 0 0 0 0   0 0 0 0 0   0 0 0 0 0  0 0 0 0.14 0" type="matrix" in="shadowBlurOuter1"></feColorMatrix>
        </filter>
        <rect id="path-3" x="0" y="0" width="500" height="566"></rect>
        <filter x="-6.4%" y="-2.8%" width="112.8%" height="111.3%" filterUnits="objectBoundingBox" id="filter-4">
            <feOffset dx="0" dy="16" in="SourceAlpha" result="shadowOffsetOuter1"></feOffset>
            <feGaussianBlur stdDeviation="8" in="shadowOffsetOuter1" result="shadowBlurOuter1"></feGaussianBlur>
            <feColorMatrix values="0 0 0 0 0   0 0 0 0 0   0 0 0 0 0  0 0 0 0.24 0" type="matrix" in="shadowBlurOuter1"></feColorMatrix>
        </filter>
    </defs>
    <g id="Page-1" stroke="none" stroke-width="1" fill="none" fill-rule="evenodd">
        <g id="08.2.-local_currency_Currencies" transform="translate(-671.000000, -464.000000)">
            <rect fill="#FFFFFF" x="0" y="0" width="1440" height="860"></rect>
            <g id="Wallet-GIGZI" transform="translate(80.000000, 60.000000)">
                <g id="Rectangle-19">
                    <use fill="black" fill-opacity="1" filter="url(#filter-2)" xlink:href="#path-1"></use>
                    <use fill="#F6F7F8" fill-rule="evenodd" xlink:href="#path-1"></use>
                </g>
                <g id="TRANSACTIONS" transform="translate(300.000000, 193.000000)">
                    <rect id="Rectangle" fill="#FFFFFF" x="0" y="0" width="540" height="567"></rect>
                    <g id="Converted-GZG" transform="translate(0.000000, 169.000000)"></g>
                </g>
            </g>
            <g id="PopUp">
                <rect id="Rectangle-" fill="#000000" opacity="0.560000002" x="0" y="0" width="1440" height="860"></rect>
                <g id="PopUp-Block" transform="translate(470.000000, 147.000000)">
                    <g id="Rectangle">
                        <use fill="black" fill-opacity="1" filter="url(#filter-4)" xlink:href="#path-3"></use>
                        <use fill="#FFFFFF" fill-rule="evenodd" xlink:href="#path-3"></use>
                    </g>
                    <g id="Popular-Currencies" transform="translate(0.000000, 172.000000)">
                        <g id="3rd-Line" transform="translate(20.000000, 143.000000)">
                            <g id="BRL" transform="translate(143.000000, 0.000000)">
                                <g id="BRL-Flag" transform="translate(38.000000, 2.000000)">
                                    <polygon id="Fill-1" fill="#3C9243" points="0 12 20 12 20 0 0 0"></polygon>
                                    <polygon id="Fill-2" fill="#ECC123" points="3.0844 5.9995 10.0004 10.5435 16.9184 5.9995 10.0004 1.4575"></polygon>
                                    <g id="Group-587" transform="translate(7.000000, 2.000000)">
                                        <path d="M5.915,3.9995 C5.915,5.6555 4.611,6.9995 3,6.9995 C1.39,6.9995 0.085,5.6555 0.085,3.9995 C0.085,2.3445 1.39,0.9995 3,0.9995 C4.611,0.9995 5.915,2.3445 5.915,3.9995" id="Fill-3" fill="#30276B"></path>
                                        <path d="M1.3344,2.7134 C0.9924,2.7134 0.6584,2.7394 0.3314,2.7864 C0.2684,2.9344 0.2174,3.0864 0.1764,3.2444 C0.5524,3.1784 0.9384,3.1424 1.3344,3.1424 C3.0424,3.1424 4.6054,3.8064 5.7844,4.8964 C5.8324,4.7414 5.8664,4.5824 5.8874,4.4214 C4.6564,3.3564 3.0684,2.7134 1.3344,2.7134" id="Fill-5" fill="#FEFEFE"></path>
                                        <path d="M0.5068,3.0698 C0.5458,3.0648 0.5728,3.0198 0.5688,2.9708 C0.5628,2.9218 0.5268,2.8858 0.4848,2.8918 C0.4448,2.8968 0.4158,2.9398 0.4218,2.9898 C0.4288,3.0398 0.4658,3.0748 0.5068,3.0698 M0.5128,3.1228 C0.5808,3.1138 0.6298,3.0438 0.6188,2.9658 C0.6108,2.8868 0.5478,2.8308 0.4788,2.8398 C0.4088,2.8468 0.3608,2.9188 0.3728,2.9968 C0.3818,3.0748 0.4448,3.1318 0.5128,3.1228" id="Fill-7" fill="#3C9243"></path>
                                        <path d="M0.7793,2.9351 L0.8863,2.9271 C0.9063,2.9251 0.9193,2.9081 0.9193,2.8871 C0.9163,2.8671 0.9013,2.8521 0.8833,2.8541 L0.7753,2.8601 L0.7793,2.9351 Z M0.7393,3.0971 L0.7903,3.0931 L0.7823,2.9881 L0.8963,2.9801 C0.9413,2.9761 0.9773,2.9331 0.9763,2.8831 C0.9713,2.8341 0.9293,2.7961 0.8833,2.8001 L0.7223,2.8111 L0.7393,3.0971 Z" id="Fill-9" fill="#3C9243"></path>
                                        <path d="M0.9736,3.0806 C0.9716,3.0396 0.9666,2.9506 0.9066,2.9536 L0.8306,2.9586 C0.9166,2.9536 0.9236,3.0436 0.9286,3.0836" id="Fill-11" fill="#3C9243"></path>
                                        <path d="M1.1411,3.02 L1.2171,3.019 C1.2591,3.018 1.2921,2.982 1.2901,2.94 L1.2901,2.915 C1.2901,2.874 1.2561,2.839 1.2161,2.839 L1.1391,2.841 L1.1411,3.02 Z M1.0921,3.075 L1.2221,3.072 C1.2891,3.072 1.3401,3.015 1.3401,2.947 L1.3381,2.906 C1.3371,2.839 1.2821,2.785 1.2171,2.786 L1.0881,2.789 L1.0921,3.075 Z" id="Fill-13" fill="#3C9243"></path>
                                        <polygon id="Fill-15" fill="#3C9243" points="1.4414 3.0718 1.6924 3.0808 1.6954 3.0268 1.4944 3.0188 1.4964 2.9468 1.6554 2.9508 1.6554 2.9028 1.4984 2.8968 1.4984 2.8408 1.6904 2.8468 1.6904 2.7928 1.4534 2.7848"></polygon>
                                        <polygon id="Fill-17" fill="#3C9243" points="1.7963 3.0864 1.8443 3.0904 1.8603 2.8954 1.8983 3.0954 1.9433 3.0994 2.0143 2.9084 1.9983 3.1044 2.0443 3.1084 2.0683 2.8234 2.0013 2.8174 1.9283 3.0074 1.8893 2.8074 1.8193 2.8014"></polygon>
                                        <polygon id="Fill-19" fill="#3C9243" points="2.3706 3.1528 2.5786 3.1888 2.5846 3.1408 2.4276 3.1128 2.4376 3.0488 2.5686 3.0718 2.5746 3.0228 2.4476 3.0008 2.4536 2.9558 2.6066 2.9828 2.6126 2.9348 2.4146 2.8988"></polygon>
                                        <path d="M2.9897,3.1177 L3.0917,3.1457 C3.1117,3.1517 3.1297,3.1387 3.1337,3.1197 C3.1397,3.0997 3.1267,3.0807 3.1097,3.0747 L3.0057,3.0477 L2.9897,3.1177 Z M2.8987,3.2597 L2.9477,3.2727 L2.9757,3.1707 L3.0817,3.1977 C3.1297,3.2117 3.1767,3.1817 3.1897,3.1347 C3.1997,3.0867 3.1727,3.0377 3.1267,3.0237 L2.9727,2.9827 L2.8987,3.2597 Z" id="Fill-21" fill="#3C9243"></path>
                                        <path d="M3.3364,3.2163 L3.4394,3.2503 C3.4554,3.2553 3.4774,3.2453 3.4824,3.2263 C3.4904,3.2053 3.4794,3.1873 3.4604,3.1803 L3.3584,3.1473 L3.3364,3.2163 Z M3.2394,3.3533 L3.2904,3.3683 L3.3214,3.2683 L3.4244,3.3013 C3.4724,3.3173 3.5204,3.2903 3.5354,3.2433 C3.5504,3.1963 3.5244,3.1463 3.4794,3.1313 L3.3254,3.0813 L3.2394,3.3533 Z" id="Fill-23" fill="#3C9243"></path>
                                        <path d="M3.4643,3.4253 C3.4773,3.3873 3.5033,3.3013 3.4463,3.2833 L3.3763,3.2593 C3.4573,3.2863 3.4313,3.3713 3.4193,3.4113" id="Fill-25" fill="#3C9243"></path>
                                        <path d="M3.7099,3.4595 C3.7499,3.4765 3.7929,3.4485 3.8099,3.4015 C3.8279,3.3555 3.8099,3.3065 3.7729,3.2915 C3.7339,3.2775 3.6889,3.3035 3.6709,3.3505 C3.6539,3.3965 3.6739,3.4455 3.7099,3.4595 M3.6919,3.5105 C3.7579,3.5335 3.8309,3.4945 3.8579,3.4215 C3.8859,3.3475 3.8559,3.2675 3.7909,3.2425 C3.7249,3.2165 3.6489,3.2575 3.6239,3.3295 C3.5959,3.4045 3.6279,3.4835 3.6919,3.5105" id="Fill-27" fill="#3C9243"></path>
                                        <path d="M4.0405,3.5972 C4.0775,3.6152 4.1235,3.5902 4.1415,3.5442 C4.1615,3.4992 4.1465,3.4492 4.1105,3.4322 C4.0735,3.4152 4.0275,3.4382 4.0095,3.4842 C3.9895,3.5302 4.0015,3.5802 4.0405,3.5972 M4.0195,3.6462 C4.0825,3.6742 4.1605,3.6372 4.1905,3.5662 C4.2195,3.4932 4.1945,3.4122 4.1305,3.3832 C4.0675,3.3562 3.9915,3.3902 3.9615,3.4632 C3.9315,3.5352 3.9565,3.6182 4.0195,3.6462" id="Fill-29" fill="#3C9243"></path>
                                        <polygon id="Fill-31" fill="#3C9243" points="4.0927 3.5229 4.1907 3.5659 4.1717 3.6029 4.0777 3.5589"></polygon>
                                        <polygon id="Fill-33" fill="#3C9243" points="4.1533 3.5493 4.1913 3.5663 4.1333 3.6963 4.1003 3.6803"></polygon>
                                        <path d="M4.3432,3.6235 L4.4382,3.6715 C4.4562,3.6815 4.4772,3.6745 4.4862,3.6555 C4.4942,3.6375 4.4892,3.6155 4.4712,3.6055 L4.3732,3.5575 L4.3432,3.6235 Z M4.2292,3.7415 L4.2742,3.7655 L4.3202,3.6695 L4.4192,3.7215 C4.4622,3.7435 4.5142,3.7255 4.5352,3.6815 C4.5572,3.6365 4.5402,3.5825 4.4962,3.5615 L4.3562,3.4875 L4.2292,3.7415 Z" id="Fill-35" fill="#3C9243"></path>
                                        <path d="M4.4384,3.8501 C4.4564,3.8141 4.4944,3.7331 4.4414,3.7051 L4.3734,3.6691 C4.4534,3.7111 4.4144,3.7911 4.3974,3.8281" id="Fill-37" fill="#3C9243"></path>
                                        <polygon id="Fill-39" fill="#3C9243" points="4.5419 3.9067 4.7609 4.0327 4.7839 3.9867 4.6099 3.8847 4.6439 3.8197 4.7819 3.9007 4.8059 3.8567 4.6679 3.7777 4.6959 3.7267 4.8599 3.8237 4.8879 3.7777 4.6779 3.6567"></polygon>
                                        <path d="M4.9482,4.0454 C4.9332,4.0684 4.9482,4.0964 4.9802,4.1184 C5.0142,4.1404 5.0372,4.1394 5.0472,4.1244 C5.0772,4.0744 4.9032,4.0034 4.9562,3.9184 C5.0022,3.8444 5.0822,3.9014 5.1122,3.9214 C5.1422,3.9414 5.1902,3.9924 5.1532,4.0514 L5.1012,4.0174 C5.1192,3.9924 5.1012,3.9664 5.0732,3.9514 C5.0472,3.9324 5.0262,3.9244 5.0102,3.9514 C4.9842,3.9894 5.1582,4.0644 5.1032,4.1504 C5.0672,4.2134 4.9982,4.1854 4.9542,4.1564 C4.9132,4.1304 4.8572,4.0704 4.8932,4.0114 L4.9482,4.0454 Z" id="Fill-41" fill="#3C9243"></path>
                                        <path d="M5.246,4.2485 C5.228,4.2705 5.241,4.2995 5.274,4.3225 C5.307,4.3475 5.331,4.3485 5.342,4.3325 C5.373,4.2855 5.201,4.2035 5.262,4.1215 C5.311,4.0505 5.39,4.1115 5.417,4.1325 C5.447,4.1545 5.49,4.2085 5.45,4.2655 L5.402,4.2275 C5.417,4.2035 5.402,4.1785 5.375,4.1585 C5.35,4.1405 5.332,4.1325 5.315,4.1565 C5.287,4.1935 5.453,4.2785 5.397,4.3605 C5.354,4.4225 5.287,4.3915 5.246,4.3585 C5.208,4.3315 5.153,4.2695 5.194,4.2115 L5.246,4.2485 Z" id="Fill-43" fill="#3C9243"></path>
                                        <path d="M5.5595,4.5347 C5.5915,4.5617 5.6415,4.5517 5.6715,4.5127 C5.7025,4.4727 5.6985,4.4217 5.6675,4.3947 C5.6345,4.3687 5.5865,4.3787 5.5565,4.4187 C5.5245,4.4567 5.5265,4.5097 5.5595,4.5347 M5.5265,4.5777 C5.5805,4.6217 5.6635,4.6067 5.7105,4.5457 C5.7585,4.4827 5.7535,4.3977 5.7005,4.3537 C5.6455,4.3087 5.5645,4.3237 5.5165,4.3867 C5.4685,4.4477 5.4735,4.5327 5.5265,4.5777" id="Fill-45" fill="#3C9243"></path>
                                        <polygon id="Fill-47" fill="#FEFEFE" points="0.6186 3.3325 0.5806 3.4545 0.6406 3.4755"></polygon>
                                        <polygon id="Fill-49" fill="#FEFEFE" points="0.6186 3.3325 0.6586 3.4545 0.5986 3.4755"></polygon>
                                        <polygon id="Fill-51" fill="#FEFEFE" points="0.7373 3.4214 0.6123 3.4214 0.6123 3.4834"></polygon>
                                        <polygon id="Fill-53" fill="#FEFEFE" points="0.7373 3.4214 0.6383 3.4964 0.5993 3.4444"></polygon>
                                        <polygon id="Fill-55" fill="#FEFEFE" points="0.5 3.4214 0.601 3.4964 0.639 3.4444"></polygon>
                                        <polygon id="Fill-57" fill="#FEFEFE" points="0.5 3.4214 0.625 3.4214 0.625 3.4834"></polygon>
                                        <polygon id="Fill-59" fill="#FEFEFE" points="0.6918 3.5649 0.6538 3.4429 0.5958 3.4619"></polygon>
                                        <polygon id="Fill-61" fill="#FEFEFE" points="0.6918 3.5649 0.5908 3.4889 0.6278 3.4359"></polygon>
                                        <polygon id="Fill-63" fill="#FEFEFE" points="0.5454 3.5649 0.6464 3.4889 0.6104 3.4359"></polygon>
                                        <polygon id="Fill-65" fill="#FEFEFE" points="0.5454 3.5649 0.5854 3.4429 0.6454 3.4619"></polygon>
                                        <polygon id="Fill-67" fill="#FEFEFE" points="0.8784 4.5933 0.8384 4.7153 0.8994 4.7353"></polygon>
                                        <polygon id="Fill-69" fill="#FEFEFE" points="0.8784 4.5933 0.9154 4.7153 0.8574 4.7353"></polygon>
                                        <polygon id="Fill-71" fill="#FEFEFE" points="0.9946 4.6821 0.8706 4.6821 0.8706 4.7461"></polygon>
                                        <polygon id="Fill-73" fill="#FEFEFE" points="0.9946 4.6821 0.8956 4.7581 0.8586 4.7041"></polygon>
                                        <polygon id="Fill-75" fill="#FEFEFE" points="0.7597 4.6821 0.8587 4.7581 0.8977 4.7041"></polygon>
                                        <polygon id="Fill-77" fill="#FEFEFE" points="0.7597 4.6821 0.8847 4.6821 0.8847 4.7461"></polygon>
                                        <polygon id="Fill-79" fill="#FEFEFE" points="0.9516 4.8267 0.9126 4.7047 0.8526 4.7237"></polygon>
                                        <polygon id="Fill-81" fill="#FEFEFE" points="0.9516 4.8267 0.8506 4.7497 0.8866 4.6987"></polygon>
                                        <polygon id="Fill-83" fill="#FEFEFE" points="0.8027 4.8267 0.9067 4.7497 0.8677 4.6987"></polygon>
                                        <polygon id="Fill-85" fill="#FEFEFE" points="0.8027 4.8267 0.8407 4.7047 0.9017 4.7237"></polygon>
                                        <polygon id="Fill-87" fill="#FEFEFE" points="0.52 4.9048 0.497 4.9878 0.535 5.0008"></polygon>
                                        <polygon id="Fill-89" fill="#FEFEFE" points="0.52 4.9048 0.545 4.9878 0.507 5.0008"></polygon>
                                        <polygon id="Fill-91" fill="#FEFEFE" points="0.5991 4.9644 0.5151 4.9644 0.5151 5.0074"></polygon>
                                        <polygon id="Fill-93" fill="#FEFEFE" points="0.5991 4.9644 0.5331 5.0154 0.5081 4.9814"></polygon>
                                        <polygon id="Fill-95" fill="#FEFEFE" points="0.4418 4.9644 0.5078 5.0154 0.5328 4.9814"></polygon>
                                        <polygon id="Fill-97" fill="#FEFEFE" points="0.4418 4.9644 0.5248 4.9644 0.5248 5.0074"></polygon>
                                        <polygon id="Fill-99" fill="#FEFEFE" points="0.5688 5.0601 0.5428 4.9791 0.5048 4.9931"></polygon>
                                        <polygon id="Fill-101" fill="#FEFEFE" points="0.5688 5.0601 0.5028 5.0101 0.5268 4.9751"></polygon>
                                        <polygon id="Fill-103" fill="#FEFEFE" points="0.4721 5.0601 0.5381 5.0101 0.5151 4.9751"></polygon>
                                        <polygon id="Fill-105" fill="#FEFEFE" points="0.4721 5.0601 0.4961 4.9791 0.5351 4.9931"></polygon>
                                        <polygon id="Fill-107" fill="#FEFEFE" points="1.1635 4.4771 1.1435 4.5351 1.1715 4.5451"></polygon>
                                        <polygon id="Fill-109" fill="#FEFEFE" points="1.1635 4.4771 1.1805 4.5351 1.1525 4.5451"></polygon>
                                        <polygon id="Fill-111" fill="#FEFEFE" points="1.2192 4.52 1.1612 4.52 1.1612 4.55"></polygon>
                                        <polygon id="Fill-113" fill="#FEFEFE" points="1.2192 4.52 1.1712 4.556 1.1552 4.531"></polygon>
                                        <polygon id="Fill-115" fill="#FEFEFE" points="1.1049 4.52 1.1549 4.556 1.1709 4.531"></polygon>
                                        <polygon id="Fill-117" fill="#FEFEFE" points="1.1049 4.52 1.1659 4.52 1.1659 4.55"></polygon>
                                        <polygon id="Fill-119" fill="#FEFEFE" points="1.1982 4.5884 1.1782 4.5284 1.1532 4.5384"></polygon>
                                        <polygon id="Fill-121" fill="#FEFEFE" points="1.1982 4.5884 1.1502 4.5514 1.1682 4.5264"></polygon>
                                        <polygon id="Fill-123" fill="#FEFEFE" points="1.1284 4.5884 1.1764 4.5514 1.1584 4.5264"></polygon>
                                        <polygon id="Fill-125" fill="#FEFEFE" points="1.1284 4.5884 1.1464 4.5284 1.1734 4.5384"></polygon>
                                        <polygon id="Fill-127" fill="#FEFEFE" points="1.4858 4.9126 1.4528 5.0156 1.4998 5.0326"></polygon>
                                        <polygon id="Fill-129" fill="#FEFEFE" points="1.4858 4.9126 1.5158 5.0156 1.4678 5.0326"></polygon>
                                        <polygon id="Fill-131" fill="#FEFEFE" points="1.5825 4.9878 1.4785 4.9878 1.4785 5.0408"></polygon>
                                        <polygon id="Fill-133" fill="#FEFEFE" points="1.5825 4.9878 1.4985 5.0498 1.4685 5.0068"></polygon>
                                        <polygon id="Fill-135" fill="#FEFEFE" points="1.3857 4.9878 1.4697 5.0498 1.4997 5.0068"></polygon>
                                        <polygon id="Fill-137" fill="#FEFEFE" points="1.3857 4.9878 1.4897 4.9878 1.4897 5.0408"></polygon>
                                        <polygon id="Fill-139" fill="#FEFEFE" points="1.5463 5.105 1.5133 5.004 1.4633 5.022"></polygon>
                                        <polygon id="Fill-141" fill="#FEFEFE" points="1.5463 5.105 1.4613 5.043 1.4913 5.001"></polygon>
                                        <polygon id="Fill-143" fill="#FEFEFE" points="1.4252 5.105 1.5072 5.043 1.4762 5.001"></polygon>
                                        <polygon id="Fill-145" fill="#FEFEFE" points="1.4252 5.105 1.4552 5.004 1.5042 5.022"></polygon>
                                        <polygon id="Fill-147" fill="#FEFEFE" points="1.3974 5.2104 1.3644 5.3134 1.4134 5.3294"></polygon>
                                        <polygon id="Fill-149" fill="#FEFEFE" points="1.3974 5.2104 1.4284 5.3134 1.3794 5.3294"></polygon>
                                        <polygon id="Fill-151" fill="#FEFEFE" points="1.496 5.2856 1.392 5.2856 1.392 5.3376"></polygon>
                                        <polygon id="Fill-153" fill="#FEFEFE" points="1.496 5.2856 1.411 5.3476 1.381 5.3046"></polygon>
                                        <polygon id="Fill-155" fill="#FEFEFE" points="1.2998 5.2856 1.3828 5.3476 1.4138 5.3046"></polygon>
                                        <polygon id="Fill-157" fill="#FEFEFE" points="1.2998 5.2856 1.4038 5.2856 1.4038 5.3376"></polygon>
                                        <polygon id="Fill-159" fill="#FEFEFE" points="1.458 5.4048 1.428 5.3018 1.377 5.3188"></polygon>
                                        <polygon id="Fill-161" fill="#FEFEFE" points="1.458 5.4048 1.373 5.3408 1.405 5.2988"></polygon>
                                        <polygon id="Fill-163" fill="#FEFEFE" points="1.3369 5.4048 1.4199 5.3408 1.3899 5.2988"></polygon>
                                        <polygon id="Fill-165" fill="#FEFEFE" points="1.3369 5.4048 1.3679 5.3018 1.4189 5.3188"></polygon>
                                        <polygon id="Fill-167" fill="#FEFEFE" points="3.9043 2.9399 3.8653 3.0629 3.9263 3.0829"></polygon>
                                        <polygon id="Fill-169" fill="#FEFEFE" points="3.9043 2.9399 3.9443 3.0629 3.8833 3.0829"></polygon>
                                        <polygon id="Fill-171" fill="#FEFEFE" points="4.0229 3.0288 3.8979 3.0288 3.8979 3.0938"></polygon>
                                        <polygon id="Fill-173" fill="#FEFEFE" points="4.0229 3.0288 3.9219 3.1048 3.8859 3.0518"></polygon>
                                        <polygon id="Fill-175" fill="#FEFEFE" points="3.7856 3.0288 3.8886 3.1048 3.9246 3.0518"></polygon>
                                        <polygon id="Fill-177" fill="#FEFEFE" points="3.7856 3.0288 3.9106 3.0288 3.9106 3.0938"></polygon>
                                        <polygon id="Fill-179" fill="#FEFEFE" points="3.979 3.1733 3.939 3.0513 3.881 3.0713"></polygon>
                                        <polygon id="Fill-181" fill="#FEFEFE" points="3.979 3.1733 3.876 3.0973 3.914 3.0453"></polygon>
                                        <polygon id="Fill-183" fill="#FEFEFE" points="3.831 3.1733 3.932 3.0973 3.896 3.0453"></polygon>
                                        <polygon id="Fill-185" fill="#FEFEFE" points="3.831 3.1733 3.871 3.0513 3.931 3.0713"></polygon>
                                        <polygon id="Fill-187" fill="#FEFEFE" points="5.0429 4.9243 5.0039 5.0463 5.0639 5.0673"></polygon>
                                        <polygon id="Fill-189" fill="#FEFEFE" points="5.0429 4.9243 5.0819 5.0463 5.0239 5.0673"></polygon>
                                        <polygon id="Fill-191" fill="#FEFEFE" points="5.1621 5.0132 5.0371 5.0132 5.0371 5.0762"></polygon>
                                        <polygon id="Fill-193" fill="#FEFEFE" points="5.1621 5.0132 5.0621 5.0882 5.0241 5.0352"></polygon>
                                        <polygon id="Fill-195" fill="#FEFEFE" points="4.9238 5.0132 5.0268 5.0882 5.0628 5.0352"></polygon>
                                        <polygon id="Fill-197" fill="#FEFEFE" points="4.9238 5.0132 5.0498 5.0132 5.0498 5.0762"></polygon>
                                        <polygon id="Fill-199" fill="#FEFEFE" points="5.1191 5.1567 5.0801 5.0347 5.0191 5.0537"></polygon>
                                        <polygon id="Fill-201" fill="#FEFEFE" points="5.1191 5.1567 5.0161 5.0817 5.0551 5.0287"></polygon>
                                        <polygon id="Fill-203" fill="#FEFEFE" points="4.9707 5.1567 5.0717 5.0817 5.0337 5.0287"></polygon>
                                        <polygon id="Fill-205" fill="#FEFEFE" points="4.9707 5.1567 5.0087 5.0347 5.0697 5.0537"></polygon>
                                        <polygon id="Fill-207" fill="#FEFEFE" points="5.4501 4.9956 5.4221 5.0766 5.4641 5.0896"></polygon>
                                        <polygon id="Fill-209" fill="#FEFEFE" points="5.4501 4.9956 5.4751 5.0766 5.4331 5.0896"></polygon>
                                        <polygon id="Fill-211" fill="#FEFEFE" points="5.5263 5.0552 5.4453 5.0552 5.4453 5.0972"></polygon>
                                        <polygon id="Fill-213" fill="#FEFEFE" points="5.5263 5.0552 5.4603 5.1052 5.4353 5.0702"></polygon>
                                        <polygon id="Fill-215" fill="#FEFEFE" points="5.3701 5.0552 5.4351 5.1052 5.4631 5.0702"></polygon>
                                        <polygon id="Fill-217" fill="#FEFEFE" points="5.3701 5.0552 5.4531 5.0552 5.4531 5.0972"></polygon>
                                        <polygon id="Fill-219" fill="#FEFEFE" points="5.496 5.1499 5.474 5.0679 5.433 5.0829"></polygon>
                                        <polygon id="Fill-221" fill="#FEFEFE" points="5.496 5.1499 5.43 5.0999 5.456 5.0649"></polygon>
                                        <polygon id="Fill-223" fill="#FEFEFE" points="5.4003 5.1499 5.4653 5.0999 5.4433 5.0649"></polygon>
                                        <polygon id="Fill-225" fill="#FEFEFE" points="5.4003 5.1499 5.4253 5.0679 5.4633 5.0829"></polygon>
                                        <polygon id="Fill-227" fill="#FEFEFE" points="5.1621 5.2104 5.1321 5.3134 5.1801 5.3294"></polygon>
                                        <polygon id="Fill-229" fill="#FEFEFE" points="5.1621 5.2104 5.1941 5.3134 5.1471 5.3294"></polygon>
                                        <polygon id="Fill-231" fill="#FEFEFE" points="5.2617 5.2856 5.1577 5.2856 5.1577 5.3376"></polygon>
                                        <polygon id="Fill-233" fill="#FEFEFE" points="5.2617 5.2856 5.1797 5.3476 5.1477 5.3046"></polygon>
                                        <polygon id="Fill-235" fill="#FEFEFE" points="5.0644 5.2856 5.1494 5.3476 5.1794 5.3046"></polygon>
                                        <polygon id="Fill-237" fill="#FEFEFE" points="5.0644 5.2856 5.1684 5.2856 5.1684 5.3376"></polygon>
                                        <polygon id="Fill-239" fill="#FEFEFE" points="5.2246 5.4048 5.1926 5.3018 5.1426 5.3188"></polygon>
                                        <polygon id="Fill-241" fill="#FEFEFE" points="5.2246 5.4048 5.1406 5.3408 5.1706 5.2988"></polygon>
                                        <polygon id="Fill-243" fill="#FEFEFE" points="5.1015 5.4048 5.1855 5.3408 5.1555 5.2988"></polygon>
                                        <polygon id="Fill-245" fill="#FEFEFE" points="5.1015 5.4048 5.1335 5.3018 5.1835 5.3188"></polygon>
                                        <polygon id="Fill-247" fill="#FEFEFE" points="4.4604 5.8394 4.4284 5.9404 4.4774 5.9574"></polygon>
                                        <polygon id="Fill-249" fill="#FEFEFE" points="4.4604 5.8394 4.4924 5.9404 4.4414 5.9574"></polygon>
                                        <polygon id="Fill-251" fill="#FEFEFE" points="4.5595 5.9136 4.4555 5.9136 4.4555 5.9686"></polygon>
                                        <polygon id="Fill-253" fill="#FEFEFE" points="4.5595 5.9136 4.4745 5.9756 4.4445 5.9326"></polygon>
                                        <polygon id="Fill-255" fill="#FEFEFE" points="4.3627 5.9136 4.4467 5.9756 4.4747 5.9326"></polygon>
                                        <polygon id="Fill-257" fill="#FEFEFE" points="4.3627 5.9136 4.4667 5.9136 4.4667 5.9686"></polygon>
                                        <polygon id="Fill-259" fill="#FEFEFE" points="4.52 6.0327 4.491 5.9307 4.438 5.9477"></polygon>
                                        <polygon id="Fill-261" fill="#FEFEFE" points="4.52 6.0327 4.436 5.9697 4.466 5.9277"></polygon>
                                        <polygon id="Fill-263" fill="#FEFEFE" points="4.3999 6.0327 4.4839 5.9697 4.4539 5.9277"></polygon>
                                        <polygon id="Fill-265" fill="#FEFEFE" points="4.3999 6.0327 4.4319 5.9307 4.4819 5.9477"></polygon>
                                        <polygon id="Fill-267" fill="#FEFEFE" points="4.456 6.1636 4.432 6.2436 4.471 6.2576"></polygon>
                                        <polygon id="Fill-269" fill="#FEFEFE" points="4.456 6.1636 4.481 6.2436 4.442 6.2576"></polygon>
                                        <polygon id="Fill-271" fill="#FEFEFE" points="4.5351 6.2231 4.4531 6.2231 4.4531 6.2651"></polygon>
                                        <polygon id="Fill-273" fill="#FEFEFE" points="4.5351 6.2231 4.4661 6.2721 4.4421 6.2381"></polygon>
                                        <polygon id="Fill-275" fill="#FEFEFE" points="4.3779 6.2231 4.4439 6.2721 4.4689 6.2381"></polygon>
                                        <polygon id="Fill-277" fill="#FEFEFE" points="4.3779 6.2231 4.4609 6.2231 4.4609 6.2651"></polygon>
                                        <polygon id="Fill-279" fill="#FEFEFE" points="4.5048 6.3169 4.4798 6.2369 4.4388 6.2499"></polygon>
                                        <polygon id="Fill-281" fill="#FEFEFE" points="4.5048 6.3169 4.4358 6.2679 4.4618 6.2329"></polygon>
                                        <polygon id="Fill-283" fill="#FEFEFE" points="4.4082 6.3169 4.4742 6.2679 4.4492 6.2329"></polygon>
                                        <polygon id="Fill-285" fill="#FEFEFE" points="4.4082 6.3169 4.4342 6.2369 4.4722 6.2499"></polygon>
                                        <polygon id="Fill-287" fill="#FEFEFE" points="4.7519 5.6235 4.7239 5.7055 4.7619 5.7195"></polygon>
                                        <polygon id="Fill-289" fill="#FEFEFE" points="4.7519 5.6235 4.7749 5.7055 4.7359 5.7195"></polygon>
                                        <polygon id="Fill-291" fill="#FEFEFE" points="4.83 5.6831 4.745 5.6831 4.745 5.7261"></polygon>
                                        <polygon id="Fill-293" fill="#FEFEFE" points="4.83 5.6831 4.762 5.7351 4.736 5.7011"></polygon>
                                        <polygon id="Fill-295" fill="#FEFEFE" points="4.6713 5.6831 4.7393 5.7351 4.7613 5.7011"></polygon>
                                        <polygon id="Fill-297" fill="#FEFEFE" points="4.6713 5.6831 4.7553 5.6831 4.7553 5.7261"></polygon>
                                        <polygon id="Fill-299" fill="#FEFEFE" points="4.7998 5.7788 4.7728 5.6978 4.7348 5.7118"></polygon>
                                        <polygon id="Fill-301" fill="#FEFEFE" points="4.7998 5.7788 4.7318 5.7288 4.7588 5.6948"></polygon>
                                        <polygon id="Fill-303" fill="#FEFEFE" points="4.7016 5.7788 4.7696 5.7288 4.7446 5.6948"></polygon>
                                        <polygon id="Fill-305" fill="#FEFEFE" points="4.7016 5.7788 4.7286 5.6978 4.7666 5.7118"></polygon>
                                        <polygon id="Fill-307" fill="#FEFEFE" points="4.9843 5.4517 4.9533 5.5537 5.0013 5.5697"></polygon>
                                        <polygon id="Fill-309" fill="#FEFEFE" points="4.9843 5.4517 5.0163 5.5537 4.9653 5.5697"></polygon>
                                        <polygon id="Fill-311" fill="#FEFEFE" points="5.082 5.5259 4.978 5.5259 4.978 5.5789"></polygon>
                                        <polygon id="Fill-313" fill="#FEFEFE" points="5.082 5.5259 5.001 5.5889 4.971 5.5449"></polygon>
                                        <polygon id="Fill-315" fill="#FEFEFE" points="4.8857 5.5259 4.9707 5.5889 5.0007 5.5449"></polygon>
                                        <polygon id="Fill-317" fill="#FEFEFE" points="4.8857 5.5259 4.9897 5.5259 4.9897 5.5789"></polygon>
                                        <polygon id="Fill-319" fill="#FEFEFE" points="5.0449 5.644 5.0149 5.544 4.9639 5.56"></polygon>
                                        <polygon id="Fill-321" fill="#FEFEFE" points="5.0449 5.644 4.9609 5.582 4.9909 5.539"></polygon>
                                        <polygon id="Fill-323" fill="#FEFEFE" points="4.9228 5.644 5.0088 5.582 4.9768 5.539"></polygon>
                                        <polygon id="Fill-325" fill="#FEFEFE" points="4.9228 5.644 4.9558 5.544 5.0038 5.56"></polygon>
                                        <polygon id="Fill-327" fill="#FEFEFE" points="4.4467 5.5669 4.4237 5.6479 4.4617 5.6619"></polygon>
                                        <polygon id="Fill-329" fill="#FEFEFE" points="4.4467 5.5669 4.4747 5.6479 4.4337 5.6619"></polygon>
                                        <polygon id="Fill-331" fill="#FEFEFE" points="4.5293 5.6265 4.4443 5.6265 4.4443 5.6695"></polygon>
                                        <polygon id="Fill-333" fill="#FEFEFE" points="4.5293 5.6265 4.4603 5.6765 4.4363 5.6415"></polygon>
                                        <polygon id="Fill-335" fill="#FEFEFE" points="4.3696 5.6265 4.4356 5.6765 4.4606 5.6415"></polygon>
                                        <polygon id="Fill-337" fill="#FEFEFE" points="4.3696 5.6265 4.4536 5.6265 4.4536 5.6695"></polygon>
                                        <polygon id="Fill-339" fill="#FEFEFE" points="4.499 5.7231 4.472 5.6401 4.432 5.6531"></polygon>
                                        <polygon id="Fill-341" fill="#FEFEFE" points="4.499 5.7231 4.43 5.6711 4.454 5.6381"></polygon>
                                        <polygon id="Fill-343" fill="#FEFEFE" points="4.3999 5.7231 4.4659 5.6711 4.4419 5.6381"></polygon>
                                        <polygon id="Fill-345" fill="#FEFEFE" points="4.3999 5.7231 4.4259 5.6401 4.4659 5.6531"></polygon>
                                        <polygon id="Fill-347" fill="#FEFEFE" points="1.8896 4.0151 1.8566 4.1171 1.9076 4.1321"></polygon>
                                        <polygon id="Fill-349" fill="#FEFEFE" points="1.8896 4.0151 1.9206 4.1171 1.8716 4.1321"></polygon>
                                        <polygon id="Fill-351" fill="#FEFEFE" points="1.9887 4.0894 1.8847 4.0894 1.8847 4.1424"></polygon>
                                        <polygon id="Fill-353" fill="#FEFEFE" points="1.9887 4.0894 1.9047 4.1524 1.8747 4.1094"></polygon>
                                        <polygon id="Fill-355" fill="#FEFEFE" points="1.7895 4.0894 1.8745 4.1524 1.9045 4.1094"></polygon>
                                        <polygon id="Fill-357" fill="#FEFEFE" points="1.7895 4.0894 1.8935 4.0894 1.8935 4.1424"></polygon>
                                        <polygon id="Fill-359" fill="#FEFEFE" points="1.9501 4.2085 1.9201 4.1075 1.8701 4.1235"></polygon>
                                        <polygon id="Fill-361" fill="#FEFEFE" points="1.9501 4.2085 1.8651 4.1465 1.8951 4.1025"></polygon>
                                        <polygon id="Fill-363" fill="#FEFEFE" points="1.8266 4.2085 1.9126 4.1465 1.8826 4.1025"></polygon>
                                        <polygon id="Fill-365" fill="#FEFEFE" points="1.8266 4.2085 1.8606 4.1075 1.9086 4.1235"></polygon>
                                        <polygon id="Fill-367" fill="#FEFEFE" points="3.7924 3.7622 3.7694 3.8442 3.8074 3.8572"></polygon>
                                        <polygon id="Fill-369" fill="#FEFEFE" points="3.7924 3.7622 3.8204 3.8442 3.7794 3.8572"></polygon>
                                        <polygon id="Fill-371" fill="#FEFEFE" points="3.874 3.8228 3.791 3.8228 3.791 3.8648"></polygon>
                                        <polygon id="Fill-373" fill="#FEFEFE" points="3.874 3.8228 3.806 3.8728 3.782 3.8388"></polygon>
                                        <polygon id="Fill-375" fill="#FEFEFE" points="3.7148 3.8228 3.7818 3.8728 3.8058 3.8388"></polygon>
                                        <polygon id="Fill-377" fill="#FEFEFE" points="3.7148 3.8228 3.7998 3.8228 3.7998 3.8648"></polygon>
                                        <polygon id="Fill-379" fill="#FEFEFE" points="3.8437 3.9185 3.8157 3.8365 3.7777 3.8505"></polygon>
                                        <polygon id="Fill-381" fill="#FEFEFE" points="3.8437 3.9185 3.7757 3.8665 3.7997 3.8325"></polygon>
                                        <polygon id="Fill-383" fill="#FEFEFE" points="3.7451 3.9185 3.8121 3.8665 3.7881 3.8325"></polygon>
                                        <polygon id="Fill-385" fill="#FEFEFE" points="3.7451 3.9185 3.7701 3.8365 3.8101 3.8505"></polygon>
                                        <polygon id="Fill-387" fill="#FEFEFE" points="3 5.2183 2.96 5.3403 3.021 5.3603"></polygon>
                                        <polygon id="Fill-389" fill="#FEFEFE" points="3 5.2183 3.039 5.3403 2.98 5.3603"></polygon>
                                        <polygon id="Fill-391" fill="#FEFEFE" points="3.1186 5.3062 2.9956 5.3062 2.9956 5.3702"></polygon>
                                        <polygon id="Fill-393" fill="#FEFEFE" points="3.1186 5.3062 3.0186 5.3832 2.9826 5.3292"></polygon>
                                        <polygon id="Fill-395" fill="#FEFEFE" points="2.8813 5.3062 2.9853 5.3832 3.0183 5.3292"></polygon>
                                        <polygon id="Fill-397" fill="#FEFEFE" points="2.8813 5.3062 3.0063 5.3062 3.0063 5.3702"></polygon>
                                        <polygon id="Fill-399" fill="#FEFEFE" points="3.0732 5.4507 3.0362 5.3297 2.9752 5.3477"></polygon>
                                        <polygon id="Fill-401" fill="#FEFEFE" points="3.0732 5.4507 2.9732 5.3747 3.0082 5.3227"></polygon>
                                        <polygon id="Fill-403" fill="#FEFEFE" points="2.9267 5.4507 3.0277 5.3747 2.9907 5.3227"></polygon>
                                        <polygon id="Fill-405" fill="#FEFEFE" points="2.9267 5.4507 2.9657 5.3297 3.0257 5.3477"></polygon>
                                        <polygon id="Fill-407" fill="#FEFEFE" points="3.3388 4.644 3.3058 4.746 3.3558 4.761"></polygon>
                                        <polygon id="Fill-409" fill="#FEFEFE" points="3.3388 4.644 3.3708 4.746 3.3208 4.761"></polygon>
                                        <polygon id="Fill-411" fill="#FEFEFE" points="3.4365 4.7183 3.3315 4.7183 3.3315 4.7703"></polygon>
                                        <polygon id="Fill-413" fill="#FEFEFE" points="3.4365 4.7183 3.3515 4.7803 3.3215 4.7373"></polygon>
                                        <polygon id="Fill-415" fill="#FEFEFE" points="3.2397 4.7183 3.3237 4.7803 3.3537 4.7373"></polygon>
                                        <polygon id="Fill-417" fill="#FEFEFE" points="3.2397 4.7183 3.3437 4.7183 3.3437 4.7703"></polygon>
                                        <polygon id="Fill-419" fill="#FEFEFE" points="3.3994 4.8374 3.3664 4.7344 3.3174 4.7524"></polygon>
                                        <polygon id="Fill-421" fill="#FEFEFE" points="3.3994 4.8374 3.3154 4.7744 3.3454 4.7304"></polygon>
                                        <polygon id="Fill-423" fill="#FEFEFE" points="3.2758 4.8374 3.3608 4.7744 3.3308 4.7304"></polygon>
                                        <polygon id="Fill-425" fill="#FEFEFE" points="3.2758 4.8374 3.3088 4.7344 3.3588 4.7524"></polygon>
                                        <polygon id="Fill-427" fill="#FEFEFE" points="3 4.3755 2.967 4.4765 3.018 4.4925"></polygon>
                                        <polygon id="Fill-429" fill="#FEFEFE" points="3 4.3755 3.031 4.4765 2.985 4.4925"></polygon>
                                        <polygon id="Fill-431" fill="#FEFEFE" points="3.0991 4.4478 2.9951 4.4478 2.9951 4.5018"></polygon>
                                        <polygon id="Fill-433" fill="#FEFEFE" points="3.0991 4.4478 3.0151 4.5098 2.9851 4.4688"></polygon>
                                        <polygon id="Fill-435" fill="#FEFEFE" points="2.9023 4.4478 2.9873 4.5098 3.0153 4.4688"></polygon>
                                        <polygon id="Fill-437" fill="#FEFEFE" points="2.9023 4.4478 3.0063 4.4478 3.0063 4.5018"></polygon>
                                        <polygon id="Fill-439" fill="#FEFEFE" points="3.0615 4.5679 3.0305 4.4659 2.9805 4.4819"></polygon>
                                        <polygon id="Fill-441" fill="#FEFEFE" points="3.0615 4.5679 2.9785 4.5059 3.0085 4.4619"></polygon>
                                        <polygon id="Fill-443" fill="#FEFEFE" points="2.9394 4.5679 3.0234 4.5059 2.9934 4.4619"></polygon>
                                        <polygon id="Fill-445" fill="#FEFEFE" points="2.9394 4.5679 2.9704 4.4659 3.0214 4.4819"></polygon>
                                        <polygon id="Fill-447" fill="#FEFEFE" points="2.7055 4.6646 2.6805 4.7466 2.7205 4.7606"></polygon>
                                        <polygon id="Fill-449" fill="#FEFEFE" points="2.7055 4.6646 2.7335 4.7466 2.6925 4.7606"></polygon>
                                        <polygon id="Fill-451" fill="#FEFEFE" points="2.7856 4.7241 2.7026 4.7241 2.7026 4.7661"></polygon>
                                        <polygon id="Fill-453" fill="#FEFEFE" points="2.7856 4.7241 2.7186 4.7741 2.6926 4.7391"></polygon>
                                        <polygon id="Fill-455" fill="#FEFEFE" points="2.6289 4.7241 2.6949 4.7741 2.7179 4.7391"></polygon>
                                        <polygon id="Fill-457" fill="#FEFEFE" points="2.6289 4.7241 2.7109 4.7241 2.7109 4.7661"></polygon>
                                        <polygon id="Fill-459" fill="#FEFEFE" points="2.7558 4.8198 2.7308 4.7388 2.6908 4.7518"></polygon>
                                        <polygon id="Fill-461" fill="#FEFEFE" points="2.7558 4.8198 2.6898 4.7688 2.7148 4.7348"></polygon>
                                        <polygon id="Fill-463" fill="#FEFEFE" points="2.6591 4.8198 2.7251 4.7688 2.7011 4.7348"></polygon>
                                        <polygon id="Fill-465" fill="#FEFEFE" points="2.6591 4.8198 2.6841 4.7388 2.7231 4.7518"></polygon>
                                        <polygon id="Fill-467" fill="#FEFEFE" points="2.8544 4.8979 2.8354 4.9559 2.8634 4.9639"></polygon>
                                        <polygon id="Fill-469" fill="#FEFEFE" points="2.8544 4.8979 2.8724 4.9559 2.8444 4.9639"></polygon>
                                        <polygon id="Fill-471" fill="#FEFEFE" points="2.9101 4.9399 2.8511 4.9399 2.8511 4.9699"></polygon>
                                        <polygon id="Fill-473" fill="#FEFEFE" points="2.9101 4.9399 2.8641 4.9759 2.8461 4.9509"></polygon>
                                        <polygon id="Fill-475" fill="#FEFEFE" points="2.7963 4.9399 2.8463 4.9759 2.8633 4.9509"></polygon>
                                        <polygon id="Fill-477" fill="#FEFEFE" points="2.7963 4.9399 2.8573 4.9399 2.8573 4.9699"></polygon>
                                        <polygon id="Fill-479" fill="#FEFEFE" points="2.8872 5.0093 2.8692 4.9503 2.8422 4.9593"></polygon>
                                        <polygon id="Fill-481" fill="#FEFEFE" points="2.8872 5.0093 2.8392 4.9723 2.8592 4.9473"></polygon>
                                        <polygon id="Fill-483" fill="#FEFEFE" points="2.8183 5.0093 2.8663 4.9723 2.8483 4.9473"></polygon>
                                        <polygon id="Fill-485" fill="#FEFEFE" points="2.8183 5.0093 2.8383 4.9503 2.8663 4.9593"></polygon>
                                        <polygon id="Fill-487" fill="#FEFEFE" points="3.874 5.9126 3.841 6.0146 3.892 6.0316"></polygon>
                                        <polygon id="Fill-489" fill="#FEFEFE" points="3.874 5.9126 3.907 6.0146 3.855 6.0316"></polygon>
                                        <polygon id="Fill-491" fill="#FEFEFE" points="3.9716 5.9858 3.8676 5.9858 3.8676 6.0408"></polygon>
                                        <polygon id="Fill-493" fill="#FEFEFE" points="3.9716 5.9858 3.8886 6.0498 3.8576 6.0058"></polygon>
                                        <polygon id="Fill-495" fill="#FEFEFE" points="3.7753 5.9858 3.8583 6.0498 3.8903 6.0058"></polygon>
                                        <polygon id="Fill-497" fill="#FEFEFE" points="3.7753 5.9858 3.8793 5.9858 3.8793 6.0408"></polygon>
                                        <polygon id="Fill-499" fill="#FEFEFE" points="3.9345 6.1069 3.9015 6.0039 3.8525 6.0219"></polygon>
                                        <polygon id="Fill-501" fill="#FEFEFE" points="3.9345 6.1069 3.8505 6.0439 3.8805 6.0009"></polygon>
                                        <polygon id="Fill-503" fill="#FEFEFE" points="3.8125 6.1069 3.8955 6.0439 3.8655 6.0009"></polygon>
                                        <polygon id="Fill-505" fill="#FEFEFE" points="3.8125 6.1069 3.8435 6.0039 3.8945 6.0219"></polygon>
                                        <polygon id="Fill-507" fill="#FEFEFE" points="4.123 5.6694 4.098 5.7504 4.136 5.7644"></polygon>
                                        <polygon id="Fill-509" fill="#FEFEFE" points="4.123 5.6694 4.149 5.7504 4.108 5.7644"></polygon>
                                        <polygon id="Fill-511" fill="#FEFEFE" points="4.2021 5.729 4.1191 5.729 4.1191 5.77"></polygon>
                                        <polygon id="Fill-513" fill="#FEFEFE" points="4.2021 5.729 4.1361 5.778 4.1101 5.745"></polygon>
                                        <polygon id="Fill-515" fill="#FEFEFE" points="4.0429 5.729 4.1099 5.778 4.1359 5.745"></polygon>
                                        <polygon id="Fill-517" fill="#FEFEFE" points="4.0429 5.729 4.1279 5.729 4.1279 5.77"></polygon>
                                        <polygon id="Fill-519" fill="#FEFEFE" points="4.1718 5.8237 4.1468 5.7427 4.1078 5.7567"></polygon>
                                        <polygon id="Fill-521" fill="#FEFEFE" points="4.1718 5.8237 4.1058 5.7727 4.1298 5.7387"></polygon>
                                        <polygon id="Fill-523" fill="#FEFEFE" points="4.0751 5.8237 4.1411 5.7727 4.1161 5.7387"></polygon>
                                        <polygon id="Fill-525" fill="#FEFEFE" points="4.0751 5.8237 4.1011 5.7427 4.1401 5.7567"></polygon>
                                        <polygon id="Fill-527" fill="#FEFEFE" points="3.6435 5.5952 3.6185 5.6762 3.6565 5.6912"></polygon>
                                        <polygon id="Fill-529" fill="#FEFEFE" points="3.6435 5.5952 3.6695 5.6762 3.6305 5.6912"></polygon>
                                        <polygon id="Fill-531" fill="#FEFEFE" points="3.7216 5.6538 3.6386 5.6538 3.6386 5.6978"></polygon>
                                        <polygon id="Fill-533" fill="#FEFEFE" points="3.7216 5.6538 3.6546 5.7058 3.6306 5.6698"></polygon>
                                        <polygon id="Fill-535" fill="#FEFEFE" points="3.5634 5.6538 3.6304 5.7058 3.6544 5.6698"></polygon>
                                        <polygon id="Fill-537" fill="#FEFEFE" points="3.5634 5.6538 3.6484 5.6538 3.6484 5.6978"></polygon>
                                        <polygon id="Fill-539" fill="#FEFEFE" points="3.6923 5.7505 3.6673 5.6695 3.6263 5.6835"></polygon>
                                        <polygon id="Fill-541" fill="#FEFEFE" points="3.6923 5.7505 3.6243 5.7005 3.6493 5.6665"></polygon>
                                        <polygon id="Fill-543" fill="#FEFEFE" points="3.5937 5.7505 3.6607 5.7005 3.6367 5.6665"></polygon>
                                        <polygon id="Fill-545" fill="#FEFEFE" points="3.5937 5.7505 3.6187 5.6695 3.6607 5.6835"></polygon>
                                        <polygon id="Fill-547" fill="#FEFEFE" points="1.8291 5.4624 1.7921 5.5844 1.8501 5.6054"></polygon>
                                        <polygon id="Fill-549" fill="#FEFEFE" points="1.8291 5.4624 1.8681 5.5844 1.8091 5.6054"></polygon>
                                        <polygon id="Fill-551" fill="#FEFEFE" points="1.9501 5.5522 1.8251 5.5522 1.8251 5.6162"></polygon>
                                        <polygon id="Fill-553" fill="#FEFEFE" points="1.9501 5.5522 1.8461 5.6272 1.8111 5.5742"></polygon>
                                        <polygon id="Fill-555" fill="#FEFEFE" points="1.7094 5.5522 1.8134 5.6272 1.8474 5.5742"></polygon>
                                        <polygon id="Fill-557" fill="#FEFEFE" points="1.7094 5.5522 1.8344 5.5522 1.8344 5.6162"></polygon>
                                        <polygon id="Fill-559" fill="#FEFEFE" points="1.9023 5.6958 1.8653 5.5738 1.8073 5.5928"></polygon>
                                        <polygon id="Fill-561" fill="#FEFEFE" points="1.9023 5.6958 1.8023 5.6198 1.8373 5.5678"></polygon>
                                        <polygon id="Fill-563" fill="#FEFEFE" points="1.7558 5.6958 1.8568 5.6198 1.8198 5.5678"></polygon>
                                        <polygon id="Fill-565" fill="#FEFEFE" points="1.7558 5.6958 1.7968 5.5738 1.8548 5.5928"></polygon>
                                        <polygon id="Fill-567" fill="#FEFEFE" points="3 6.3032 2.987 6.3442 3.006 6.3512"></polygon>
                                        <polygon id="Fill-569" fill="#FEFEFE" points="3 6.3032 3.013 6.3442 2.996 6.3512"></polygon>
                                        <polygon id="Fill-571" fill="#FEFEFE" points="3.0405 6.3335 2.9975 6.3335 2.9975 6.3545"></polygon>
                                        <polygon id="Fill-573" fill="#FEFEFE" points="3.0405 6.3335 3.0055 6.3585 2.9955 6.3405"></polygon>
                                        <polygon id="Fill-575" fill="#FEFEFE" points="2.9604 6.3335 2.9954 6.3585 3.0054 6.3405"></polygon>
                                        <polygon id="Fill-577" fill="#FEFEFE" points="2.9604 6.3335 3.0014 6.3335 3.0014 6.3545"></polygon>
                                        <polygon id="Fill-579" fill="#FEFEFE" points="3.0234 6.3813 3.0124 6.3403 2.9934 6.3473"></polygon>
                                        <polygon id="Fill-581" fill="#FEFEFE" points="3.0234 6.3813 2.9904 6.3563 3.0014 6.3393"></polygon>
                                        <polygon id="Fill-583" fill="#FEFEFE" points="2.9755 6.3813 3.0085 6.3563 2.9975 6.3393"></polygon>
                                        <polygon id="Fill-585" fill="#FEFEFE" points="2.9755 6.3813 2.9895 6.3403 3.0085 6.3473"></polygon>
                                    </g>
                                </g>
                            </g>
                        </g>
                    </g>
                </g>
            </g>
        </g>
    </g>
</svg>
