<?xml version="1.0" encoding="UTF-8"?>
<svg viewBox="0 0 20 12" version="1.1" xmlns="http://www.w3.org/2000/svg" xmlns:xlink="http://www.w3.org/1999/xlink">
    <!-- Generator: Sketch 54.1 (76490) - https://sketchapp.com -->
    <title>CNY Flag</title>
    <desc>Created with Sketch.</desc>
    <defs>
        <rect id="path-1" x="0" y="0" width="1280" height="843"></rect>
        <filter x="-2.5%" y="-1.9%" width="105.0%" height="107.6%" filterUnits="objectBoundingBox" id="filter-2">
            <feOffset dx="0" dy="16" in="SourceAlpha" result="shadowOffsetOuter1"></feOffset>
            <feGaussianBlur stdDeviation="8" in="shadowOffsetOuter1" result="shadowBlurOuter1"></feGaussianBlur>
            <feColorMatrix values="0 0 0 0 0   0 0 0 0 0   0 0 0 0 0  0 0 0 0.14 0" type="matrix" in="shadowBlurOuter1"></feColorMatrix>
        </filter>
        <rect id="path-3" x="0" y="0" width="500" height="566"></rect>
        <filter x="-6.4%" y="-2.8%" width="112.8%" height="111.3%" filterUnits="objectBoundingBox" id="filter-4">
            <feOffset dx="0" dy="16" in="SourceAlpha" result="shadowOffsetOuter1"></feOffset>
            <feGaussianBlur stdDeviation="8" in="shadowOffsetOuter1" result="shadowBlurOuter1"></feGaussianBlur>
            <feColorMatrix values="0 0 0 0 0   0 0 0 0 0   0 0 0 0 0  0 0 0 0.24 0" type="matrix" in="shadowBlurOuter1"></feColorMatrix>
        </filter>
    </defs>
    <g id="Page-1" stroke="none" stroke-width="1" fill="none" fill-rule="evenodd">
        <g id="08.2.-local_currency_Currencies" transform="translate(-528.000000, -416.000000)">
            <rect fill="#FFFFFF" x="0" y="0" width="1440" height="860"></rect>
            <g id="Wallet-GIGZI" transform="translate(80.000000, 60.000000)">
                <g id="Rectangle-19">
                    <use fill="black" fill-opacity="1" filter="url(#filter-2)" xlink:href="#path-1"></use>
                    <use fill="#F6F7F8" fill-rule="evenodd" xlink:href="#path-1"></use>
                </g>
                <g id="TRANSACTIONS" transform="translate(300.000000, 193.000000)">
                    <rect id="Rectangle" fill="#FFFFFF" x="0" y="0" width="540" height="567"></rect>
                    <g id="Converted-GZG" transform="translate(0.000000, 169.000000)" fill="#212121" font-family="Montserrat-Medium, Montserrat" font-size="15" font-weight="400">
                        <text id="Converted-GZG-to-GZB">
                            <tspan x="58" y="17">Converted GZG to GZB </tspan>
                        </text>
                    </g>
                </g>
            </g>
            <g id="PopUp">
                <rect id="Rectangle-" fill="#000000" opacity="0.560000002" x="0" y="0" width="1440" height="860"></rect>
                <g id="PopUp-Block" transform="translate(470.000000, 147.000000)">
                    <g id="Rectangle">
                        <use fill="black" fill-opacity="1" filter="url(#filter-4)" xlink:href="#path-3"></use>
                        <use fill="#FFFFFF" fill-rule="evenodd" xlink:href="#path-3"></use>
                    </g>
                    <g id="Popular-Currencies" transform="translate(0.000000, 172.000000)">
                        <g id="2nd-Line" transform="translate(20.000000, 95.000000)">
                            <g id="CNY">
                                <g id="CNY-Flag" transform="translate(38.000000, 2.000000)">
                                    <polygon id="Fill-1" fill="#CB2027" points="0 12 20 12 20 0 0 0"></polygon>
                                    <polygon id="Fill-2" fill="#F5DD29" points="1.9234 4.3438 2.2984 3.1468 1.3124 2.4028 2.5344 2.3998 2.9164 1.2048 3.2974 2.3998 4.5204 2.4048 3.5314 3.1468 3.9054 4.3438 2.9154 3.6048"></polygon>
                                    <polygon id="Fill-3" fill="#F5DD29" points="5.3336 4.9902 5.7476 5.1632 6.0346 4.8102 6.0026 5.2682 6.4166 5.4402 5.9846 5.5532 5.9526 6.0062 5.7146 5.6202 5.2836 5.7282 5.5686 5.3792"></polygon>
                                    <polygon id="Fill-4" fill="#F5DD29" points="7.5694 2.6895 7.1314 2.6105 6.9204 3.0145 6.8584 2.5625 6.4194 2.4785 6.8194 2.2805 6.7584 1.8255 7.0684 2.1535 7.4684 1.9545 7.2594 2.3585"></polygon>
                                    <polygon id="Fill-5" fill="#F5DD29" points="6.6387 4.7393 6.7747 4.3033 6.4147 4.0323 6.8617 4.0323 6.9977 3.5963 7.1367 4.0323 7.5827 4.0323 7.2237 4.3033 7.3587 4.7393 6.9977 4.4703"></polygon>
                                    <polygon id="Fill-6" fill="#F5DD29" points="5.76 0.9552 5.356 0.7622 5.571 1.1612 5.268 1.4972 5.705 1.4132 5.922 1.8132 5.977 1.3572 6.413 1.2712 6.011 1.0752 6.063 0.6202"></polygon>
                                </g>
                            </g>
                        </g>
                    </g>
                </g>
            </g>
        </g>
    </g>
</svg>
