<?xml version="1.0" encoding="UTF-8"?>
<svg viewBox="0 0 20 12" version="1.1" xmlns="http://www.w3.org/2000/svg" xmlns:xlink="http://www.w3.org/1999/xlink">
    <!-- Generator: Sketch 54.1 (76490) - https://sketchapp.com -->
    <title>ENG Flag</title>
    <desc>Created with Sketch.</desc>
    <defs>
        <rect id="path-1" x="0" y="0" width="1280" height="843"></rect>
        <filter x="-2.5%" y="-1.9%" width="105.0%" height="107.6%" filterUnits="objectBoundingBox" id="filter-2">
            <feOffset dx="0" dy="16" in="SourceAlpha" result="shadowOffsetOuter1"></feOffset>
            <feGaussianBlur stdDeviation="8" in="shadowOffsetOuter1" result="shadowBlurOuter1"></feGaussianBlur>
            <feColorMatrix values="0 0 0 0 0   0 0 0 0 0   0 0 0 0 0  0 0 0 0.14 0" type="matrix" in="shadowBlurOuter1"></feColorMatrix>
        </filter>
        <rect id="path-3" x="0" y="0" width="500" height="566"></rect>
        <filter x="-6.4%" y="-2.8%" width="112.8%" height="111.3%" filterUnits="objectBoundingBox" id="filter-4">
            <feOffset dx="0" dy="16" in="SourceAlpha" result="shadowOffsetOuter1"></feOffset>
            <feGaussianBlur stdDeviation="8" in="shadowOffsetOuter1" result="shadowBlurOuter1"></feGaussianBlur>
            <feColorMatrix values="0 0 0 0 0   0 0 0 0 0   0 0 0 0 0  0 0 0 0.24 0" type="matrix" in="shadowBlurOuter1"></feColorMatrix>
        </filter>
    </defs>
    <g id="Page-1" stroke="none" stroke-width="1" fill="none" fill-rule="evenodd">
        <g id="08.2.-local_currency_Currencies" transform="translate(-528.000000, -371.000000)">
            <rect fill="#FFFFFF" x="0" y="0" width="1440" height="860"></rect>
            <g id="Wallet-GIGZI" transform="translate(80.000000, 60.000000)">
                <g id="Rectangle-19">
                    <use fill="black" fill-opacity="1" filter="url(#filter-2)" xlink:href="#path-1"></use>
                    <use fill="#F6F7F8" fill-rule="evenodd" xlink:href="#path-1"></use>
                </g>
                <g id="TRANSACTIONS" transform="translate(300.000000, 193.000000)">
                    <rect id="Rectangle" fill="#FFFFFF" x="0" y="0" width="540" height="567"></rect>
                    <g id="Date" transform="translate(0.000000, 122.000000)" fill="#F8FAFC" opacity="0.6">
                        <rect id="Rectangle" x="0" y="0" width="540" height="34"></rect>
                    </g>
                </g>
            </g>
            <g id="PopUp">
                <rect id="Rectangle-" fill="#000000" opacity="0.560000002" x="0" y="0" width="1440" height="860"></rect>
                <g id="PopUp-Block" transform="translate(470.000000, 147.000000)">
                    <g id="Rectangle">
                        <use fill="black" fill-opacity="1" filter="url(#filter-4)" xlink:href="#path-3"></use>
                        <use fill="#FFFFFF" fill-rule="evenodd" xlink:href="#path-3"></use>
                    </g>
                    <g id="Popular-Currencies" transform="translate(0.000000, 172.000000)">
                        <g id="1st-Line" transform="translate(20.000000, 49.000000)">
                            <g id="ENG">
                                <g id="ENG-Flag" transform="translate(38.000000, 3.000000)">
                                    <polygon id="Fill-1" fill="#CB001C" points="0 11.999534 19.9520904 11.999534 19.9520904 11.0765825 0 11.0765825"></polygon>
                                    <polygon id="Fill-2" fill="#FFFFFF" points="0 11.0765825 19.9520904 11.0765825 19.9520904 10.1533981 0 10.1533981"></polygon>
                                    <polygon id="Fill-3" fill="#CB001C" points="0 10.1535146 19.9520904 10.1535146 19.9520904 9.23196117 0 9.23196117"></polygon>
                                    <polygon id="Fill-4" fill="#FFFFFF" points="0 9.23196117 19.9520904 9.23196117 19.9520904 8.30784466 0 8.30784466"></polygon>
                                    <polygon id="Fill-5" fill="#CB001C" points="0 8.30784466 19.9520904 8.30784466 19.9520904 7.38466019 0 7.38466019"></polygon>
                                    <polygon id="Fill-6" fill="#FFFFFF" points="0 7.38454369 19.9520904 7.38454369 19.9520904 6.46194175 0 6.46194175"></polygon>
                                    <polygon id="Fill-7" fill="#CB001C" points="0 6.46194175 19.9520904 6.46194175 19.9520904 5.53759223 0 5.53759223"></polygon>
                                    <polygon id="Fill-8" fill="#FFFFFF" points="0 5.53759223 19.9520904 5.53759223 19.9520904 4.61580583 0 4.61580583"></polygon>
                                    <polygon id="Fill-9" fill="#CB001C" points="0 4.61580583 19.9520904 4.61580583 19.9520904 3.69308738 0 3.69308738"></polygon>
                                    <polygon id="Fill-10" fill="#FFFFFF" points="0 3.69308738 19.9520904 3.69308738 19.9520904 2.76990291 0 2.76990291"></polygon>
                                    <polygon id="Fill-11" fill="#CB001C" points="0 2.76990291 19.9520904 2.76990291 19.9520904 1.84578641 0 1.84578641"></polygon>
                                    <polygon id="Fill-12" fill="#FFFFFF" points="0 1.84590291 19.9520904 1.84590291 19.9520904 0.924116505 0 0.924116505"></polygon>
                                    <polygon id="Fill-13" fill="#CB001C" points="0 0.924116505 19.9520904 0.924116505 19.9520904 -1.42108547e-14 0 -1.42108547e-14"></polygon>
                                    <polygon id="Fill-14" fill="#2A3560" points="0 6.46194175 9.11141243 6.46194175 9.11141243 -1.42108547e-14 0 -1.42108547e-14"></polygon>
                                    <polygon id="Fill-15" fill="#FFFFFF" points="0.823186441 0.711996117 0.901039548 0.957704854 1.15041808 0.957704854 0.948497175 1.10834563 1.02488136 1.35253981 0.823186441 1.20189903 0.621265537 1.35253981 0.700248588 1.10834563 0.498101695 0.957704854 0.745333333 0.957704854"></polygon>
                                    <polygon id="Fill-16" fill="#FFFFFF" points="0.823186441 1.79079612 0.901039548 2.03499029 1.15041808 2.03499029 0.948497175 2.18563107 1.02488136 2.42994175 0.823186441 2.27906796 0.621265537 2.42994175 0.700248588 2.18563107 0.498101695 2.03499029 0.745333333 2.03499029"></polygon>
                                    <polygon id="Fill-17" fill="#FFFFFF" points="0.823186441 2.8705165 0.901039548 3.11354563 1.15041808 3.11354563 0.948497175 3.26441942 1.02488136 3.50966214 0.823186441 3.35773981 0.621265537 3.50966214 0.700248588 3.26441942 0.498101695 3.11354563 0.745333333 3.11354563"></polygon>
                                    <polygon id="Fill-18" fill="#FFFFFF" points="0.823186441 3.94796505 0.901039548 4.19215922 1.15041808 4.19215922 0.948497175 4.34303301 1.02488136 4.58711068 0.823186441 4.4364699 0.621265537 4.58711068 0.700248588 4.34303301 0.498101695 4.19215922 0.745333333 4.19215922"></polygon>
                                    <polygon id="Fill-19" fill="#FFFFFF" points="0.823186441 5.02654369 0.901039548 5.27178641 1.15041808 5.27178641 0.948497175 5.42161165 1.02488136 5.66568932 0.823186441 5.51481553 0.621265537 5.66568932 0.700248588 5.42161165 0.498101695 5.27178641 0.745333333 5.27178641"></polygon>
                                    <polygon id="Fill-20" fill="#FFFFFF" points="1.55212429 1.28086602 1.62647458 1.52506019 1.87743503 1.52506019 1.67664407 1.67616699 1.75212429 1.92001165 1.55212429 1.76937087 1.35133333 1.92001165 1.42703955 1.67616699 1.22568362 1.52506019 1.47574011 1.52506019"></polygon>
                                    <polygon id="Fill-21" fill="#FFFFFF" points="1.55212429 2.35921165 1.62647458 2.60247379 1.87743503 2.60247379 1.67664407 2.75451262 1.75212429 2.99730874 1.55212429 2.84911456 1.35133333 2.99730874 1.42703955 2.75451262 1.22568362 2.60247379 1.47574011 2.60247379"></polygon>
                                    <polygon id="Fill-22" fill="#FFFFFF" points="1.55212429 3.4380233 1.62647458 3.68221748 1.87743503 3.68221748 1.67664407 3.83285825 1.75212429 4.07693592 1.55212429 3.92629515 1.35133333 4.07693592 1.42703955 3.83285825 1.22568362 3.68221748 1.47574011 3.68221748"></polygon>
                                    <polygon id="Fill-23" fill="#FFFFFF" points="1.55212429 4.51774369 1.62647458 4.76100583 1.87743503 4.76100583 1.67664407 4.9116466 1.75212429 5.15467573 1.55212429 5.00380194 1.35133333 5.15467573 1.42703955 4.9116466 1.22568362 4.76100583 1.47574011 4.76100583"></polygon>
                                    <polygon id="Fill-24" fill="#FFFFFF" points="2.28813559 0.711996117 2.3659887 0.957704854 2.61536723 0.957704854 2.41367232 1.10834563 2.49163842 1.35253981 2.28813559 1.20189903 2.08858757 1.35253981 2.16519774 1.10834563 1.96305085 0.957704854 2.21175141 0.957704854"></polygon>
                                    <polygon id="Fill-25" fill="#FFFFFF" points="2.28813559 1.79079612 2.3659887 2.03499029 2.61536723 2.03499029 2.41367232 2.18563107 2.49163842 2.42994175 2.28813559 2.27906796 2.08858757 2.42994175 2.16519774 2.18563107 1.96305085 2.03499029 2.21175141 2.03499029"></polygon>
                                    <polygon id="Fill-26" fill="#FFFFFF" points="2.28813559 2.8705165 2.3659887 3.11354563 2.61536723 3.11354563 2.41367232 3.26441942 2.49163842 3.50966214 2.28813559 3.35773981 2.08858757 3.50966214 2.16519774 3.26441942 1.96305085 3.11354563 2.21175141 3.11354563"></polygon>
                                    <polygon id="Fill-27" fill="#FFFFFF" points="2.28813559 3.94796505 2.3659887 4.19215922 2.61536723 4.19215922 2.41367232 4.34303301 2.49163842 4.58711068 2.28813559 4.4364699 2.08858757 4.58711068 2.16519774 4.34303301 1.96305085 4.19215922 2.21175141 4.19215922"></polygon>
                                    <polygon id="Fill-28" fill="#FFFFFF" points="2.28813559 5.02654369 2.3659887 5.27178641 2.61536723 5.27178641 2.41367232 5.42161165 2.49163842 5.66568932 2.28813559 5.51481553 2.08858757 5.66568932 2.16519774 5.42161165 1.96305085 5.27178641 2.21175141 5.27178641"></polygon>
                                    <polygon id="Fill-29" fill="#FFFFFF" points="3.01752542 1.28086602 3.09413559 1.52506019 3.34475706 1.52506019 3.14181921 1.67616699 3.21967232 1.92001165 3.01752542 1.76937087 2.81650847 1.92001165 2.89436158 1.67616699 2.69108475 1.52506019 2.94068927 1.52506019"></polygon>
                                    <polygon id="Fill-30" fill="#FFFFFF" points="3.01752542 2.35921165 3.09413559 2.60247379 3.34475706 2.60247379 3.14181921 2.75451262 3.21967232 2.99730874 3.01752542 2.84911456 2.81650847 2.99730874 2.89436158 2.75451262 2.69108475 2.60247379 2.94068927 2.60247379"></polygon>
                                    <polygon id="Fill-31" fill="#FFFFFF" points="3.01752542 3.4380233 3.09413559 3.68221748 3.34475706 3.68221748 3.14181921 3.83285825 3.21967232 4.07693592 3.01752542 3.92629515 2.81650847 4.07693592 2.89436158 3.83285825 2.69108475 3.68221748 2.94068927 3.68221748"></polygon>
                                    <polygon id="Fill-32" fill="#FFFFFF" points="3.01752542 4.51774369 3.09413559 4.76100583 3.34475706 4.76100583 3.14181921 4.9116466 3.21967232 5.15467573 3.01752542 5.00380194 2.81650847 5.15467573 2.89436158 4.9116466 2.69108475 4.76100583 2.94068927 4.76100583"></polygon>
                                    <polygon id="Fill-33" fill="#FFFFFF" points="3.7559548 0.711996117 3.83380791 0.957704854 4.08081356 0.957704854 3.87889266 1.10834563 3.95900565 1.35253981 3.7559548 1.20189903 3.55380791 1.35253981 3.63041808 1.10834563 3.43064407 0.957704854 3.67911864 0.957704854"></polygon>
                                    <polygon id="Fill-34" fill="#FFFFFF" points="3.7559548 1.79079612 3.83380791 2.03499029 4.08081356 2.03499029 3.87889266 2.18563107 3.95900565 2.42994175 3.7559548 2.27906796 3.55380791 2.42994175 3.63041808 2.18563107 3.43064407 2.03499029 3.67911864 2.03499029"></polygon>
                                    <polygon id="Fill-35" fill="#FFFFFF" points="3.7559548 2.8705165 3.83380791 3.11354563 4.08081356 3.11354563 3.87889266 3.26441942 3.95900565 3.50966214 3.7559548 3.35773981 3.55380791 3.50966214 3.63041808 3.26441942 3.43064407 3.11354563 3.67911864 3.11354563"></polygon>
                                    <polygon id="Fill-36" fill="#FFFFFF" points="3.7559548 3.94796505 3.83380791 4.19215922 4.08081356 4.19215922 3.87889266 4.34303301 3.95900565 4.58711068 3.7559548 4.4364699 3.55380791 4.58711068 3.63041808 4.34303301 3.43064407 4.19215922 3.67911864 4.19215922"></polygon>
                                    <polygon id="Fill-37" fill="#FFFFFF" points="3.7559548 5.02654369 3.83380791 5.27178641 4.08081356 5.27178641 3.87889266 5.42161165 3.95900565 5.66568932 3.7559548 5.51481553 3.55380791 5.66568932 3.63041808 5.42161165 3.43064407 5.27178641 3.67911864 5.27178641"></polygon>
                                    <polygon id="Fill-38" fill="#FFFFFF" points="4.48490395 1.28086602 4.56151412 1.52506019 4.81021469 1.52506019 4.60942373 1.67616699 4.68467797 1.92001165 4.48490395 1.76937087 4.28411299 1.92001165 4.35936723 1.67616699 4.15846328 1.52506019 4.40705085 1.52506019"></polygon>
                                    <polygon id="Fill-39" fill="#FFFFFF" points="4.48490395 2.35921165 4.56151412 2.60247379 4.81021469 2.60247379 4.60942373 2.75451262 4.68467797 2.99730874 4.48490395 2.84911456 4.28411299 2.99730874 4.35936723 2.75451262 4.15846328 2.60247379 4.40705085 2.60247379"></polygon>
                                    <polygon id="Fill-40" fill="#FFFFFF" points="4.48490395 3.4380233 4.56151412 3.68221748 4.81021469 3.68221748 4.60942373 3.83285825 4.68467797 4.07693592 4.48490395 3.92629515 4.28411299 4.07693592 4.35936723 3.83285825 4.15846328 3.68221748 4.40705085 3.68221748"></polygon>
                                    <polygon id="Fill-41" fill="#FFFFFF" points="4.48490395 4.51774369 4.56151412 4.76100583 4.81021469 4.76100583 4.60942373 4.9116466 4.68467797 5.15467573 4.48490395 5.00380194 4.28411299 5.15467573 4.35936723 4.9116466 4.15846328 4.76100583 4.40705085 4.76100583"></polygon>
                                    <polygon id="Fill-42" fill="#FFFFFF" points="5.22091525 0.711996117 5.29876836 0.957704854 5.54735593 0.957704854 5.34645198 1.10834563 5.42441808 1.35253981 5.22091525 1.20189903 5.02114124 1.35253981 5.09684746 1.10834563 4.8960565 0.957704854 5.14453107 0.957704854"></polygon>
                                    <polygon id="Fill-43" fill="#FFFFFF" points="5.22091525 1.79079612 5.29876836 2.03499029 5.54735593 2.03499029 5.34645198 2.18563107 5.42441808 2.42994175 5.22091525 2.27906796 5.02114124 2.42994175 5.09684746 2.18563107 4.8960565 2.03499029 5.14453107 2.03499029"></polygon>
                                    <polygon id="Fill-44" fill="#FFFFFF" points="5.22091525 2.8705165 5.29876836 3.11354563 5.54735593 3.11354563 5.34645198 3.26441942 5.42441808 3.50966214 5.22091525 3.35773981 5.02114124 3.50966214 5.09684746 3.26441942 4.8960565 3.11354563 5.14453107 3.11354563"></polygon>
                                    <polygon id="Fill-45" fill="#FFFFFF" points="5.22091525 3.94796505 5.29876836 4.19215922 5.54735593 4.19215922 5.34645198 4.34303301 5.42441808 4.58711068 5.22091525 4.4364699 5.02114124 4.58711068 5.09684746 4.34303301 4.8960565 4.19215922 5.14453107 4.19215922"></polygon>
                                    <polygon id="Fill-46" fill="#FFFFFF" points="5.22091525 5.02654369 5.29876836 5.27178641 5.54735593 5.27178641 5.34645198 5.42161165 5.42441808 5.66568932 5.22091525 5.51481553 5.02114124 5.66568932 5.09684746 5.42161165 4.8960565 5.27178641 5.14453107 5.27178641"></polygon>
                                    <polygon id="Fill-47" fill="#FFFFFF" points="5.9500791 1.28086602 6.02691525 1.52506019 6.27753672 1.52506019 6.07538983 1.67616699 6.15222599 1.92001165 5.9500791 1.76937087 5.74928814 1.92001165 5.82714124 1.67616699 5.62522034 1.52506019 5.87459887 1.52506019"></polygon>
                                    <polygon id="Fill-48" fill="#FFFFFF" points="5.9500791 2.35921165 6.02691525 2.60247379 6.27753672 2.60247379 6.07538983 2.75451262 6.15222599 2.99730874 5.9500791 2.84911456 5.74928814 2.99730874 5.82714124 2.75451262 5.62522034 2.60247379 5.87459887 2.60247379"></polygon>
                                    <polygon id="Fill-49" fill="#FFFFFF" points="5.9500791 3.4380233 6.02691525 3.68221748 6.27753672 3.68221748 6.07538983 3.83285825 6.15222599 4.07693592 5.9500791 3.92629515 5.74928814 4.07693592 5.82714124 3.83285825 5.62522034 3.68221748 5.87459887 3.68221748"></polygon>
                                    <polygon id="Fill-50" fill="#FFFFFF" points="5.9500791 4.51774369 6.02691525 4.76100583 6.27753672 4.76100583 6.07538983 4.9116466 6.15222599 5.15467573 5.9500791 5.00380194 5.74928814 5.15467573 5.82714124 4.9116466 5.62522034 4.76100583 5.87459887 4.76100583"></polygon>
                                    <polygon id="Fill-51" fill="#FFFFFF" points="6.68851977 0.711996117 6.76614689 0.957704854 7.01496045 0.957704854 6.8140565 1.10834563 6.88953672 1.35253981 6.68851977 1.20189903 6.48874576 1.35253981 6.56422599 1.10834563 6.36320904 0.957704854 6.61168362 0.957704854"></polygon>
                                    <polygon id="Fill-52" fill="#FFFFFF" points="6.68851977 1.79079612 6.76614689 2.03499029 7.01496045 2.03499029 6.8140565 2.18563107 6.88953672 2.42994175 6.68851977 2.27906796 6.48874576 2.42994175 6.56422599 2.18563107 6.36320904 2.03499029 6.61168362 2.03499029"></polygon>
                                    <polygon id="Fill-53" fill="#FFFFFF" points="6.68851977 2.8705165 6.76614689 3.11354563 7.01496045 3.11354563 6.8140565 3.26441942 6.88953672 3.50966214 6.68851977 3.35773981 6.48874576 3.50966214 6.56422599 3.26441942 6.36320904 3.11354563 6.61168362 3.11354563"></polygon>
                                    <polygon id="Fill-54" fill="#FFFFFF" points="6.68851977 3.94796505 6.76614689 4.19215922 7.01496045 4.19215922 6.8140565 4.34303301 6.88953672 4.58711068 6.68851977 4.4364699 6.48874576 4.58711068 6.56422599 4.34303301 6.36320904 4.19215922 6.61168362 4.19215922"></polygon>
                                    <polygon id="Fill-55" fill="#FFFFFF" points="6.68851977 5.02654369 6.76614689 5.27178641 7.01496045 5.27178641 6.8140565 5.42161165 6.88953672 5.66568932 6.68851977 5.51481553 6.48874576 5.66568932 6.56422599 5.42161165 6.36320904 5.27178641 6.61168362 5.27178641"></polygon>
                                    <polygon id="Fill-56" fill="#FFFFFF" points="7.41768362 1.28086602 7.49293785 1.52506019 7.74276836 1.52506019 7.54299435 1.67616699 7.61745763 1.92001165 7.41768362 1.76937087 7.21463277 1.92001165 7.29214689 1.67616699 7.09259887 1.52506019 7.33983051 1.52506019"></polygon>
                                    <polygon id="Fill-57" fill="#FFFFFF" points="7.41768362 2.35921165 7.49293785 2.60247379 7.74276836 2.60247379 7.54299435 2.75451262 7.61745763 2.99730874 7.41768362 2.84911456 7.21463277 2.99730874 7.29214689 2.75451262 7.09259887 2.60247379 7.33983051 2.60247379"></polygon>
                                    <polygon id="Fill-58" fill="#FFFFFF" points="7.41768362 3.4380233 7.49293785 3.68221748 7.74276836 3.68221748 7.54299435 3.83285825 7.61745763 4.07693592 7.41768362 3.92629515 7.21463277 4.07693592 7.29214689 3.83285825 7.09259887 3.68221748 7.33983051 3.68221748"></polygon>
                                    <polygon id="Fill-59" fill="#FFFFFF" points="7.41768362 4.51774369 7.49293785 4.76100583 7.74276836 4.76100583 7.54299435 4.9116466 7.61745763 5.15467573 7.41768362 5.00380194 7.21463277 5.15467573 7.29214689 4.9116466 7.09259887 4.76100583 7.33983051 4.76100583"></polygon>
                                    <polygon id="Fill-60" fill="#FFFFFF" points="8.15369492 0.711996117 8.23267797 0.957704854 8.48013559 0.957704854 8.27923164 1.10834563 8.35697175 1.35253981 8.15369492 1.20189903 7.9539209 1.35253981 8.02940113 1.10834563 7.82861017 0.957704854 8.07708475 0.957704854"></polygon>
                                    <polygon id="Fill-61" fill="#FFFFFF" points="8.15369492 1.79079612 8.23267797 2.03499029 8.48013559 2.03499029 8.27923164 2.18563107 8.35697175 2.42994175 8.15369492 2.27906796 7.9539209 2.42994175 8.02940113 2.18563107 7.82861017 2.03499029 8.07708475 2.03499029"></polygon>
                                    <polygon id="Fill-62" fill="#FFFFFF" points="8.15369492 2.8705165 8.23267797 3.11354563 8.48013559 3.11354563 8.27923164 3.26441942 8.35697175 3.50966214 8.15369492 3.35773981 7.9539209 3.50966214 8.02940113 3.26441942 7.82861017 3.11354563 8.07708475 3.11354563"></polygon>
                                    <polygon id="Fill-63" fill="#FFFFFF" points="8.15369492 3.94796505 8.23267797 4.19215922 8.48013559 4.19215922 8.27923164 4.34303301 8.35697175 4.58711068 8.15369492 4.4364699 7.9539209 4.58711068 8.02940113 4.34303301 7.82861017 4.19215922 8.07708475 4.19215922"></polygon>
                                    <polygon id="Fill-64" fill="#FFFFFF" points="8.15369492 5.02654369 8.23267797 5.27178641 8.48013559 5.27178641 8.27923164 5.42161165 8.35697175 5.66568932 8.15369492 5.51481553 7.9539209 5.66568932 8.02940113 5.42161165 7.82861017 5.27178641 8.07708475 5.27178641"></polygon>
                                </g>
                            </g>
                        </g>
                    </g>
                </g>
            </g>
        </g>
    </g>
</svg>
