<?xml version="1.0" encoding="UTF-8"?>
<svg viewBox="0 0 20 12" version="1.1" xmlns="http://www.w3.org/2000/svg" xmlns:xlink="http://www.w3.org/1999/xlink">
    <!-- Generator: Sketch 54.1 (76490) - https://sketchapp.com -->
    <title>EUR Flag</title>
    <desc>Created with Sketch.</desc>
    <defs>
        <rect id="path-1" x="0" y="0" width="1280" height="843"></rect>
        <filter x="-2.5%" y="-1.9%" width="105.0%" height="107.6%" filterUnits="objectBoundingBox" id="filter-2">
            <feOffset dx="0" dy="16" in="SourceAlpha" result="shadowOffsetOuter1"></feOffset>
            <feGaussianBlur stdDeviation="8" in="shadowOffsetOuter1" result="shadowBlurOuter1"></feGaussianBlur>
            <feColorMatrix values="0 0 0 0 0   0 0 0 0 0   0 0 0 0 0  0 0 0 0.14 0" type="matrix" in="shadowBlurOuter1"></feColorMatrix>
        </filter>
        <rect id="path-3" x="0" y="0" width="500" height="566"></rect>
        <filter x="-6.4%" y="-2.8%" width="112.8%" height="111.3%" filterUnits="objectBoundingBox" id="filter-4">
            <feOffset dx="0" dy="16" in="SourceAlpha" result="shadowOffsetOuter1"></feOffset>
            <feGaussianBlur stdDeviation="8" in="shadowOffsetOuter1" result="shadowBlurOuter1"></feGaussianBlur>
            <feColorMatrix values="0 0 0 0 0   0 0 0 0 0   0 0 0 0 0  0 0 0 0.24 0" type="matrix" in="shadowBlurOuter1"></feColorMatrix>
        </filter>
    </defs>
    <g id="Page-1" stroke="none" stroke-width="1" fill="none" fill-rule="evenodd">
        <g id="08.2.-local_currency_Currencies" transform="translate(-671.000000, -370.000000)">
            <rect fill="#FFFFFF" x="0" y="0" width="1440" height="860"></rect>
            <g id="Wallet-GIGZI" transform="translate(80.000000, 60.000000)">
                <g id="Rectangle-19">
                    <use fill="black" fill-opacity="1" filter="url(#filter-2)" xlink:href="#path-1"></use>
                    <use fill="#F6F7F8" fill-rule="evenodd" xlink:href="#path-1"></use>
                </g>
                <g id="TRANSACTIONS" transform="translate(300.000000, 193.000000)">
                    <rect id="Rectangle" fill="#FFFFFF" x="0" y="0" width="540" height="567"></rect>
                    <g id="Date" transform="translate(0.000000, 122.000000)" fill="#F8FAFC" opacity="0.6">
                        <rect id="Rectangle" x="0" y="0" width="540" height="34"></rect>
                    </g>
                </g>
            </g>
            <g id="PopUp">
                <rect id="Rectangle-" fill="#000000" opacity="0.560000002" x="0" y="0" width="1440" height="860"></rect>
                <g id="PopUp-Block" transform="translate(470.000000, 147.000000)">
                    <g id="Rectangle">
                        <use fill="black" fill-opacity="1" filter="url(#filter-4)" xlink:href="#path-3"></use>
                        <use fill="#FFFFFF" fill-rule="evenodd" xlink:href="#path-3"></use>
                    </g>
                    <g id="Popular-Currencies" transform="translate(0.000000, 172.000000)">
                        <g id="1st-Line" transform="translate(20.000000, 49.000000)">
                            <g id="EUR" transform="translate(143.000000, 0.000000)">
                                <g id="EUR-Flag" transform="translate(38.000000, 2.000000)">
                                    <polygon id="Fill-1" fill="#243F9D" points="0 12 20 12 20 0 0 0"></polygon>
                                    <polygon id="Fill-2" fill="#FDEC00" points="9.9961 9.0293 10.1351 9.4403 10.5581 9.4393 10.2581 9.6673 10.3401 10.1083 9.9961 9.8573 9.6511 10.1013 9.7341 9.6673 9.4371 9.4383 9.8601 9.4383"></polygon>
                                    <polygon id="Fill-3" fill="#FDEC00" points="9.9961 1.8921 10.1351 2.3031 10.5581 2.3021 10.2581 2.5301 10.3401 2.9711 9.9961 2.7201 9.6511 2.9641 9.7341 2.5301 9.4371 2.3011 9.8601 2.3011"></polygon>
                                    <polygon id="Fill-4" fill="#FDEC00" points="11.7148 2.3511 11.8548 2.7621 12.2768 2.7611 11.9768 2.9891 12.0598 3.4301 11.7148 3.1791 11.3698 3.4231 11.4538 2.9891 11.1568 2.7601 11.5788 2.7601"></polygon>
                                    <polygon id="Fill-5" fill="#FDEC00" points="8.1938 2.3511 8.3328 2.7621 8.7558 2.7611 8.4558 2.9891 8.5378 3.4301 8.1938 3.1791 7.8488 3.4231 7.9328 2.9891 7.6348 2.7601 8.0578 2.7601"></polygon>
                                    <polygon id="Fill-6" fill="#FDEC00" points="11.7148 8.5469 11.8548 8.9579 12.2768 8.9579 11.9768 9.1849 12.0598 9.6259 11.7148 9.3759 11.3698 9.6189 11.4538 9.1849 11.1568 8.9559 11.5788 8.9559"></polygon>
                                    <polygon id="Fill-7" fill="#FDEC00" points="8.1938 8.5469 8.3328 8.9579 8.7558 8.9579 8.4558 9.1849 8.5378 9.6259 8.1938 9.3759 7.8488 9.6189 7.9328 9.1849 7.6348 8.9559 8.0578 8.9559"></polygon>
                                    <polygon id="Fill-8" fill="#FDEC00" points="6.8774 3.6978 7.0164 4.1088 7.4394 4.1088 7.1384 4.3358 7.2214 4.7768 6.8774 4.5268 6.5324 4.7698 6.6154 4.3358 6.3184 4.1068 6.7414 4.1068"></polygon>
                                    <polygon id="Fill-9" fill="#FDEC00" points="13.0752 3.6978 13.2142 4.1088 13.6372 4.1088 13.3372 4.3358 13.4192 4.7768 13.0752 4.5268 12.7302 4.7698 12.8132 4.3358 12.5162 4.1068 12.9392 4.1068"></polygon>
                                    <polygon id="Fill-10" fill="#FDEC00" points="6.8774 7.2607 7.0164 7.6707 7.4394 7.6707 7.1384 7.8987 7.2214 8.3387 6.8774 8.0887 6.5324 8.3317 6.6154 7.8987 6.3184 7.6687 6.7414 7.6687"></polygon>
                                    <polygon id="Fill-11" fill="#FDEC00" points="13.0752 7.2607 13.2142 7.6707 13.6372 7.6707 13.3372 7.8987 13.4192 8.3387 13.0752 8.0887 12.7302 8.3317 12.8132 7.8987 12.5162 7.6687 12.9392 7.6687"></polygon>
                                    <polygon id="Fill-12" fill="#FDEC00" points="6.4683 5.4658 6.6073 5.8768 7.0303 5.8758 6.7303 6.1038 6.8123 6.5448 6.4683 6.2948 6.1233 6.5378 6.2063 6.1038 5.9093 5.8748 6.3323 5.8748"></polygon>
                                    <polygon id="Fill-13" fill="#FDEC00" points="13.5283 5.4658 13.6673 5.8768 14.0903 5.8758 13.7903 6.1038 13.8733 6.5448 13.5283 6.2948 13.1833 6.5378 13.2663 6.1038 12.9693 5.8748 13.3923 5.8748"></polygon>
                                </g>
                            </g>
                        </g>
                    </g>
                </g>
            </g>
        </g>
    </g>
</svg>
