<?xml version="1.0" encoding="UTF-8"?>
<svg viewBox="0 0 20 12" version="1.1" xmlns="http://www.w3.org/2000/svg" xmlns:xlink="http://www.w3.org/1999/xlink">
    <!-- Generator: Sketch 54.1 (76490) - https://sketchapp.com -->
    <title>INR Flag</title>
    <desc>Created with Sketch.</desc>
    <defs>
        <rect id="path-1" x="0" y="0" width="1280" height="843"></rect>
        <filter x="-2.5%" y="-1.9%" width="105.0%" height="107.6%" filterUnits="objectBoundingBox" id="filter-2">
            <feOffset dx="0" dy="16" in="SourceAlpha" result="shadowOffsetOuter1"></feOffset>
            <feGaussianBlur stdDeviation="8" in="shadowOffsetOuter1" result="shadowBlurOuter1"></feGaussianBlur>
            <feColorMatrix values="0 0 0 0 0   0 0 0 0 0   0 0 0 0 0  0 0 0 0.14 0" type="matrix" in="shadowBlurOuter1"></feColorMatrix>
        </filter>
        <rect id="path-3" x="0" y="0" width="500" height="566"></rect>
        <filter x="-6.4%" y="-2.8%" width="112.8%" height="111.3%" filterUnits="objectBoundingBox" id="filter-4">
            <feOffset dx="0" dy="16" in="SourceAlpha" result="shadowOffsetOuter1"></feOffset>
            <feGaussianBlur stdDeviation="8" in="shadowOffsetOuter1" result="shadowBlurOuter1"></feGaussianBlur>
            <feColorMatrix values="0 0 0 0 0   0 0 0 0 0   0 0 0 0 0  0 0 0 0.24 0" type="matrix" in="shadowBlurOuter1"></feColorMatrix>
        </filter>
    </defs>
    <g id="Page-1" stroke="none" stroke-width="1" fill="none" fill-rule="evenodd">
        <g id="08.2.-local_currency_Currencies" transform="translate(-671.000000, -416.000000)">
            <rect fill="#FFFFFF" x="0" y="0" width="1440" height="860"></rect>
            <g id="Wallet-GIGZI" transform="translate(80.000000, 60.000000)">
                <g id="Rectangle-19">
                    <use fill="black" fill-opacity="1" filter="url(#filter-2)" xlink:href="#path-1"></use>
                    <use fill="#F6F7F8" fill-rule="evenodd" xlink:href="#path-1"></use>
                </g>
                <g id="TRANSACTIONS" transform="translate(300.000000, 193.000000)">
                    <rect id="Rectangle" fill="#FFFFFF" x="0" y="0" width="540" height="567"></rect>
                    <g id="Converted-GZG" transform="translate(0.000000, 169.000000)" fill="#212121" font-family="Montserrat-Medium, Montserrat" font-size="15" font-weight="400">
                        <text id="Converted-GZG-to-GZB">
                            <tspan x="58" y="17">Converted GZG to GZB </tspan>
                        </text>
                    </g>
                </g>
            </g>
            <g id="PopUp">
                <rect id="Rectangle-" fill="#000000" opacity="0.560000002" x="0" y="0" width="1440" height="860"></rect>
                <g id="PopUp-Block" transform="translate(470.000000, 147.000000)">
                    <g id="Rectangle">
                        <use fill="black" fill-opacity="1" filter="url(#filter-4)" xlink:href="#path-3"></use>
                        <use fill="#FFFFFF" fill-rule="evenodd" xlink:href="#path-3"></use>
                    </g>
                    <g id="Popular-Currencies" transform="translate(0.000000, 172.000000)">
                        <g id="2nd-Line" transform="translate(20.000000, 95.000000)">
                            <g id="INR" transform="translate(143.000000, 0.000000)">
                                <g id="INR-Flag" transform="translate(38.000000, 2.000000)">
                                    <polygon id="Fill-1" fill="#FEFEFE" points="0 12 20 12 20 0 0 0"></polygon>
                                    <polygon id="Fill-2" fill="#EF953D" points="0 4.001 20 4.001 20 0 0 0"></polygon>
                                    <polygon id="Fill-3" fill="#3D8A40" points="0 12 20 12 20 8.002 0 8.002"></polygon>
                                    <g id="Group-10" transform="translate(8.000000, 4.000000)">
                                        <path d="M1.999,0.377 L1.955,1.281 L2.002,1.797 L2.047,1.281 L2.002,0.377 C2.049,0.377 2.093,0.379 2.138,0.384 C2.138,0.387 2.135,0.387 2.135,0.389 C2.135,0.432 2.168,0.468 2.207,0.468 C2.244,0.468 2.274,0.437 2.278,0.4 C2.322,0.41 2.364,0.417 2.407,0.432 L2.138,1.294 L2.051,1.804 L2.226,1.315 L2.412,0.432 C2.454,0.446 2.496,0.458 2.538,0.475 C2.535,0.482 2.532,0.491 2.532,0.501 C2.532,0.542 2.564,0.575 2.605,0.575 C2.633,0.575 2.661,0.557 2.672,0.53 C2.711,0.549 2.75,0.57 2.789,0.595 L2.311,1.352 L2.099,1.825 L2.391,1.401 L2.793,0.597 C2.829,0.618 2.866,0.643 2.903,0.666 C2.893,0.681 2.887,0.695 2.887,0.714 C2.887,0.755 2.92,0.788 2.96,0.788 C2.983,0.788 3.005,0.779 3.018,0.758 C3.052,0.788 3.085,0.819 3.115,0.851 L2.463,1.456 L2.141,1.856 L2.528,1.526 L3.118,0.854 C3.148,0.887 3.179,0.918 3.207,0.954 C3.189,0.968 3.182,0.989 3.182,1.011 C3.182,1.052 3.214,1.085 3.252,1.085 C3.27,1.085 3.282,1.081 3.296,1.071 C3.322,1.109 3.346,1.148 3.366,1.186 L2.584,1.598 L2.172,1.899 L2.63,1.684 L3.369,1.189 C3.394,1.231 3.413,1.277 3.433,1.315 C3.408,1.327 3.389,1.356 3.389,1.387 C3.389,1.428 3.421,1.461 3.46,1.461 C3.471,1.461 3.479,1.459 3.487,1.454 C3.501,1.497 3.515,1.538 3.524,1.581 L2.665,1.768 L2.193,1.947 L2.689,1.861 L3.527,1.586 C3.537,1.624 3.548,1.672 3.556,1.715 C3.52,1.72 3.493,1.749 3.493,1.789 C3.493,1.83 3.527,1.863 3.566,1.863 L3.573,1.863 C3.578,1.906 3.578,1.954 3.578,1.998 L2.7,1.954 L2.198,2 L2.7,2.05 L3.578,2.002 C3.578,2.05 3.578,2.096 3.573,2.139 L3.566,2.139 C3.527,2.139 3.493,2.175 3.493,2.213 C3.493,2.251 3.52,2.28 3.555,2.287 C3.547,2.333 3.537,2.376 3.527,2.419 L3.228,2.321 L2.689,2.142 L2.193,2.055 L2.195,2.055 L2.193,2.055 L2.665,2.234 L3.524,2.424 C3.515,2.467 3.501,2.513 3.485,2.551 C3.482,2.551 3.478,2.548 3.476,2.548 L3.46,2.548 C3.419,2.548 3.386,2.579 3.386,2.622 C3.386,2.635 3.389,2.642 3.394,2.651 C3.396,2.663 3.403,2.673 3.413,2.68 C3.415,2.68 3.416,2.683 3.419,2.683 C3.421,2.685 3.424,2.688 3.426,2.688 C3.427,2.688 3.43,2.69 3.431,2.692 C3.412,2.732 3.391,2.773 3.369,2.812 L2.631,2.321 L2.63,2.321 L2.172,2.106 L2.175,2.106 L2.414,2.277 L2.584,2.402 L3.366,2.815 C3.343,2.855 3.32,2.896 3.294,2.932 C3.282,2.924 3.268,2.919 3.252,2.919 C3.212,2.919 3.18,2.95 3.18,2.991 C3.18,3.016 3.189,3.037 3.207,3.049 C3.178,3.082 3.148,3.116 3.118,3.147 L2.528,2.477 L2.142,2.147 L2.463,2.546 L3.115,3.151 C3.085,3.186 3.055,3.212 3.02,3.24 C3.007,3.229 2.991,3.224 2.976,3.224 C2.936,3.224 2.903,3.26 2.903,3.298 C2.903,3.313 2.905,3.321 2.909,3.331 C2.87,3.356 2.831,3.382 2.793,3.408 L2.391,2.604 L2.099,2.177 L2.31,2.648 L2.788,3.41 C2.75,3.432 2.711,3.453 2.672,3.473 C2.661,3.443 2.636,3.427 2.606,3.427 C2.565,3.427 2.533,3.463 2.533,3.501 C2.533,3.511 2.535,3.521 2.538,3.53 C2.496,3.544 2.455,3.559 2.412,3.568 L2.226,2.683 L2.051,2.201 L2.051,2.199 L2.138,2.709 L2.407,3.57 C2.364,3.583 2.321,3.595 2.278,3.6 C2.272,3.565 2.242,3.537 2.207,3.537 C2.165,3.537 2.135,3.57 2.135,3.609 L2.135,3.618 C2.091,3.623 2.047,3.626 2.002,3.626 L2.047,2.723 L2,2.206 L1.955,2.723 L1.999,3.626 C1.952,3.626 1.909,3.623 1.864,3.618 L1.864,3.609 C1.864,3.57 1.831,3.537 1.79,3.537 C1.756,3.537 1.726,3.565 1.72,3.6 C1.677,3.592 1.635,3.583 1.594,3.57 L1.864,2.709 L1.947,2.201 L1.773,2.683 L1.589,3.568 C1.547,3.559 1.506,3.544 1.462,3.53 C1.466,3.521 1.468,3.511 1.468,3.501 C1.468,3.463 1.436,3.427 1.397,3.427 C1.367,3.427 1.341,3.446 1.328,3.473 C1.29,3.453 1.25,3.432 1.212,3.41 L1.69,2.648 L1.9,2.177 L1.609,2.601 L1.209,3.408 C1.17,3.382 1.132,3.357 1.096,3.331 C1.103,3.321 1.109,3.308 1.109,3.29 C1.109,3.247 1.077,3.214 1.039,3.214 C1.015,3.214 0.994,3.226 0.982,3.242 C0.948,3.212 0.915,3.186 0.885,3.151 L1.539,2.546 L1.86,2.147 L1.473,2.477 L0.883,3.147 C0.851,3.116 0.821,3.08 0.792,3.049 C0.809,3.034 0.82,3.013 0.82,2.989 C0.82,2.948 0.787,2.917 0.748,2.917 C0.731,2.917 0.716,2.922 0.705,2.929 C0.679,2.894 0.655,2.855 0.634,2.815 L1.418,2.399 L1.826,2.106 L1.369,2.321 L0.631,2.812 C0.609,2.773 0.592,2.735 0.572,2.692 C0.6,2.683 0.618,2.656 0.618,2.625 C0.618,2.582 0.587,2.548 0.545,2.548 C0.535,2.548 0.524,2.551 0.515,2.556 C0.501,2.515 0.487,2.47 0.475,2.424 L1.335,2.234 L1.81,2.055 L1.311,2.142 L0.473,2.419 C0.461,2.376 0.453,2.333 0.444,2.285 C0.48,2.28 0.507,2.251 0.507,2.213 C0.507,2.173 0.475,2.139 0.435,2.139 L0.427,2.139 C0.424,2.096 0.421,2.05 0.421,2.002 L1.3,2.05 L1.801,2 L1.3,1.954 L0.421,1.998 C0.421,1.954 0.424,1.906 0.427,1.863 L0.439,1.863 C0.478,1.863 0.512,1.832 0.512,1.789 C0.512,1.749 0.482,1.72 0.444,1.715 C0.453,1.672 0.461,1.624 0.473,1.586 L1.311,1.861 L1.81,1.947 L1.335,1.768 L0.475,1.579 C0.487,1.533 0.501,1.49 0.515,1.449 C0.521,1.452 0.533,1.454 0.542,1.454 C0.582,1.454 0.614,1.421 0.614,1.38 C0.614,1.349 0.595,1.322 0.57,1.313 C0.59,1.27 0.609,1.23 0.631,1.189 L1.369,1.684 L1.829,1.899 L1.418,1.598 L0.634,1.186 C0.655,1.148 0.681,1.109 0.706,1.068 C0.716,1.081 0.733,1.085 0.749,1.085 C0.787,1.085 0.821,1.052 0.821,1.011 C0.821,0.989 0.81,0.968 0.794,0.951 C0.821,0.918 0.851,0.887 0.882,0.854 L1.472,1.526 L1.86,1.856 L1.539,1.456 L0.885,0.851 C0.918,0.819 0.949,0.788 0.982,0.76 C0.994,0.776 1.016,0.788 1.039,0.788 C1.079,0.788 1.112,0.755 1.112,0.712 C1.112,0.695 1.105,0.681 1.097,0.666 C1.134,0.645 1.17,0.618 1.209,0.597 L1.609,1.401 L1.9,1.823 L1.69,1.352 L1.212,0.595 C1.25,0.57 1.289,0.549 1.327,0.53 C1.339,0.559 1.364,0.578 1.395,0.578 C1.436,0.578 1.467,0.544 1.467,0.506 C1.467,0.494 1.465,0.482 1.462,0.475 C1.503,0.458 1.547,0.446 1.589,0.432 L1.775,1.315 L1.95,1.804 L1.865,1.294 L1.595,0.432 C1.637,0.417 1.679,0.41 1.723,0.4 C1.728,0.437 1.758,0.465 1.794,0.465 C1.835,0.465 1.867,0.432 1.867,0.389 L1.867,0.382 C1.91,0.377 1.955,0.377 1.999,0.377 M2,0.202 C1.034,0.202 0.25,1.007 0.25,2 C0.25,2.993 1.034,3.801 2,3.801 C2.966,3.801 3.75,2.993 3.75,2 C3.749,1.007 2.966,0.202 2,0.202" id="Fill-4" fill="#2A2773"></path>
                                        <path d="M2.0019,1.7314 C2.1469,1.7314 2.2629,1.8534 2.2629,2.0004 C2.2629,2.1484 2.1469,2.2704 2.0019,2.2704 C1.8559,2.2704 1.7389,2.1484 1.7389,2.0004 C1.7389,1.8534 1.8559,1.7314 2.0019,1.7314" id="Fill-6" fill="#FEFEFE"></path>
                                        <path d="M2.0019,1.7939 C2.1129,1.7939 2.2039,1.8849 2.2039,1.9999 C2.2039,2.1169 2.1129,2.2109 2.0019,2.2109 C1.8899,2.2109 1.7979,2.1169 1.7979,1.9999 C1.7979,1.8849 1.8899,1.7939 2.0019,1.7939" id="Fill-8" fill="#2A2773"></path>
                                    </g>
                                </g>
                            </g>
                        </g>
                    </g>
                </g>
            </g>
        </g>
    </g>
</svg>
