<?xml version="1.0" encoding="UTF-8"?>
<svg viewBox="0 0 20 12" version="1.1" xmlns="http://www.w3.org/2000/svg" xmlns:xlink="http://www.w3.org/1999/xlink">
    <!-- Generator: Sketch 54.1 (76490) - https://sketchapp.com -->
    <title>Group 27</title>
    <desc>Created with Sketch.</desc>
    <defs>
        <rect id="path-1" x="0" y="0" width="1280" height="843"></rect>
        <filter x="-2.5%" y="-1.9%" width="105.0%" height="107.6%" filterUnits="objectBoundingBox" id="filter-2">
            <feOffset dx="0" dy="16" in="SourceAlpha" result="shadowOffsetOuter1"></feOffset>
            <feGaussianBlur stdDeviation="8" in="shadowOffsetOuter1" result="shadowBlurOuter1"></feGaussianBlur>
            <feColorMatrix values="0 0 0 0 0   0 0 0 0 0   0 0 0 0 0  0 0 0 0.14 0" type="matrix" in="shadowBlurOuter1"></feColorMatrix>
        </filter>
        <rect id="path-3" x="0" y="0" width="500" height="566"></rect>
        <filter x="-6.4%" y="-2.8%" width="112.8%" height="111.3%" filterUnits="objectBoundingBox" id="filter-4">
            <feOffset dx="0" dy="16" in="SourceAlpha" result="shadowOffsetOuter1"></feOffset>
            <feGaussianBlur stdDeviation="8" in="shadowOffsetOuter1" result="shadowBlurOuter1"></feGaussianBlur>
            <feColorMatrix values="0 0 0 0 0   0 0 0 0 0   0 0 0 0 0  0 0 0 0.24 0" type="matrix" in="shadowBlurOuter1"></feColorMatrix>
        </filter>
    </defs>
    <g id="Page-1" stroke="none" stroke-width="1" fill="none" fill-rule="evenodd">
        <g id="08.2.-local_currency_Currencies" transform="translate(-671.000000, -569.000000)">
            <rect fill="#FFFFFF" x="0" y="0" width="1440" height="860"></rect>
            <g id="Wallet-GIGZI" transform="translate(80.000000, 60.000000)">
                <g id="Rectangle-19">
                    <use fill="black" fill-opacity="1" filter="url(#filter-2)" xlink:href="#path-1"></use>
                    <use fill="#F6F7F8" fill-rule="evenodd" xlink:href="#path-1"></use>
                </g>
                <g id="TRANSACTIONS" transform="translate(300.000000, 193.000000)">
                    <rect id="Rectangle" fill="#FFFFFF" x="0" y="0" width="540" height="567"></rect>
                    <g id="Sent-Gigzi-Black" transform="translate(0.000000, 314.000000)"></g>
                </g>
            </g>
            <g id="PopUp">
                <rect id="Rectangle-" fill="#000000" opacity="0.560000002" x="0" y="0" width="1440" height="860"></rect>
                <g id="PopUp-Block" transform="translate(470.000000, 147.000000)">
                    <g id="Rectangle">
                        <use fill="black" fill-opacity="1" filter="url(#filter-4)" xlink:href="#path-3"></use>
                        <use fill="#FFFFFF" fill-rule="evenodd" xlink:href="#path-3"></use>
                    </g>
                    <g id="All-Currencies" transform="translate(0.000000, 371.000000)">
                        <g id="4th-Line" transform="translate(20.000000, 49.000000)">
                            <g id="Group-27" transform="translate(181.000000, 2.000000)">
                                <polygon id="Fill-1" fill="#D02029" points="0 12 20 12 20 0 0 0"></polygon>
                                <g id="Group-26" transform="translate(2.000000, 2.000000)">
                                    <path d="M3.8336,0.9995 C5.4436,0.9995 6.7506,2.3425 6.7506,3.9995 C6.7506,5.6555 5.4436,6.9985 3.8336,6.9985 C2.2236,6.9985 0.9176,5.6555 0.9176,3.9995 C0.9176,2.3425 2.2236,0.9995 3.8336,0.9995" id="Fill-2" fill="#FEFEFE"></path>
                                    <path d="M4.5626,1.5976 C5.8526,1.5976 6.8966,2.6746 6.8966,3.9986 C6.8966,5.3256 5.8526,6.3996 4.5626,6.3996 C3.2736,6.3996 2.2296,5.3256 2.2296,3.9986 C2.2296,2.6746 3.2736,1.5976 4.5626,1.5976" id="Fill-4" fill="#D02029"></path>
                                    <polygon id="Fill-6" fill="#FEFEFE" points="6.2989 3.999 7.6839 4.463 7.9089 3.747"></polygon>
                                    <polygon id="Fill-8" fill="#FEFEFE" points="6.2989 3.999 7.6839 3.537 7.9089 4.25"></polygon>
                                    <polygon id="Fill-10" fill="#FEFEFE" points="7.3057 2.5723 7.3057 4.0733 8.0347 4.0733"></polygon>
                                    <polygon id="Fill-12" fill="#FEFEFE" points="7.3057 2.5723 8.1617 3.7863 7.5747 4.2263"></polygon>
                                    <polygon id="Fill-14" fill="#FEFEFE" points="7.3057 5.4277 8.1617 4.2117 7.5747 3.7717"></polygon>
                                    <polygon id="Fill-16" fill="#FEFEFE" points="7.3057 5.4277 7.3057 3.9247 8.0347 3.9247"></polygon>
                                    <polygon id="Fill-18" fill="#FEFEFE" points="8.9356 3.1201 7.5506 3.5801 7.7766 4.2931"></polygon>
                                    <polygon id="Fill-20" fill="#FEFEFE" points="8.9356 3.1201 8.0796 4.3321 7.4886 3.8911"></polygon>
                                    <polygon id="Fill-22" fill="#FEFEFE" points="8.9356 4.8818 8.0796 3.6688 7.4886 4.1098"></polygon>
                                    <polygon id="Fill-24" fill="#FEFEFE" points="8.9356 4.8818 7.5506 4.4178 7.7766 3.7038"></polygon>
                                </g>
                            </g>
                        </g>
                    </g>
                </g>
            </g>
        </g>
    </g>
</svg>
