<svg height="16" viewBox="0 0 18 16" width="18" xmlns="http://www.w3.org/2000/svg" fill-rule="evenodd"  stroke="#fff" stroke-width=".25"><path d="m16.66 6.66 1.18-3c.0635127-.19606109-.0439389-.40648725-.24-.47s-.4064873.04393891-.47.24l-.84 2.12c-1.1258791-3.27471583-4.2577018-5.43065979-7.71857331-5.31345896-3.46087149.11720082-6.43966641 2.48007805-7.34142669 5.82345896-.0454882.19508264.06827214.39197553.26.45.10198422.03752823.2150016.03080384.31181629-.01855267s.1686461-.13686875.19818371-.24144733c.83071531-3.00388418 3.51618247-5.12012199 6.63103533-5.22547731 3.11485287-.10535532 5.93717617 1.82458958 6.96896467 4.76547731l-2-.92c-.1877768-.08284271-.4071573.00222319-.49.19s.0022232.40715729.19.49l2.88 1.31c.0934388.03532855.1965612.03532855.29 0 .0855837-.04129334.1531469-.11241253.19-.2z"/><path d="m.37 12.79c.1904535.0672395.39963943-.0306773.47-.22l.85-2.12c1.15541415 3.225119 4.26221458 5.3342158 7.68607536 5.2178046 3.42386074-.1164113 6.38023354-2.4316561 7.31392464-5.7278046.0273484-.09421544.0150619-.19551127-.0340176-.2804565-.0490795-.08494522-.1307002-.14618128-.2259824-.1695435-.1950826-.0454882-.3919755.06827214-.45.26-.8207378 3.0246348-3.5179299 5.160481-6.6501604 5.2661134-3.13223054.1056324-5.96719076-1.8436456-6.9898396-4.8061134l2 .92c.19054299.0767268.407568-.0118549.49-.2.0396473-.0913755.04077843-.1948769.00313757-.287097-.03764087-.0922201-.11087404-.1653687-.20313757-.202903l-2.8-1.3c-.0934388-.03532855-.1965612-.03532855-.29 0-.09495609.03956504-.17043496.11504391-.21.21l-1.18 3c-.04890272.1812394.04566681.3703785.22.44z"/></svg>