<svg viewBox="0 0 28 32" version="1.1"
    xmlns="http://www.w3.org/2000/svg"
    xmlns:xlink="http://www.w3.org/1999/xlink">
    <defs>
        <radialGradient cx="50.3836452%" cy="55.4463992%" fx="50.3836452%" fy="55.4463992%" r="75.7688808%" gradientTransform="translate(0.503836,0.554464),scale(1.000000,0.870413),rotate(-90.000000),translate(-0.503836,-0.554464)" id="radialGradient-1">
            <stop stop-color="#FFFFFF" stop-opacity="0.51" offset="0%"></stop>
            <stop stop-color="#232C37" offset="100%"></stop>
        </radialGradient>
        <linearGradient x1="48.5378753%" y1="1.42589648%" x2="48.5378753%" y2="140.327681%" id="linearGradient-2">
            <stop stop-color="#FFFFFF" offset="0%"></stop>
            <stop stop-color="#252F3B" offset="100%"></stop>
        </linearGradient>
    </defs>
    <path d="M14.4258333,0.173211009 L27.1979167,7.58899083 C27.5387089,7.78703641 27.7487943,8.15289947 27.7491667,8.54899083 L27.7491667,23.3805505 C27.7487943,23.7766418 27.5387089,24.1425049 27.1979167,24.3405505 L14.4258333,31.7563303 C14.0847186,31.9545635 13.664448,31.9545635 13.3233333,31.7563303 L0.55125,24.3405505 C0.21045781,24.1425049 0.000372380071,23.7766418 0,23.3805505 L0,8.54899083 C0.000372380071,8.15289947 0.21045781,7.78703641 0.55125,7.58899083 L13.3233333,0.173211009 C13.664448,-0.0250222282 14.0847186,-0.0250222282 14.4258333,0.173211009 Z"></path>
    <path d="M14.4258333,0.173211009 L27.1979167,7.58899083 C27.5387089,7.78703641 27.7487943,8.15289947 27.7491667,8.54899083 L27.7491667,23.3805505 C27.7487943,23.7766418 27.5387089,24.1425049 27.1979167,24.3405505 L14.4258333,31.7563303 C14.0847186,31.9545635 13.664448,31.9545635 13.3233333,31.7563303 L0.55125,24.3405505 C0.21045781,24.1425049 0.000372380071,23.7766418 0,23.3805505 L0,8.54899083 C0.000372380071,8.15289947 0.21045781,7.78703641 0.55125,7.58899083 L13.3233333,0.173211009 C13.664448,-0.0250222282 14.0847186,-0.0250222282 14.4258333,0.173211009 Z" fill-opacity="0.34" fill="url(#radialGradient-1)"></path>
    <path d="M10.36875,2.58055046 L9.40916667,5.03192661 L18.7308333,0 L10.36875,2.58055046 Z M0.0175,0 L9.33333333,5.03192661 L8.37375,2.58055046 L0.0175,0 Z M9.77083333,5.66018349 L12.355,6.04770642 L18.75125,0.0293577982 L9.77083333,5.66018349 Z M6.39625,6.0506422 L8.98041667,5.66311927 L0,0.032293578 L6.39625,6.0506422 Z M9.40041667,16.6194495 L11.3225,7.11926606 L9.73,6.13284404 L9.40041667,16.6194495 Z M7.4375,7.10752294 L9.3625,16.6077064 L9.04166667,6.1240367 L7.4375,7.10752294 Z" fill="url(#linearGradient-2)" transform="translate(4.375000, 10.862385)"></path>
</svg>
