<svg  viewBox="0 0 28 32"
    xmlns="http://www.w3.org/2000/svg"
    xmlns:xlink="http://www.w3.org/1999/xlink">
    <radialGradient id="a" cx="51.016397%" cy="35.491126%" gradientTransform="matrix(0 -.875 1 0 .155253 .801304)" r="75.371657%">
        <stop offset="0" stop-color="#fff"/>
        <stop offset="1" stop-color="#232c37"/>
    </radialGradient>
    <linearGradient id="b" x1="52.035229%" x2="52.035229%" y1="4.314522%" y2="104.296941%">
        <stop offset="0" stop-color="#0d1116"/>
        <stop offset="1" stop-color="#252f3b"/>
    </linearGradient>
    <path d="m14.5562329.14923236 12.8875342 7.44358414c.3438727.19878812.5558572.56602293.5562329.96359937v14.88716823c-.0003757.3975765-.2123602.7648113-.5562329.9635994l-12.8875342 7.4435841c-.3441981.1989765-.7682677.1989765-1.1124658 0l-12.88753418-7.4435841c-.34387272-.1987881-.55585717-.5660229-.55623292-.9635994v-14.88716823c.00037575-.39757644.2123602-.76481125.55623292-.96359937l12.88753418-7.44358414c.3441981-.19897648.7682677-.19897648 1.1124658 0z"/>
    <path d="m14.5562329.14923236 12.8875342 7.44358414c.3438727.19878812.5558572.56602293.5562329.96359937v14.88716823c-.0003757.3975765-.2123602.7648113-.5562329.9635994l-12.8875342 7.4435841c-.3441981.1989765-.7682677.1989765-1.1124658 0l-12.88753418-7.4435841c-.34387272-.1987881-.55585717-.5660229-.55623292-.9635994v-14.88716823c.00037575-.39757644.2123602-.76481125.55623292-.96359937l12.88753418-7.44358414c.3441981-.19897648.7682677-.19897648 1.1124658 0z" fill="url(#a)" fill-opacity=".34"/>
    <path d="m9.35384615 5.46931034 1.04938465-2.67896551 8.4184615-2.58810345.0584615.14068965zm-9.31292307-5.12344827.05846154-.14068966 8.41846153 2.58810345 1.04938462 2.67896552zm12.42307692 6.05258621-2.81784615-.425 9.17846155-5.73017242.0935384.12017242zm-3.18615385-.425-2.84707692.425-6.43076923-6.03206897.09353846-.12017241zm.2923077 10.90051722-.152-.0175862.33615384-10.60155171 1.75384611 1.08155172zm-2.14261539-9.54637929 1.75384616-1.08155173.33615384 10.60155172-.152.0175862z" fill="url(#b)" stroke="#fff" stroke-opacity=".1" stroke-width=".5" transform="translate(4.5 10)"/>
</svg>
