<svg viewBox="0 0 28 32"
    xmlns="http://www.w3.org/2000/svg"
    xmlns:xlink="http://www.w3.org/1999/xlink">
    <defs>
    <radialGradient id="a" cx="49.999973%" cy="35.2277%" gradientTransform="matrix(0 -.875 1 0 .147723 .789777)" r="75.122648%">
        <stop offset="0" stop-color="#fff"/>
        <stop offset="1" stop-color="#232c37"/>
    </radialGradient>
    <linearGradient id="b" x1="50%" x2="50%" y1="0%" y2="100%">
        <stop offset="0" stop-color="#0d1116"/>
        <stop offset="1" stop-color="#252f3b"/>
    </linearGradient>
    </defs>
        <path d="m14.5558562.14901579 12.8875676 7.44350532c.3443906.1989106.5565762.56672704.5565762.96480586v14.88534613c0 .3980789-.2121856.7658953-.5565762.9648059l-12.8875676 7.4435054c-.3440048.1986875-.7677076.1986875-1.1117124 0l-12.88756758-7.4435054c-.34439065-.1989106-.55657622-.566727-.55657622-.9648059v-14.88534613c0-.39807882.21218557-.76589526.55657622-.96480586l12.88756758-7.44350532c.3440048-.19868772.7677076-.19868772 1.1117124 0z" />
        <path d="m14.5558562.14901579 12.8875676 7.44350532c.3443906.1989106.5565762.56672704.5565762.96480586v14.88534613c0 .3980789-.2121856.7658953-.5565762.9648059l-12.8875676 7.4435054c-.3440048.1986875-.7677076.1986875-1.1117124 0l-12.88756758-7.4435054c-.34439065-.1989106-.55657622-.566727-.55657622-.9648059v-14.88534613c0-.39807882.21218557-.76589526.55657622-.96480586l12.88756758-7.44350532c.3440048-.19868772.7677076-.19868772 1.1117124 0z" fill="url(#a)" fill-opacity=".34"/>
        <path d="m9.43009062 5.4843282 1.03436578-2.67775547 8.2894907-2.58703074.0578653.14136364zm-9.15965138-5.12342227.0578647-.14136394 8.2894878 2.58702981 1.03457102 2.67776405zm12.23527366 6.0534-2.78952408-.42476331 9.03824318-5.72934496.0915366.1215291zm-3.13946023-.42476194-2.78971479.42476162-6.34025541-6.03257885.09153604-.12152948zm.27356853 10.90020061-.14957712-.0177992.33019423-10.60037114 1.72779439 1.08140916zm-2.09454011-9.53676118 1.7277944-1.08140916.33019423 10.60037114-.14957712.0177992z" fill="url(#b)" stroke="#fff" stroke-opacity=".1" stroke-width=".5" transform="translate(4.5 10)" />
</svg>
