<svg viewBox="0 0 28 32" 
    xmlns="http://www.w3.org/2000/svg" 
    xmlns:xlink="http://www.w3.org/1999/xlink">
    <defs>
        <radialGradient id="a" cx="51.016397%" cy="35.491126%" gradientTransform="matrix(0 -.875 1 0 .155253 .801304)" r="75.371657%">
            <stop offset="0" stop-color="#fff"/>
            <stop offset="1" stop-color="#232c37"/>
        </radialGradient>
        <linearGradient id="b" x1="52.038378%" x2="52.038378%" y1="4.297697%" y2="104.297697%">
            <stop offset="0" stop-color="#0d1116"/>
            <stop offset="1" stop-color="#252f3b"/>
        </linearGradient>
    </defs>
    <path d="m14.5562329.14923236 12.8875342 7.44358414c.3438727.19878812.5558572.56602293.5562329.96359937v14.88716823c-.0003757.3975765-.2123602.7648113-.5562329.9635994l-12.8875342 7.4435841c-.3441981.1989765-.7682677.1989765-1.1124658 0l-12.88753418-7.4435841c-.34387272-.1987881-.55585717-.5660229-.55623292-.9635994v-14.88716823c.00037575-.39757644.2123602-.76481125.55623292-.96359937l12.88753418-7.44358414c.3441981-.19897648.7682677-.19897648 1.1124658 0z"/>
    <path d="m14.5562329.14923236 12.8875342 7.44358414c.3438727.19878812.5558572.56602293.5562329.96359937v14.88716823c-.0003757.3975765-.2123602.7648113-.5562329.9635994l-12.8875342 7.4435841c-.3441981.1989765-.7682677.1989765-1.1124658 0l-12.88753418-7.4435841c-.34387272-.1987881-.55585717-.5660229-.55623292-.9635994v-14.88716823c.00037575-.39757644.2123602-.76481125.55623292-.96359937l12.88753418-7.44358414c.3441981-.19897648.7682677-.19897648 1.1124658 0z" fill="url(#a)" fill-opacity=".34"/>
    <path d="m9.38772727 5.46931034 1.03348483-2.67896551 8.2909091-2.58517242.0575758.14068966zm-9.16030303-5.12344827.05757576-.14068966 8.29090909 2.58810345 1.03348485 2.67896552zm12.23484846 6.05258621-2.78954543-.425 9.03939393-5.72724138.0921212.12017241zm-3.13787876-.425-2.78954546.425-6.33333333-6.03206897.09212121-.12017241zm.28787879 10.90051722-.14969697-.0175862.32530303-10.59862068 1.72727271 1.06982759zm-2.11015152-9.54637929 1.72727273-1.08155173.33106061 10.60155172-.14969697.0175862z" fill="url(#b)" stroke="#fff" stroke-opacity=".1" stroke-width=".5" transform="translate(4.5 10)" />
</svg>
