<svg height="15" viewBox="0 0 16 15" width="16" 
    xmlns="http://www.w3.org/2000/svg">
            <path d="m.56503015 15h14.86993975c.3169681 0 .5650301-.2516309.5650301-.5731594v-12.79123948c0-.32152843-.248062-.57315937-.5650301-.57315937h-2.7975883v-.48928238c0-.32152843-.257846-.57315937-.5650302-.57315937s-.5650301.25163094-.5650301.57315937v.48928238h-6.91817401v-.48928238c0-.32152843-.24893733-.57315937-.58740779-.57315937s-.54265251.25163094-.54265251.57315937v.48928238h-2.89405684c-.31696813 0-.56503015.25163094-.56503015.57315937v12.80521898c0 .307549.26184324.5591799.56503015.5591799zm2.89405684-13v.43794357c0 .45785009.39664116.56762589.54265251.56762589s.58740779-.1097758.58740779-.56762589v-.43794357h6.91817401v.43794357c0 .45785009.3576995.56762589.5650301.56762589.2073307 0 .5650302-.1097758.5650302-.56762589v-.43794357h2.3626184v2.11009174h-14v-2.11009174zm-2.45908699 3h14v9h-14z"/>
            <path d="m10.4508929 7h-7.90178576c-.30803571 0-.54910714.2195122-.54910714.5s.24107143.5.54910714.5h7.90178576c.3080357 0 .5491071-.2195122.5491071-.5s-.2410714-.5-.5491071-.5z"/>
            <path d="m6.45623342 10h-3.91246684c-.30503979 0-.54376658.2195122-.54376658.5s.23872679.5.54376658.5h3.91246684c.30503979 0 .54376658-.2195122.54376658-.5s-.23872679-.5-.54376658-.5z"/>
</svg>