<svg width="16px" height="14px" viewBox="0 0 16 14" version="1.1" xmlns="http://www.w3.org/2000/svg" xmlns:xlink="http://www.w3.org/1999/xlink">
    <path d="M10.5286667,7.26666667 C10.6766667,7.11866667 10.6766667,6.88566667 10.5286667,6.73766667 C10.3856667,6.58966667 10.1476667,6.58966667 10.005,6.73766667 L7.32266667,9.415 L7.32266667,0.568666667 C7.32266667,0.362333333 7.15866667,0.193 6.95233333,0.193 C6.746,0.193 6.57666667,0.362333333 6.57666667,0.568666667 L6.57666667,9.415 L3.89966667,6.73766667 C3.75166667,6.58966667 3.51333333,6.58966667 3.37066667,6.73766667 C3.22266667,6.88566667 3.22266667,7.11866667 3.37066667,7.26666667 L6.688,10.584 C6.831,10.727 7.069,10.727 7.217,10.584 L10.5286667,7.26666667 Z M13.158,9.69533333 C13.158,9.489 13.322,9.325 13.5283333,9.325 C13.7346667,9.325 13.904,9.489 13.904,9.69533333 L13.904,13.3353333 C13.904,13.5416667 13.7346667,13.711 13.5283333,13.711 L0.370333333,13.711 C0.164,13.711 0,13.5416667 0,13.3353333 L0,9.69533333 C0,9.489 0.164,9.325 0.370333333,9.325 C0.576666667,9.325 0.746,9.489 0.746,9.69533333 L0.746,12.965 L13.158,12.965 L13.158,9.69533333 Z"></path>
</svg>