<svg width="29px" height="29px" viewBox="0 0 29 29" version="1.1"
    xmlns="http://www.w3.org/2000/svg"
    xmlns:xlink="http://www.w3.org/1999/xlink">
   
                        <rect id="Rectangle-5" x="0" y="0" width="29" height="29" rx="14.5"></rect>
                        <path d="M19.4006537,19.2312925 C18.8751075,19.5102041 17.7021331,19.8888889 16.5571134,19.8888889 C15.3092207,19.8888889 14.1351282,19.5102041 13.3378634,18.5975057 C12.9621538,18.170068 12.6881989,17.585034 12.5137623,16.8265306 L18.7778256,16.8265306 L18.7778256,15.0306122 L12.1660072,15.0306122 C12.1660072,14.9047619 12.1660072,14.7789116 12.1660072,14.6258503 C12.1660072,14.3469388 12.1660072,14.0963719 12.1894891,13.8412698 L18.7789437,13.8412698 L18.7789437,12.0453515 L12.5651987,12.0453515 C12.7418717,11.3877551 12.987872,10.8061224 13.3646998,10.4013605 C14.1362463,9.46371882 15.2365388,9.03401361 16.4095132,9.03401361 C17.5042147,9.03401361 18.5541889,9.36394558 19.2027352,9.64172336 L19.8993635,6.7585034 C19.0003441,6.35487528 17.6551694,6 16.1568037,6 C13.7873731,6 11.7902976,6.96031746 10.3948047,8.60657596 C9.59754,9.5170068 8.97359367,10.6814059 8.67280234,12.0464853 L7,12.0464853 L7,13.8412698 L8.39884741,13.8412698 C8.39884741,14.0963719 8.37312919,14.3480726 8.37312919,14.600907 C8.37312919,14.7517007 8.37312919,14.9070295 8.37312919,15.0306122 L7,15.0306122 L7,16.8276644 L8.62360227,16.8276644 C8.84835713,18.1712018 9.34594874,19.2562358 10.0202133,20.1156463 C11.4190607,21.9875283 13.6375366,23 16.1064855,23 C17.7043695,23 19.152417,22.5192744 20,22.0408163 L19.4006537,19.2312925 Z" id="Path"></path>
          
</svg>
