<?xml version="1.0" encoding="UTF-8"?>
<svg width="29px" height="29px" viewBox="0 0 29 29" version="1.1" xmlns="http://www.w3.org/2000/svg" xmlns:xlink="http://www.w3.org/1999/xlink">
                        <rect id="Rectangle-5" x="0" y="0" width="29" height="29" rx="14.5"></rect>
                        <path d="M19.1496099,16.4923198 C19.0635308,16.2104698 18.9590933,15.965169 18.8364367,15.7568553 C18.7138498,15.5483395 18.5382777,15.3449439 18.3093721,15.1459949 C18.0807451,14.947147 17.875075,14.7870042 17.6927099,14.6652633 C17.5104493,14.5434213 17.2600849,14.4071955 16.941756,14.2564173 C16.6237058,14.1056729 16.3717041,13.9934988 16.1862038,13.9197266 C16.0004597,13.8460555 15.7317716,13.7450652 15.3803139,13.6168229 C15.0687083,13.5014823 14.8367023,13.4132926 14.6840521,13.3524222 C14.5315761,13.2914844 14.3310616,13.2049789 14.0824042,13.0927038 C13.8338512,12.9805971 13.6481768,12.8811562 13.5254853,12.7946508 C13.4028287,12.7081454 13.271916,12.6023716 13.1326428,12.4773632 C12.9933695,12.3523548 12.8955856,12.2192954 12.8391865,12.0782525 C12.7829268,11.9371759 12.7547099,11.783265 12.7547099,11.6165534 C12.7547099,11.1806577 12.9535523,10.8246986 13.3513763,10.5490805 C13.7492352,10.2734623 14.2631668,10.1355859 14.8931014,10.1355859 C15.1714389,10.1355859 15.4552108,10.1724046 15.7434416,10.2462104 C16.0316725,10.3200163 16.2786927,10.4031531 16.4842583,10.4961936 C16.6899982,10.5892341 16.883859,10.6918414 17.0662589,10.8039818 C17.248624,10.9162232 17.3778645,11.0011117 17.4541896,11.0588157 C17.5304451,11.1165534 17.5787622,11.154989 17.5984444,11.1742573 C17.6847674,11.2383616 17.7740513,11.2607628 17.8668886,11.2415955 C17.9663098,11.2351952 18.0426348,11.1838241 18.0957942,11.0877519 L18.9015447,9.6835883 C18.9810747,9.5554134 18.9646322,9.43357145 18.8518341,9.31809614 C18.811982,9.27962683 18.7624456,9.23479088 18.702354,9.18345355 C18.6428545,9.13211621 18.5135095,9.03917678 18.3144232,8.90446681 C18.115546,8.7698579 17.9050337,8.64963288 17.6830604,8.54382543 C17.4608433,8.43811903 17.1723337,8.33066097 16.8175666,8.22172072 C16.4630085,8.11261205 16.0965714,8.03894096 15.7185341,8.00050533 L15.7185341,6.3077545 C15.7185341,6.21804892 15.6887495,6.14427677 15.6292501,6.08653911 C15.5696113,6.0289362 15.4933211,6 15.4003445,6 L14.0575663,6 C13.9713827,6 13.8967994,6.03041838 13.8338164,6.0913562 C13.7708334,6.15229401 13.7393419,6.22438187 13.7393419,6.3077545 L13.7393419,8.03890727 C12.6983108,8.23118646 11.8529173,8.66078292 11.2031263,9.32759557 C10.5534051,9.99444191 10.2284225,10.7701274 10.2284225,11.6550227 C10.2284225,11.9178739 10.2567091,12.1679244 10.3130733,12.4050395 C10.3693679,12.6423568 10.4390394,12.8555549 10.5219484,13.0446677 C10.6047878,13.2339151 10.7225326,13.419794 10.8750086,13.6025738 C11.0274846,13.7852862 11.1717393,13.9423973 11.3076335,14.0737723 C11.4435974,14.2051137 11.6209809,14.3414069 11.8397145,14.4824161 C12.0585874,14.6235601 12.2458992,14.7374522 12.4017542,14.8239576 C12.5576441,14.9101935 12.7648122,15.0099038 13.0233282,15.1218421 C13.2819139,15.2341173 13.4858771,15.3189721 13.6350785,15.3768108 C13.78428,15.4344474 13.9881387,15.5146873 14.2468288,15.6170587 C14.6048357,15.7517013 14.8701098,15.8559256 15.042477,15.9296977 C15.2149835,16.0034699 15.4337171,16.1060435 15.6990957,16.2374859 C15.9642305,16.3687936 16.1580913,16.4890523 16.2808525,16.5980936 C16.4035091,16.7071349 16.5145306,16.8417775 16.6140563,17.0020214 C16.713582,17.1622653 16.7634319,17.332177 16.7634319,17.5117903 C16.7634319,18.0183254 16.5595383,18.4093515 16.1516467,18.6848349 C15.7439293,18.9606214 15.2713478,19.0984642 14.7343549,19.0984642 C14.4892507,19.0984642 14.2437285,19.072964 13.9984849,19.021694 C13.1365095,18.8547803 12.3309332,18.4540527 11.5816862,17.8193427 L11.561795,17.800108 C11.5020866,17.7297719 11.4224869,17.7008693 11.3231354,17.713771 C11.2170258,17.7265717 11.1407355,17.7650747 11.0943692,17.8293137 L10.0699199,19.1275688 C9.97042907,19.2557774 9.97715237,19.3871862 10.089846,19.5218288 C10.1230444,19.5603318 10.1810459,19.6181705 10.2638853,19.6949743 C10.3469337,19.7720814 10.5011166,19.8921043 10.7264342,20.0559189 C10.9518213,20.2194977 11.1971694,20.3731728 11.4624435,20.517618 C11.7276828,20.6618274 12.0641263,20.8044199 12.4719831,20.9455302 C12.8798398,21.0864047 13.3024321,21.1857444 13.7400734,21.2434147 L13.7400734,22.926464 C13.7400734,23.0099377 13.7715998,23.0819919 13.8345479,23.1429634 C13.8975658,23.2039686 13.9721143,23.2342859 14.0582979,23.2342859 L15.401076,23.2342859 C15.4940526,23.2342859 15.5703429,23.2054844 15.6299468,23.1478478 C15.6895507,23.0902112 15.7192308,23.0164391 15.7192308,22.9264977 L15.7192308,21.2434484 C16.7736736,21.0767705 17.6306675,20.6391568 18.2903169,19.930641 C18.950036,19.2221252 19.2800001,18.3773835 19.2800001,17.3964834 C19.2796517,17.075962 19.2366296,16.7746078 19.1496099,16.4923198 Z" id="Path"></path>
                  
</svg>